#define AirplaneMode_width 9
#define AirplaneMode_height 8
static unsigned char AirplaneMode_bits[] = {
   0x0c, 0x00, 0x18, 0x00, 0x39, 0x00, 0xff, 0x01, 0xff, 0x01, 0x39, 0x00,
   0x18, 0x00, 0x0c, 0x00 };
