#define 2000px_Biohazard_symbol_svg_width 68
#define 2000px_Biohazard_symbol_svg_height 64
static unsigned char 2000px_Biohazard_symbol_svg_bits[] = {
   0x00, 0x00, 0x00, 0x60, 0x60, 0x00, 0x00, 0x00, 0x00, 0x00, 0x00, 0x00,
   0x1c, 0x80, 0x03, 0x00, 0x00, 0x00, 0x00, 0x00, 0x00, 0x07, 0x00, 0x0e,
   0x00, 0x00, 0x00, 0x00, 0x00, 0xc0, 0x01, 0x00, 0x38, 0x00, 0x00, 0x00,
   0x00, 0x00, 0xe0, 0x00, 0x00, 0x70, 0x00, 0x00, 0x00, 0x00, 0x00, 0x70,
   0x00, 0x00, 0xe0, 0x00, 0x00, 0x00, 0x00, 0x00, 0x38, 0x00, 0x00, 0xc0,
   0x01, 0x00, 0x00, 0x00, 0x00, 0x3c, 0x00, 0x00, 0x80, 0x03, 0x00, 0x00,
   0x00, 0x00, 0x1e, 0x00, 0x00, 0x80, 0x07, 0x00, 0x00, 0x00, 0x00, 0x1f,
   0x00, 0x00, 0x80, 0x0f, 0x00, 0x00, 0x00, 0x00, 0x0f, 0x00, 0x00, 0x00,
   0x0f, 0x00, 0x00, 0x00, 0x80, 0x0f, 0x00, 0x00, 0x00, 0x1f, 0x00, 0x00,
   0x00, 0x80, 0x0f, 0x00, 0x00, 0x00, 0x1f, 0x00, 0x00, 0x00, 0xc0, 0x0f,
   0x00, 0x00, 0x00, 0x3e, 0x00, 0x00, 0x00, 0xc0, 0x07, 0x00, 0x00, 0x00,
   0x3f, 0x00, 0x00, 0x00, 0xc0, 0x07, 0x00, 0x00, 0x00, 0x3e, 0x00, 0x00,
   0x00, 0xc0, 0x0f, 0x00, 0x00, 0x00, 0x3f, 0x00, 0x00, 0x00, 0xe0, 0x0f,
   0xc0, 0x3f, 0x00, 0x7f, 0x00, 0x00, 0x00, 0xe0, 0x0f, 0xf8, 0xff, 0x01,
   0x7f, 0x00, 0x00, 0x00, 0xe0, 0x0f, 0xfe, 0xff, 0x07, 0x7f, 0x00, 0x00,
   0x00, 0xe0, 0x9f, 0xff, 0xff, 0x9f, 0x7f, 0x00, 0x00, 0x00, 0xe0, 0x9f,
   0xff, 0xff, 0x9f, 0x7f, 0x00, 0x00, 0x00, 0xe0, 0xbf, 0x3f, 0xc0, 0xdf,
   0x7f, 0x00, 0x00, 0x00, 0xe0, 0x3f, 0x07, 0x00, 0xce, 0x7f, 0x00, 0x00,
   0x00, 0xf0, 0x7f, 0x02, 0x00, 0xe4, 0xff, 0x00, 0x00, 0x00, 0xfc, 0xff,
   0x00, 0x00, 0xf0, 0xff, 0x03, 0x00, 0x00, 0xfe, 0xff, 0x01, 0x00, 0xf8,
   0xff, 0x07, 0x00, 0x80, 0xff, 0xff, 0x07, 0x00, 0xfe, 0xff, 0x1f, 0x00,
   0xc0, 0xff, 0xff, 0x1f, 0x80, 0xff, 0xff, 0x3f, 0x00, 0xe0, 0xff, 0xff,
   0xff, 0xf9, 0xff, 0xff, 0x7f, 0x00, 0xe0, 0xff, 0xff, 0xff, 0xf9, 0xff,
   0xff, 0x7f, 0x00, 0xf0, 0xff, 0xfe, 0xff, 0xf9, 0xff, 0xef, 0xff, 0x00,
   0xf8, 0x07, 0xe0, 0x7f, 0xe0, 0x7f, 0x00, 0xfe, 0x01, 0xfc, 0x01, 0x8f,
   0x7f, 0xc0, 0x1f, 0x0f, 0xf8, 0x03, 0x7c, 0x80, 0x0f, 0x3e, 0xc0, 0x07,
   0x1f, 0xe0, 0x03, 0x3c, 0x80, 0x0f, 0x3c, 0xc0, 0x03, 0x1f, 0xc0, 0x03,
   0x1e, 0x80, 0x0f, 0x38, 0xc0, 0x01, 0x0f, 0x80, 0x07, 0x0e, 0x00, 0x0f,
   0x10, 0x80, 0x00, 0x1f, 0x00, 0x07, 0x0e, 0x00, 0x0f, 0x40, 0x20, 0x00,
   0x0f, 0x00, 0x07, 0x07, 0x00, 0x1f, 0xe0, 0x70, 0x80, 0x0f, 0x00, 0x0e,
   0x03, 0x00, 0x1f, 0xe0, 0x7f, 0x80, 0x0f, 0x00, 0x0c, 0x03, 0x00, 0x1f,
   0xc0, 0x3f, 0x80, 0x0f, 0x00, 0x0c, 0x03, 0x00, 0x3e, 0xc0, 0x3f, 0xc0,
   0x07, 0x00, 0x0c, 0x03, 0x00, 0x7e, 0xc0, 0x3f, 0xe0, 0x07, 0x00, 0x0c,
   0x01, 0x00, 0x7c, 0x80, 0x1f, 0xe0, 0x03, 0x00, 0x0c, 0x03, 0x00, 0xfc,
   0x80, 0x1f, 0xf0, 0x03, 0x00, 0x08, 0x01, 0x00, 0xf8, 0xc1, 0x1f, 0xf8,
   0x01, 0x00, 0x04, 0x02, 0x00, 0xf0, 0x87, 0x3f, 0xfe, 0x00, 0x00, 0x04,
   0x02, 0x00, 0xf0, 0xdf, 0x9f, 0xff, 0x00, 0x00, 0x04, 0x02, 0x00, 0xc0,
   0xdf, 0xbf, 0x3f, 0x00, 0x00, 0x04, 0x02, 0x00, 0x80, 0xcf, 0x3f, 0x1f,
   0x00, 0x00, 0x04, 0x00, 0x00, 0x00, 0xef, 0x7f, 0x0f, 0x00, 0x00, 0x00,
   0x00, 0x00, 0x00, 0xe4, 0x7f, 0x02, 0x00, 0x00, 0x00, 0x00, 0x00, 0x00,
   0xe0, 0xff, 0x00, 0x00, 0x00, 0x00, 0x00, 0x00, 0x00, 0xf0, 0xff, 0x00,
   0x00, 0x00, 0x00, 0x00, 0x00, 0x00, 0xf8, 0xff, 0x01, 0x00, 0x00, 0x00,
   0x20, 0x00, 0x00, 0xfc, 0xff, 0x03, 0x00, 0x40, 0x00, 0x40, 0x00, 0x00,
   0xfe, 0xff, 0x07, 0x00, 0x20, 0x00, 0x80, 0x00, 0x00, 0xff, 0xff, 0x0f,
   0x00, 0x10, 0x00, 0x00, 0x03, 0xe0, 0xff, 0xff, 0x3f, 0x00, 0x0e, 0x00,
   0x00, 0x7e, 0xfd, 0xff, 0xf0, 0xff, 0xd7, 0x07, 0x00, 0x00, 0xf8, 0xff,
   0x7f, 0xe0, 0xff, 0xff, 0x01, 0x00, 0x00, 0xe0, 0xff, 0x0f, 0x80, 0xff,
   0x7f, 0x00, 0x00, 0x00, 0x00, 0xff, 0x01, 0x00, 0xf8, 0x0f, 0x00, 0x00 };
