#define matrix_c_width 6
#define matrix_c_height 6
static unsigned char matrix_c_bits[] = {
   0x1c, 0x0d, 0x0d, 0x19, 0x01, 0x23 };
