#define matrix_e_width 6
#define matrix_e_height 6
static unsigned char matrix_e_bits[] = {
   0x00, 0x1c, 0x00, 0x0c, 0x00, 0x3f };
