G04 #@! TF.FileFunction,Copper,L2,Bot,Signal*
%FSLAX46Y46*%
G04 Gerber Fmt 4.6, Leading zero omitted, Abs format (unit mm)*
G04 Created by KiCad (PCBNEW 4.0.2+e4-6225~38~ubuntu16.04.1-stable) date Wed 15 Jun 2016 08:19:12 PM PDT*
%MOMM*%
G01*
G04 APERTURE LIST*
%ADD10C,0.100000*%
%ADD11C,2.032000*%
%ADD12O,2.032000X1.727200*%
%ADD13C,1.998980*%
%ADD14R,1.200000X3.000000*%
%ADD15C,2.235200*%
%ADD16C,1.397000*%
%ADD17C,1.524000*%
%ADD18O,2.032000X2.032000*%
%ADD19R,1.000000X1.250000*%
%ADD20R,1.250000X1.000000*%
%ADD21C,1.000000*%
%ADD22O,1.250000X3.200000*%
%ADD23C,1.727200*%
%ADD24O,1.727200X2.032000*%
%ADD25C,0.600000*%
%ADD26C,0.500000*%
%ADD27C,0.250000*%
%ADD28C,1.500000*%
%ADD29C,0.254000*%
G04 APERTURE END LIST*
D10*
D11*
X67750000Y-92960000D03*
D12*
X67750000Y-95500000D03*
X67750000Y-98040000D03*
X67750000Y-100580000D03*
X67750000Y-103120000D03*
D13*
X95000000Y-51750000D03*
X97700020Y-49049980D03*
X92299980Y-49049980D03*
X92299980Y-54450020D03*
X97700020Y-54450020D03*
D14*
X102000000Y-78250000D03*
X100000000Y-78250000D03*
X98000000Y-78250000D03*
X96000000Y-78250000D03*
X94000000Y-78250000D03*
X92000000Y-78250000D03*
X90000000Y-78250000D03*
X88000000Y-78250000D03*
X102000000Y-60650000D03*
X100000000Y-60650000D03*
X98000000Y-60650000D03*
X96000000Y-60650000D03*
X94000000Y-60650000D03*
X92000000Y-60650000D03*
X90000000Y-60650000D03*
X88000000Y-60650000D03*
D15*
X61900000Y-106400000D03*
X128750000Y-96250000D03*
D11*
X116250000Y-82290000D03*
D12*
X116250000Y-79750000D03*
X116250000Y-77210000D03*
D11*
X120500000Y-104370000D03*
D12*
X120500000Y-101830000D03*
X120500000Y-99290000D03*
X120500000Y-96750000D03*
X120500000Y-94210000D03*
X120500000Y-91670000D03*
D15*
X66400000Y-111300000D03*
X121500000Y-111250000D03*
X126000000Y-107500000D03*
X128750000Y-102500000D03*
X126750000Y-91250000D03*
X122500000Y-87250000D03*
X65700000Y-87200000D03*
X60300000Y-99300000D03*
X61400000Y-92300000D03*
D16*
X80960000Y-119940000D03*
X86040000Y-119940000D03*
X80960000Y-127560000D03*
X86040000Y-127560000D03*
X88210000Y-125190000D03*
X93290000Y-125190000D03*
X88210000Y-132810000D03*
X93290000Y-132810000D03*
X73210000Y-125190000D03*
X78290000Y-125190000D03*
X73210000Y-132810000D03*
X78290000Y-132810000D03*
X80960000Y-129690000D03*
X86040000Y-129690000D03*
X80960000Y-137310000D03*
X86040000Y-137310000D03*
X109460000Y-125190000D03*
X114540000Y-125190000D03*
X109460000Y-132810000D03*
X114540000Y-132810000D03*
D17*
X85000000Y-62150000D03*
X85000000Y-75350000D03*
D11*
X90500000Y-113250000D03*
D18*
X87960000Y-113250000D03*
D11*
X99500000Y-113250000D03*
D18*
X102040000Y-113250000D03*
D19*
X90000000Y-57750000D03*
X88000000Y-57750000D03*
X90000000Y-51750000D03*
X88000000Y-51750000D03*
D20*
X90000000Y-55750000D03*
X90000000Y-53750000D03*
D21*
X91500000Y-141620000D03*
X94000000Y-141620000D03*
X96000000Y-141620000D03*
X98500000Y-141620000D03*
D22*
X100850000Y-143750000D03*
X89150000Y-143750000D03*
D17*
X79650000Y-84580000D03*
X92350000Y-84580000D03*
D23*
X102500000Y-81500000D03*
D24*
X99960000Y-81500000D03*
X97420000Y-81500000D03*
X94880000Y-81500000D03*
X92340000Y-81500000D03*
X89800000Y-81500000D03*
X87260000Y-81500000D03*
D25*
X118500000Y-77100000D03*
X118500000Y-88800000D03*
X81000000Y-108400000D03*
X93297977Y-86771035D03*
X99750000Y-93000000D03*
X104750000Y-98500000D03*
X110041956Y-85291956D03*
X105500000Y-86250000D03*
X102250000Y-87075020D03*
X89500000Y-89650000D03*
X86750000Y-78500000D03*
X80158044Y-71758044D03*
X92120000Y-63400000D03*
X93460000Y-63400000D03*
X101700000Y-129800000D03*
X101900000Y-128200000D03*
X98800000Y-129800000D03*
X74300000Y-142900000D03*
X72800000Y-143800000D03*
X113700000Y-139800000D03*
X74300000Y-75400000D03*
X74300000Y-71400000D03*
X81800000Y-70400000D03*
X107600000Y-70400000D03*
X76600000Y-99700000D03*
X76800000Y-102600000D03*
X78400000Y-142100000D03*
X80000000Y-140400000D03*
X77500000Y-117700000D03*
X79300000Y-116200000D03*
X71900000Y-114400000D03*
X111700000Y-143000000D03*
X109200000Y-140400000D03*
X100625000Y-98000000D03*
X87500000Y-95500000D03*
X85200000Y-95500000D03*
X100500000Y-100600000D03*
X106700000Y-101200000D03*
X88800000Y-100000000D03*
X88560043Y-97631041D03*
X89600000Y-98400000D03*
X83000000Y-105600000D03*
X91700000Y-76000000D03*
X91608862Y-73574980D03*
X91697248Y-74825020D03*
X100800000Y-141000000D03*
X102800000Y-143800000D03*
X89200000Y-141000000D03*
X87400000Y-143700000D03*
X71825000Y-118625000D03*
X111500000Y-75400000D03*
X109900000Y-73400000D03*
X113300000Y-86800000D03*
X111700000Y-85000000D03*
X92500000Y-57800000D03*
X110300000Y-114600000D03*
X87736120Y-85486819D03*
X86500000Y-54200000D03*
X86500000Y-55600000D03*
X90780000Y-63400000D03*
X89440000Y-63400000D03*
X86700000Y-63000000D03*
X86500000Y-61600000D03*
X86500000Y-50600000D03*
X88700000Y-49400000D03*
X100100000Y-51400000D03*
X100100000Y-52800000D03*
X100100000Y-57800000D03*
X100100000Y-55800000D03*
X99300000Y-56800000D03*
X96300000Y-56800000D03*
X94700000Y-56800000D03*
X98580000Y-57800000D03*
X97060000Y-57800000D03*
X95540000Y-57800000D03*
X94020000Y-57800000D03*
X87500000Y-50200000D03*
X90300000Y-48800000D03*
X86500000Y-52200000D03*
X86500000Y-57000000D03*
X86500000Y-58600000D03*
X86500000Y-60200000D03*
X88100000Y-63400000D03*
X99500000Y-48800000D03*
X100100000Y-49600000D03*
X100100000Y-54400000D03*
X92900000Y-56800000D03*
X97700000Y-56800000D03*
X104250000Y-94250000D03*
X114000000Y-114250000D03*
X115750000Y-116250000D03*
X78500000Y-107000000D03*
X79500000Y-105250000D03*
X77250000Y-93750000D03*
X100000000Y-89750000D03*
X91250000Y-86500000D03*
X109000000Y-92500000D03*
X108250000Y-102750000D03*
X107750000Y-93750000D03*
X108250000Y-99750000D03*
X83750000Y-96750000D03*
X92100000Y-122700000D03*
X75000000Y-102900000D03*
X84500000Y-103600000D03*
X89800000Y-102200000D03*
X75200000Y-98000000D03*
X112500000Y-79900000D03*
X93074980Y-95911984D03*
X75125000Y-115050000D03*
X77900000Y-98000000D03*
X91298389Y-103285523D03*
X79500000Y-103750000D03*
X116000000Y-142250000D03*
X72750000Y-138750000D03*
X115200000Y-136800000D03*
X117100000Y-114600000D03*
X114545835Y-104824903D03*
X114000000Y-109750000D03*
X116300000Y-73400000D03*
X109750000Y-96250000D03*
X113300000Y-68700000D03*
X106000000Y-71300000D03*
X86500000Y-71300000D03*
X79500000Y-73300000D03*
X117766727Y-104583033D03*
X97300000Y-99400000D03*
X100100000Y-101800000D03*
X103479439Y-103749978D03*
X117698800Y-103785910D03*
X96500000Y-99400000D03*
X96250000Y-133750000D03*
X95550013Y-99500000D03*
X94250000Y-135000000D03*
X94750000Y-99500000D03*
X86900000Y-103900000D03*
X89800000Y-103300000D03*
X88722986Y-123650389D03*
X93700000Y-99600000D03*
X101450379Y-109109103D03*
X96325000Y-100600000D03*
X117700105Y-109489899D03*
X97700000Y-70674980D03*
X97500000Y-64000000D03*
X97700000Y-73800000D03*
X99300000Y-73800000D03*
X105100000Y-91800000D03*
X105100000Y-87600000D03*
X99500000Y-70674980D03*
X96300000Y-75200000D03*
X100400000Y-75200000D03*
X99500000Y-64000000D03*
X91250000Y-83000000D03*
X97350000Y-87850000D03*
X101251589Y-96025020D03*
X97700000Y-83200000D03*
X97700000Y-85400000D03*
X97925020Y-97806173D03*
X98500000Y-70674980D03*
X98500000Y-73000000D03*
X98500000Y-64000000D03*
X104332378Y-91256535D03*
X104300000Y-87600000D03*
X100400000Y-70674980D03*
X100400000Y-64000000D03*
X101200000Y-75900000D03*
X98072409Y-98592486D03*
X96700000Y-86200000D03*
X98325020Y-84600000D03*
X92530344Y-97469656D03*
X77100000Y-107800000D03*
X91216784Y-104225041D03*
X117693022Y-108591369D03*
X117753947Y-107793681D03*
X117792787Y-106994613D03*
X117700000Y-106200000D03*
X117697057Y-105380006D03*
X117100000Y-87800000D03*
X106100000Y-87800000D03*
X82100000Y-87800000D03*
X67957363Y-87975292D03*
X94700000Y-94600000D03*
X103500000Y-105800013D03*
X103500000Y-110700000D03*
X104513405Y-110609124D03*
X104500000Y-105700000D03*
X82100000Y-90200000D03*
X88325663Y-93741752D03*
X82100000Y-89400000D03*
X88437185Y-92949551D03*
X82100000Y-88600000D03*
X67980105Y-88774980D03*
X92423266Y-91786454D03*
X89500000Y-88550000D03*
X91250000Y-88500000D03*
X82100000Y-91000013D03*
X64824969Y-91851129D03*
X91700000Y-98000000D03*
X71250000Y-82250000D03*
X90500000Y-133900000D03*
X92300000Y-104800000D03*
D26*
X118500000Y-88800000D02*
X118500000Y-77900000D01*
X118500000Y-77900000D02*
X118500000Y-77100000D01*
X90500000Y-109000000D02*
X89900000Y-108400000D01*
X89900000Y-108400000D02*
X81000000Y-108400000D01*
X90500000Y-113250000D02*
X90500000Y-109000000D01*
X104750000Y-98000000D02*
X104750000Y-98500000D01*
X87750000Y-78500000D02*
X88000000Y-78250000D01*
X109083912Y-86250000D02*
X110041956Y-85291956D01*
X105500000Y-86250000D02*
X109083912Y-86250000D01*
X103075020Y-86250000D02*
X102250000Y-87075020D01*
X86750000Y-78500000D02*
X87750000Y-78500000D01*
X91450000Y-89650000D02*
X93297977Y-87802023D01*
X89500000Y-89650000D02*
X91450000Y-89650000D01*
X99750000Y-93000000D02*
X104750000Y-98000000D01*
X93297977Y-87802023D02*
X93297977Y-86771035D01*
X105500000Y-86250000D02*
X103075020Y-86250000D01*
X92000000Y-60650000D02*
X92000000Y-63400000D01*
X81400000Y-104000000D02*
X81400000Y-103600000D01*
X83000000Y-105600000D02*
X81400000Y-104000000D01*
X100850000Y-143750000D02*
X102750000Y-143750000D01*
X102750000Y-143750000D02*
X102800000Y-143800000D01*
X89150000Y-143750000D02*
X87450000Y-143750000D01*
X87450000Y-143750000D02*
X87400000Y-143700000D01*
X89150000Y-143750000D02*
X89370000Y-143750000D01*
X89370000Y-143750000D02*
X91500000Y-141620000D01*
X97700020Y-49049980D02*
X99250020Y-49049980D01*
X99250020Y-49049980D02*
X99500000Y-48800000D01*
X87500000Y-50200000D02*
X87900000Y-50200000D01*
X87900000Y-50200000D02*
X88700000Y-49400000D01*
X92500000Y-57800000D02*
X93900000Y-57800000D01*
X88642939Y-84580000D02*
X87736120Y-85486819D01*
X92350000Y-84580000D02*
X88642939Y-84580000D01*
X86500000Y-57000000D02*
X86500000Y-55600000D01*
X88100000Y-63400000D02*
X89300000Y-63400000D01*
X86700000Y-63000000D02*
X86700000Y-61800000D01*
X86700000Y-61800000D02*
X86500000Y-61600000D01*
X86500000Y-60200000D02*
X86500000Y-61600000D01*
X86500000Y-58600000D02*
X86500000Y-57000000D01*
X86500000Y-60200000D02*
X86500000Y-58600000D01*
X86500000Y-50600000D02*
X86500000Y-52200000D01*
X90300000Y-48800000D02*
X89300000Y-48800000D01*
X89300000Y-48800000D02*
X88700000Y-49400000D01*
X100100000Y-51400000D02*
X100100000Y-49600000D01*
X100100000Y-54400000D02*
X100100000Y-52800000D01*
X100100000Y-57800000D02*
X100100000Y-55800000D01*
X99300000Y-56800000D02*
X99300000Y-56600000D01*
X99300000Y-56600000D02*
X100100000Y-55800000D01*
X94700000Y-56800000D02*
X96300000Y-56800000D01*
X97100000Y-57800000D02*
X98700000Y-57800000D01*
X88000000Y-51750000D02*
X88000000Y-50700000D01*
X88000000Y-50700000D02*
X87500000Y-50200000D01*
X88000000Y-57750000D02*
X87350000Y-57750000D01*
X87350000Y-57750000D02*
X86500000Y-58600000D01*
X88000000Y-57750000D02*
X87250000Y-57750000D01*
X87250000Y-57750000D02*
X86500000Y-57000000D01*
X88000000Y-60650000D02*
X88000000Y-63300000D01*
X88000000Y-63300000D02*
X88100000Y-63400000D01*
X88000000Y-60650000D02*
X86950000Y-60650000D01*
X86950000Y-60650000D02*
X86500000Y-60200000D01*
X88000000Y-51750000D02*
X86950000Y-51750000D01*
X86950000Y-51750000D02*
X86500000Y-52200000D01*
X97700020Y-49049980D02*
X97799980Y-49049980D01*
X97700020Y-54450020D02*
X97700020Y-55049980D01*
X92299980Y-54450020D02*
X92299980Y-54799980D01*
X91200000Y-122700000D02*
X90800000Y-122700000D01*
X90800000Y-122700000D02*
X84100000Y-122700000D01*
X92100000Y-122700000D02*
X90800000Y-122700000D01*
X84400000Y-122700000D02*
X84100000Y-122700000D01*
X84100000Y-122700000D02*
X82200000Y-122700000D01*
X82200000Y-122700000D02*
X81700000Y-122700000D01*
X77900000Y-122700000D02*
X82200000Y-122700000D01*
X76100000Y-120900000D02*
X77900000Y-122700000D01*
X76100000Y-104000000D02*
X76100000Y-120900000D01*
X75000000Y-102900000D02*
X76100000Y-104000000D01*
D27*
X89800000Y-102200000D02*
X85900000Y-102200000D01*
X85900000Y-102200000D02*
X84500000Y-103600000D01*
D26*
X76000000Y-97100000D02*
X76000000Y-97200000D01*
X76000000Y-97200000D02*
X75200000Y-98000000D01*
X79650000Y-93450000D02*
X76000000Y-97100000D01*
X79650000Y-84580000D02*
X79650000Y-93450000D01*
D27*
X104500000Y-81000000D02*
X105600000Y-79900000D01*
X104500000Y-82200000D02*
X104500000Y-81000000D01*
X102600000Y-83950000D02*
X102750000Y-83950000D01*
X95424996Y-83950000D02*
X102600000Y-83950000D01*
X95149967Y-94124965D02*
X95149967Y-84225029D01*
X95325001Y-94299999D02*
X95149967Y-94124965D01*
X95325001Y-94900001D02*
X95325001Y-94299999D01*
X95149967Y-84225029D02*
X95424996Y-83950000D01*
X102750000Y-83950000D02*
X104500000Y-82200000D01*
X94313018Y-95911984D02*
X95325001Y-94900001D01*
X93074980Y-95911984D02*
X94313018Y-95911984D01*
X105600000Y-79900000D02*
X112500000Y-79900000D01*
X75125000Y-115050000D02*
X75125000Y-104225000D01*
X75125000Y-104225000D02*
X74100000Y-103200000D01*
X77900000Y-100200000D02*
X77900000Y-98000000D01*
X74100000Y-103200000D02*
X74100000Y-101600000D01*
X74100000Y-101600000D02*
X74600000Y-101100000D01*
X74600000Y-101100000D02*
X77000000Y-101100000D01*
X77000000Y-101100000D02*
X77900000Y-100200000D01*
X90874125Y-103285523D02*
X91298389Y-103285523D01*
X83049978Y-107299978D02*
X86859670Y-107299978D01*
X86859670Y-107299978D02*
X90874125Y-103285523D01*
X79500000Y-103750000D02*
X83049978Y-107299978D01*
X111750000Y-144750000D02*
X114250000Y-142250000D01*
X72750000Y-138750000D02*
X72750000Y-139250000D01*
X87450000Y-145250000D02*
X88000000Y-145800000D01*
X72750000Y-139250000D02*
X78750000Y-145250000D01*
X78750000Y-145250000D02*
X87450000Y-145250000D01*
X88000000Y-145800000D02*
X102500000Y-145800000D01*
X102500000Y-145800000D02*
X103550000Y-144750000D01*
X103550000Y-144750000D02*
X111750000Y-144750000D01*
X114250000Y-142250000D02*
X116000000Y-142250000D01*
X119500000Y-135800000D02*
X118500000Y-136800000D01*
X118500000Y-136800000D02*
X115200000Y-136800000D01*
X119500000Y-133500000D02*
X119500000Y-135800000D01*
X119500000Y-117000000D02*
X117100000Y-114600000D01*
X119500000Y-133500000D02*
X119500000Y-117000000D01*
X114545835Y-109204165D02*
X114545835Y-104824903D01*
X114000000Y-109750000D02*
X114545835Y-109204165D01*
X116599999Y-73699999D02*
X116300000Y-73400000D01*
X117824990Y-74924990D02*
X116599999Y-73699999D01*
X117824990Y-88175010D02*
X117824990Y-74924990D01*
X109750000Y-96250000D02*
X117824990Y-88175010D01*
X106000000Y-71300000D02*
X110700000Y-71300000D01*
X110700000Y-71300000D02*
X113300000Y-68700000D01*
X79799999Y-73000001D02*
X81500000Y-71300000D01*
X81500000Y-71300000D02*
X86500000Y-71300000D01*
X79500000Y-73300000D02*
X79799999Y-73000001D01*
X119234000Y-103540024D02*
X118190991Y-104583033D01*
X118190991Y-104583033D02*
X117766727Y-104583033D01*
X119234000Y-102943600D02*
X119234000Y-103540024D01*
X120347600Y-101830000D02*
X119234000Y-102943600D01*
X120500000Y-101830000D02*
X120347600Y-101830000D01*
X97300000Y-99400000D02*
X97990990Y-100090990D01*
X97990990Y-100090990D02*
X98390990Y-100090990D01*
X98390990Y-100090990D02*
X100100000Y-101800000D01*
X103055175Y-103749978D02*
X103479439Y-103749978D01*
X100425714Y-103749978D02*
X103055175Y-103749978D01*
X96500000Y-99824264D02*
X100425714Y-103749978D01*
X96500000Y-99400000D02*
X96500000Y-99824264D01*
X117698800Y-101938800D02*
X117698800Y-103785910D01*
X120500000Y-99290000D02*
X120347600Y-99290000D01*
X120347600Y-99290000D02*
X117698800Y-101938800D01*
X96250000Y-133750000D02*
X95550013Y-133050013D01*
X95672378Y-132245904D02*
X95734000Y-132207185D01*
X95359678Y-130878903D02*
X95428967Y-130871096D01*
X95550013Y-133050013D02*
X95550013Y-132500000D01*
X95242535Y-130996046D02*
X95254050Y-130963139D01*
X95550013Y-132500000D02*
X95558161Y-132427680D01*
X95428967Y-130871096D02*
X95461874Y-130859581D01*
X95558161Y-132427680D02*
X95582198Y-132358987D01*
X95734000Y-132207185D02*
X95802693Y-132183148D01*
X95394322Y-131525000D02*
X95359678Y-131521096D01*
X95802693Y-132183148D02*
X95875013Y-132175000D01*
X96186395Y-132175000D02*
X96258714Y-132166851D01*
X95297251Y-130908966D02*
X95326771Y-130890418D01*
X95272598Y-131466380D02*
X95254050Y-131436860D01*
X95297251Y-131491033D02*
X95272598Y-131466380D01*
X95359678Y-131521096D02*
X95326771Y-131509581D01*
X96258714Y-131533148D02*
X96186395Y-131525000D01*
X96327407Y-131557185D02*
X96258714Y-131533148D01*
X96479209Y-131708987D02*
X96440490Y-131647365D01*
X95582198Y-132358987D02*
X95620917Y-132297365D01*
X95620917Y-132297365D02*
X95672378Y-132245904D01*
X95875013Y-132175000D02*
X96186395Y-132175000D01*
X96327407Y-132142814D02*
X96389029Y-132104095D01*
X96389029Y-132104095D02*
X96440490Y-132052634D01*
X95238631Y-131030691D02*
X95242535Y-130996046D01*
X95254050Y-130963139D02*
X95272598Y-130933619D01*
X95272598Y-130933619D02*
X95297251Y-130908966D01*
X95550013Y-130719309D02*
X95550013Y-99500000D01*
X96258714Y-132166851D02*
X96327407Y-132142814D01*
X95516047Y-130816380D02*
X95534595Y-130786860D01*
X96503246Y-131922319D02*
X96511395Y-131850000D01*
X96440490Y-132052634D02*
X96479209Y-131991012D01*
X96479209Y-131991012D02*
X96503246Y-131922319D01*
X96511395Y-131850000D02*
X96503246Y-131777680D01*
X95326771Y-131509581D02*
X95297251Y-131491033D01*
X96503246Y-131777680D02*
X96479209Y-131708987D01*
X96389029Y-131595904D02*
X96327407Y-131557185D01*
X96440490Y-131647365D02*
X96389029Y-131595904D01*
X95238631Y-131369309D02*
X95238631Y-131030691D01*
X95326771Y-130890418D02*
X95359678Y-130878903D01*
X96186395Y-131525000D02*
X95394322Y-131525000D01*
X95254050Y-131436860D02*
X95242535Y-131403953D01*
X95242535Y-131403953D02*
X95238631Y-131369309D01*
X95461874Y-130859581D02*
X95491394Y-130841033D01*
X95546110Y-130753953D02*
X95550013Y-130719309D01*
X95491394Y-130841033D02*
X95516047Y-130816380D01*
X95534595Y-130786860D02*
X95546110Y-130753953D01*
X94750000Y-99500000D02*
X94750000Y-134500000D01*
X94750000Y-134500000D02*
X94250000Y-135000000D01*
X89800000Y-103300000D02*
X87500000Y-103300000D01*
X87500000Y-103300000D02*
X86900000Y-103900000D01*
X86040000Y-129690000D02*
X86040000Y-137310000D01*
X78290000Y-125190000D02*
X79829611Y-123650389D01*
X79829611Y-123650389D02*
X88298722Y-123650389D01*
X88298722Y-123650389D02*
X88722986Y-123650389D01*
X78290000Y-125190000D02*
X78290000Y-132810000D01*
X93290000Y-132810000D02*
X93290000Y-131822172D01*
X93290000Y-131822172D02*
X93290000Y-125190000D01*
X93290000Y-125190000D02*
X93290000Y-100010000D01*
X93290000Y-100010000D02*
X93700000Y-99600000D01*
X114540000Y-125190000D02*
X114540000Y-126177828D01*
X114540000Y-126177828D02*
X114540000Y-132810000D01*
X101450379Y-105725379D02*
X101450379Y-109109103D01*
X96325000Y-100600000D02*
X101450379Y-105725379D01*
X117700105Y-112100000D02*
X117700105Y-109489899D01*
X118300000Y-125200000D02*
X119000000Y-124500000D01*
X116100000Y-114700000D02*
X116100000Y-113700000D01*
X116100000Y-113700000D02*
X117700000Y-112100000D01*
X114540000Y-125190000D02*
X115527828Y-125190000D01*
X115527828Y-125190000D02*
X115537828Y-125200000D01*
X115537828Y-125200000D02*
X118300000Y-125200000D01*
X119000000Y-124500000D02*
X119000000Y-117600000D01*
X119000000Y-117600000D02*
X116100000Y-114700000D01*
X117700000Y-112100000D02*
X117700105Y-112100000D01*
X97700000Y-73800000D02*
X97700000Y-70674980D01*
X96500000Y-63000000D02*
X95450000Y-63000000D01*
X95450000Y-63000000D02*
X94000000Y-61550000D01*
X94000000Y-61550000D02*
X94000000Y-60650000D01*
X97500000Y-64000000D02*
X96500000Y-63000000D01*
X98875736Y-73800000D02*
X97700000Y-73800000D01*
X97000000Y-76300000D02*
X97000000Y-74500000D01*
X97000000Y-74500000D02*
X97700000Y-73800000D01*
X99300000Y-73800000D02*
X98875736Y-73800000D01*
X105100000Y-87600000D02*
X105100000Y-91800000D01*
X97000000Y-79814000D02*
X97000000Y-76300000D01*
X97420000Y-81500000D02*
X97420000Y-80234000D01*
X97420000Y-80234000D02*
X97000000Y-79814000D01*
X100400000Y-71574980D02*
X99799999Y-70974979D01*
X100400000Y-75200000D02*
X100400000Y-71574980D01*
X99799999Y-70974979D02*
X99500000Y-70674980D01*
X95700000Y-75200000D02*
X96300000Y-75200000D01*
X95000000Y-75900000D02*
X95700000Y-75200000D01*
X98000000Y-60650000D02*
X98000000Y-62500000D01*
X98000000Y-62500000D02*
X99500000Y-64000000D01*
X98000000Y-60650000D02*
X98000000Y-61550000D01*
X94880000Y-80234000D02*
X95000000Y-80114000D01*
X94880000Y-81500000D02*
X94880000Y-80234000D01*
X95000000Y-80114000D02*
X95000000Y-75900000D01*
X91250000Y-83000000D02*
X91250000Y-82830000D01*
X91250000Y-82830000D02*
X89920000Y-81500000D01*
X89920000Y-81500000D02*
X89920000Y-81652400D01*
X97331272Y-92104703D02*
X97331272Y-87868728D01*
X97331272Y-87868728D02*
X97350000Y-87850000D01*
X97331272Y-92104703D02*
X101251589Y-96025020D01*
X87380000Y-81500000D02*
X87380000Y-81652400D01*
X97700000Y-83200000D02*
X98430000Y-83200000D01*
X98430000Y-83200000D02*
X98700000Y-82930000D01*
X98700000Y-82930000D02*
X98700000Y-80450000D01*
X98700000Y-80450000D02*
X100000000Y-79150000D01*
X100000000Y-79150000D02*
X100000000Y-78250000D01*
X96300000Y-85400000D02*
X97700000Y-85400000D01*
X96049989Y-85650011D02*
X96300000Y-85400000D01*
X96049989Y-93752165D02*
X96049989Y-85650011D01*
X97925020Y-95627196D02*
X96049989Y-93752165D01*
X97925020Y-97806173D02*
X97925020Y-95627196D01*
X98500000Y-73000000D02*
X98500000Y-70674980D01*
X96000000Y-61550000D02*
X96050000Y-61550000D01*
X96050000Y-61550000D02*
X98500000Y-64000000D01*
X96000000Y-61550000D02*
X96000000Y-60650000D01*
X104300000Y-91224157D02*
X104332378Y-91256535D01*
X104300000Y-87600000D02*
X104300000Y-91224157D01*
X100699999Y-70974979D02*
X100400000Y-70674980D01*
X101200000Y-71474980D02*
X100699999Y-70974979D01*
X101200000Y-75900000D02*
X101200000Y-71474980D01*
X100400000Y-64000000D02*
X100000000Y-63600000D01*
X100000000Y-63600000D02*
X100000000Y-60650000D01*
X98550021Y-95615786D02*
X98550021Y-98114874D01*
X98550021Y-98114874D02*
X98072409Y-98592486D01*
X96500000Y-86400000D02*
X96500000Y-93565765D01*
X96700000Y-86200000D02*
X96500000Y-86400000D01*
X96500000Y-93565765D02*
X98550021Y-95615786D01*
X95700000Y-84600000D02*
X98325020Y-84600000D01*
X93391757Y-97469656D02*
X95775012Y-95086401D01*
X95599978Y-84700022D02*
X95700000Y-84600000D01*
X95775012Y-95086401D02*
X95775012Y-94113599D01*
X95775012Y-94113599D02*
X95599978Y-93938565D01*
X92530344Y-97469656D02*
X93391757Y-97469656D01*
X95599978Y-93938565D02*
X95599978Y-84700022D01*
X78113600Y-107749989D02*
X77150011Y-107749989D01*
X77150011Y-107749989D02*
X77100000Y-107800000D01*
X87691836Y-107749989D02*
X78113600Y-107749989D01*
X91216784Y-104225041D02*
X87691836Y-107749989D01*
X121500000Y-111250000D02*
X118841369Y-108591369D01*
X118841369Y-108591369D02*
X117693022Y-108591369D01*
X117918723Y-107793681D02*
X117753947Y-107793681D01*
X118212404Y-107500000D02*
X117918723Y-107793681D01*
X126000000Y-107500000D02*
X118212404Y-107500000D01*
X126000000Y-107500000D02*
X125652516Y-107847484D01*
X128750000Y-102500000D02*
X124255387Y-106994613D01*
X124255387Y-106994613D02*
X117792787Y-106994613D01*
X128750000Y-102500000D02*
X128750000Y-102622822D01*
X117700000Y-106200000D02*
X121291093Y-106200000D01*
X121291093Y-106200000D02*
X128750000Y-98741093D01*
X128750000Y-98741093D02*
X128750000Y-96250000D01*
X126750000Y-91250000D02*
X126750000Y-100104683D01*
X126750000Y-100104683D02*
X121136853Y-105717830D01*
X118121321Y-105380006D02*
X117697057Y-105380006D01*
X121136853Y-105717830D02*
X118459145Y-105717830D01*
X118459145Y-105717830D02*
X118121321Y-105380006D01*
X116500000Y-87800000D02*
X117100000Y-87800000D01*
X106100000Y-87800000D02*
X116500000Y-87800000D01*
X87244573Y-90971753D02*
X84072820Y-87800000D01*
X92526109Y-90971753D02*
X87244573Y-90971753D01*
X94700000Y-94600000D02*
X94400001Y-94300001D01*
X94400001Y-94300001D02*
X94400001Y-92845645D01*
X94400001Y-92845645D02*
X92526109Y-90971753D01*
X84072820Y-87800000D02*
X82100000Y-87800000D01*
X65958988Y-89824923D02*
X67808619Y-87975292D01*
X67808619Y-87975292D02*
X67957363Y-87975292D01*
X67597600Y-100580000D02*
X65958988Y-98941388D01*
X65958988Y-98941388D02*
X65958988Y-89824923D01*
X67750000Y-100580000D02*
X67597600Y-100580000D01*
X103500000Y-110700000D02*
X103500000Y-105800013D01*
X104500000Y-110595719D02*
X104513405Y-110609124D01*
X104500000Y-105700000D02*
X104500000Y-110595719D01*
X82170809Y-90129191D02*
X82100000Y-90200000D01*
X84465602Y-90129191D02*
X82170809Y-90129191D01*
X88025664Y-93441753D02*
X87778164Y-93441753D01*
X87778164Y-93441753D02*
X84465602Y-90129191D01*
X88325663Y-93741752D02*
X88025664Y-93441753D01*
X84382017Y-89409196D02*
X82109196Y-89409196D01*
X82109196Y-89409196D02*
X82100000Y-89400000D01*
X87922372Y-92949551D02*
X84382017Y-89409196D01*
X88437185Y-92949551D02*
X87922372Y-92949551D01*
X84266155Y-88656924D02*
X82156924Y-88656924D01*
X82156924Y-88656924D02*
X82100000Y-88600000D01*
X66408999Y-90346086D02*
X67980105Y-88774980D01*
X66408999Y-94311399D02*
X66408999Y-90346086D01*
X67597600Y-95500000D02*
X66408999Y-94311399D01*
X67750000Y-95500000D02*
X67597600Y-95500000D01*
X92423266Y-91786454D02*
X87395685Y-91786454D01*
X87395685Y-91786454D02*
X84266155Y-88656924D01*
X91250000Y-88500000D02*
X89550000Y-88500000D01*
X89550000Y-88500000D02*
X89500000Y-88550000D01*
X67657362Y-87350291D02*
X67749709Y-87350291D01*
X64824969Y-90182684D02*
X67657362Y-87350291D01*
X71250000Y-83850000D02*
X71250000Y-82250000D01*
X64824969Y-91851129D02*
X64824969Y-90182684D01*
X67749709Y-87350291D02*
X71250000Y-83850000D01*
X84700013Y-91000013D02*
X82100000Y-91000013D01*
X91700000Y-98000000D02*
X84700013Y-91000013D01*
X67597600Y-103120000D02*
X64824969Y-100347369D01*
X64824969Y-100347369D02*
X64824969Y-91851129D01*
D28*
X90000000Y-57750000D02*
X90000000Y-55750000D01*
X90000000Y-60650000D02*
X90000000Y-57750000D01*
X90000000Y-51750000D02*
X95000000Y-51750000D01*
X90000000Y-53750000D02*
X90000000Y-51750000D01*
D27*
X91900000Y-124000000D02*
X91900000Y-132500000D01*
X91900000Y-132500000D02*
X90500000Y-133900000D01*
X92800000Y-123100000D02*
X91900000Y-124000000D01*
X92800000Y-105724264D02*
X92800000Y-123100000D01*
X92300000Y-104800000D02*
X92300000Y-105224264D01*
X92300000Y-105224264D02*
X92800000Y-105724264D01*
D29*
G36*
X100339706Y-49462616D02*
X101299998Y-50086806D01*
X101965795Y-50562375D01*
X102545469Y-51045437D01*
X102551815Y-51048890D01*
X102556467Y-51054417D01*
X103806466Y-52054417D01*
X103893392Y-52099494D01*
X103974480Y-52154361D01*
X104913402Y-52549697D01*
X106174485Y-53131735D01*
X107876503Y-54104316D01*
X109320492Y-55066975D01*
X111017232Y-56521324D01*
X113198240Y-58702331D01*
X114649874Y-60879782D01*
X116111912Y-63316512D01*
X117075704Y-65725993D01*
X117806941Y-68407198D01*
X118296359Y-71098997D01*
X118542941Y-73564818D01*
X118762247Y-76196491D01*
X118686799Y-76165162D01*
X118584990Y-76165073D01*
X118584990Y-74924990D01*
X118527138Y-74634151D01*
X118362391Y-74387589D01*
X117235122Y-73260320D01*
X117235162Y-73214833D01*
X117093117Y-72871057D01*
X116830327Y-72607808D01*
X116486799Y-72465162D01*
X116114833Y-72464838D01*
X115771057Y-72606883D01*
X115507808Y-72869673D01*
X115365162Y-73213201D01*
X115364838Y-73585167D01*
X115506883Y-73928943D01*
X115769673Y-74192192D01*
X116113201Y-74334838D01*
X116160077Y-74334879D01*
X117064990Y-75239792D01*
X117064990Y-75863397D01*
X117008234Y-75825474D01*
X116434745Y-75711400D01*
X116065255Y-75711400D01*
X115491766Y-75825474D01*
X115005585Y-76150330D01*
X114680729Y-76636511D01*
X114566655Y-77210000D01*
X114680729Y-77783489D01*
X115005585Y-78269670D01*
X115320366Y-78480000D01*
X115005585Y-78690330D01*
X114680729Y-79176511D01*
X114566655Y-79750000D01*
X114680729Y-80323489D01*
X115005585Y-80809670D01*
X115308221Y-81011885D01*
X115265498Y-81125893D01*
X116250000Y-82110395D01*
X116264143Y-82096253D01*
X116443748Y-82275858D01*
X116429605Y-82290000D01*
X116443748Y-82304143D01*
X116264143Y-82483748D01*
X116250000Y-82469605D01*
X115265498Y-83454107D01*
X115366120Y-83722622D01*
X115981642Y-83951816D01*
X116638019Y-83928014D01*
X117064990Y-83751157D01*
X117064990Y-86864969D01*
X116914833Y-86864838D01*
X116571057Y-87006883D01*
X116537882Y-87040000D01*
X109463943Y-87040000D01*
X109709702Y-86875790D01*
X110450791Y-86134701D01*
X110570899Y-86085073D01*
X110834148Y-85822283D01*
X110976794Y-85478755D01*
X110977118Y-85106789D01*
X110835073Y-84763013D01*
X110572283Y-84499764D01*
X110228755Y-84357118D01*
X109856789Y-84356794D01*
X109513013Y-84498839D01*
X109249764Y-84761629D01*
X109199390Y-84882943D01*
X108717332Y-85365000D01*
X105806822Y-85365000D01*
X105686799Y-85315162D01*
X105314833Y-85314838D01*
X105193431Y-85365000D01*
X103075020Y-85365000D01*
X102736345Y-85432367D01*
X102449230Y-85624210D01*
X102449228Y-85624213D01*
X101841165Y-86232276D01*
X101721057Y-86281903D01*
X101457808Y-86544693D01*
X101315162Y-86888221D01*
X101314838Y-87260187D01*
X101456883Y-87603963D01*
X101719673Y-87867212D01*
X102063201Y-88009858D01*
X102435167Y-88010182D01*
X102778943Y-87868137D01*
X103042192Y-87605347D01*
X103092566Y-87484034D01*
X103441599Y-87135000D01*
X103480682Y-87135000D01*
X103365162Y-87413201D01*
X103364838Y-87785167D01*
X103506883Y-88128943D01*
X103540000Y-88162118D01*
X103540000Y-90726656D01*
X103397540Y-91069736D01*
X103397216Y-91441702D01*
X103539261Y-91785478D01*
X103802051Y-92048727D01*
X104145579Y-92191373D01*
X104250078Y-92191464D01*
X104306883Y-92328943D01*
X104569673Y-92592192D01*
X104913201Y-92734838D01*
X105285167Y-92735162D01*
X105628943Y-92593117D01*
X105892192Y-92330327D01*
X106034838Y-91986799D01*
X106035162Y-91614833D01*
X105893117Y-91271057D01*
X105860000Y-91237882D01*
X105860000Y-88712747D01*
X105913201Y-88734838D01*
X106285167Y-88735162D01*
X106628943Y-88593117D01*
X106662118Y-88560000D01*
X116365198Y-88560000D01*
X109610320Y-95314878D01*
X109564833Y-95314838D01*
X109221057Y-95456883D01*
X108957808Y-95719673D01*
X108815162Y-96063201D01*
X108814838Y-96435167D01*
X108956883Y-96778943D01*
X109219673Y-97042192D01*
X109563201Y-97184838D01*
X109935167Y-97185162D01*
X110278943Y-97043117D01*
X110542192Y-96780327D01*
X110684838Y-96436799D01*
X110684879Y-96389923D01*
X115763828Y-91310974D01*
X118892642Y-91310974D01*
X119013783Y-91543000D01*
X120373000Y-91543000D01*
X120373000Y-90329076D01*
X120627000Y-90329076D01*
X120627000Y-91543000D01*
X121986217Y-91543000D01*
X122107358Y-91310974D01*
X122104709Y-91295209D01*
X121850732Y-90767964D01*
X121414320Y-90378046D01*
X120861913Y-90184816D01*
X120627000Y-90329076D01*
X120373000Y-90329076D01*
X120138087Y-90184816D01*
X119585680Y-90378046D01*
X119149268Y-90767964D01*
X118895291Y-91295209D01*
X118892642Y-91310974D01*
X115763828Y-91310974D01*
X117726354Y-89348448D01*
X117969673Y-89592192D01*
X118313201Y-89734838D01*
X118685167Y-89735162D01*
X119028943Y-89593117D01*
X119292192Y-89330327D01*
X119434838Y-88986799D01*
X119435162Y-88614833D01*
X119385000Y-88493431D01*
X119385000Y-84725854D01*
X121446908Y-85642258D01*
X121607395Y-85722501D01*
X121508529Y-85763352D01*
X121015085Y-86255936D01*
X120747705Y-86899857D01*
X120747097Y-87597084D01*
X121013352Y-88241471D01*
X121505936Y-88734915D01*
X122149857Y-89002295D01*
X122847084Y-89002903D01*
X123491471Y-88736648D01*
X123984915Y-88244064D01*
X124252295Y-87600143D01*
X124252616Y-87231533D01*
X125039504Y-87793596D01*
X126228676Y-88982768D01*
X126669729Y-89497330D01*
X126402916Y-89497097D01*
X125758529Y-89763352D01*
X125265085Y-90255936D01*
X124997705Y-90899857D01*
X124997097Y-91597084D01*
X125263352Y-92241471D01*
X125755936Y-92734915D01*
X125990000Y-92832107D01*
X125990000Y-99789881D01*
X122030111Y-103749770D01*
X121900466Y-103436005D01*
X121510865Y-103045724D01*
X121744415Y-102889670D01*
X122069271Y-102403489D01*
X122183345Y-101830000D01*
X122069271Y-101256511D01*
X121744415Y-100770330D01*
X121429634Y-100560000D01*
X121744415Y-100349670D01*
X122069271Y-99863489D01*
X122183345Y-99290000D01*
X122069271Y-98716511D01*
X121744415Y-98230330D01*
X121429634Y-98020000D01*
X121744415Y-97809670D01*
X122069271Y-97323489D01*
X122183345Y-96750000D01*
X122069271Y-96176511D01*
X121744415Y-95690330D01*
X121429634Y-95480000D01*
X121744415Y-95269670D01*
X122069271Y-94783489D01*
X122183345Y-94210000D01*
X122069271Y-93636511D01*
X121744415Y-93150330D01*
X121434931Y-92943539D01*
X121850732Y-92572036D01*
X122104709Y-92044791D01*
X122107358Y-92029026D01*
X121986217Y-91797000D01*
X120627000Y-91797000D01*
X120627000Y-91817000D01*
X120373000Y-91817000D01*
X120373000Y-91797000D01*
X119013783Y-91797000D01*
X118892642Y-92029026D01*
X118895291Y-92044791D01*
X119149268Y-92572036D01*
X119565069Y-92943539D01*
X119255585Y-93150330D01*
X118930729Y-93636511D01*
X118816655Y-94210000D01*
X118930729Y-94783489D01*
X119255585Y-95269670D01*
X119570366Y-95480000D01*
X119255585Y-95690330D01*
X118930729Y-96176511D01*
X118816655Y-96750000D01*
X118930729Y-97323489D01*
X119255585Y-97809670D01*
X119570366Y-98020000D01*
X119255585Y-98230330D01*
X118930729Y-98716511D01*
X118816655Y-99290000D01*
X118892334Y-99670464D01*
X117161399Y-101401399D01*
X116996652Y-101647961D01*
X116938800Y-101938800D01*
X116938800Y-103223447D01*
X116906608Y-103255583D01*
X116763962Y-103599111D01*
X116763638Y-103971077D01*
X116885732Y-104266567D01*
X116831889Y-104396234D01*
X116831565Y-104768200D01*
X116884999Y-104897521D01*
X116762219Y-105193207D01*
X116761895Y-105565173D01*
X116856314Y-105793684D01*
X116765162Y-106013201D01*
X116764838Y-106385167D01*
X116898811Y-106709408D01*
X116857949Y-106807814D01*
X116857625Y-107179780D01*
X116926870Y-107347366D01*
X116819109Y-107606882D01*
X116818785Y-107978848D01*
X116876729Y-108119083D01*
X116758184Y-108404570D01*
X116757860Y-108776536D01*
X116870609Y-109049410D01*
X116765267Y-109303100D01*
X116764943Y-109675066D01*
X116906988Y-110018842D01*
X116940105Y-110052017D01*
X116940105Y-111785093D01*
X115562599Y-113162599D01*
X115397852Y-113409161D01*
X115340000Y-113700000D01*
X115340000Y-114700000D01*
X115397852Y-114990839D01*
X115562599Y-115237401D01*
X118240000Y-117914802D01*
X118240000Y-124185197D01*
X117985198Y-124440000D01*
X115672956Y-124440000D01*
X115671146Y-124435620D01*
X115296353Y-124060173D01*
X114806413Y-123856732D01*
X114275914Y-123856269D01*
X113785620Y-124058854D01*
X113410173Y-124433647D01*
X113206732Y-124923587D01*
X113206269Y-125454086D01*
X113408854Y-125944380D01*
X113780000Y-126316174D01*
X113780000Y-131684464D01*
X113410173Y-132053647D01*
X113206732Y-132543587D01*
X113206269Y-133074086D01*
X113408854Y-133564380D01*
X113783647Y-133939827D01*
X114273587Y-134143268D01*
X114804086Y-134143731D01*
X115294380Y-133941146D01*
X115669827Y-133566353D01*
X115873268Y-133076413D01*
X115873731Y-132545914D01*
X115671146Y-132055620D01*
X115300000Y-131683826D01*
X115300000Y-126315536D01*
X115656156Y-125960000D01*
X118300000Y-125960000D01*
X118590839Y-125902148D01*
X118740000Y-125802482D01*
X118740000Y-135485198D01*
X118185198Y-136040000D01*
X115762463Y-136040000D01*
X115730327Y-136007808D01*
X115386799Y-135865162D01*
X115014833Y-135864838D01*
X114671057Y-136006883D01*
X114407808Y-136269673D01*
X114265162Y-136613201D01*
X114264838Y-136985167D01*
X114406883Y-137328943D01*
X114669673Y-137592192D01*
X115013201Y-137734838D01*
X115385167Y-137735162D01*
X115728943Y-137593117D01*
X115762118Y-137560000D01*
X118500000Y-137560000D01*
X118790839Y-137502148D01*
X119037401Y-137337401D01*
X119790000Y-136584802D01*
X119790000Y-139392101D01*
X119702731Y-143319226D01*
X117378731Y-143800053D01*
X113188054Y-144386748D01*
X114564802Y-143010000D01*
X115437537Y-143010000D01*
X115469673Y-143042192D01*
X115813201Y-143184838D01*
X116185167Y-143185162D01*
X116528943Y-143043117D01*
X116792192Y-142780327D01*
X116934838Y-142436799D01*
X116935162Y-142064833D01*
X116793117Y-141721057D01*
X116530327Y-141457808D01*
X116186799Y-141315162D01*
X115814833Y-141314838D01*
X115471057Y-141456883D01*
X115437882Y-141490000D01*
X114250000Y-141490000D01*
X113959161Y-141547852D01*
X113712599Y-141712599D01*
X111435198Y-143990000D01*
X103550000Y-143990000D01*
X103259160Y-144047852D01*
X103012599Y-144212599D01*
X102185198Y-145040000D01*
X102052502Y-145040000D01*
X102110000Y-144852000D01*
X102110000Y-143877000D01*
X100977000Y-143877000D01*
X100977000Y-143897000D01*
X100723000Y-143897000D01*
X100723000Y-143877000D01*
X99590000Y-143877000D01*
X99590000Y-144852000D01*
X99647498Y-145040000D01*
X90352502Y-145040000D01*
X90410000Y-144852000D01*
X90410000Y-143877000D01*
X89277000Y-143877000D01*
X89277000Y-143897000D01*
X89023000Y-143897000D01*
X89023000Y-143877000D01*
X87890000Y-143877000D01*
X87890000Y-144647518D01*
X87740839Y-144547852D01*
X87450000Y-144490000D01*
X79064802Y-144490000D01*
X77222802Y-142648000D01*
X87890000Y-142648000D01*
X87890000Y-143623000D01*
X89023000Y-143623000D01*
X89023000Y-141681098D01*
X89277000Y-141681098D01*
X89277000Y-143623000D01*
X90410000Y-143623000D01*
X90410000Y-142648000D01*
X90265487Y-142175486D01*
X89951152Y-141794243D01*
X89514848Y-141562311D01*
X89471540Y-141556718D01*
X89277000Y-141681098D01*
X89023000Y-141681098D01*
X88828460Y-141556718D01*
X88785152Y-141562311D01*
X88348848Y-141794243D01*
X88034513Y-142175486D01*
X87890000Y-142648000D01*
X77222802Y-142648000D01*
X76049774Y-141474972D01*
X90351888Y-141474972D01*
X90383783Y-141925375D01*
X90494783Y-142193352D01*
X90709896Y-142230499D01*
X91320395Y-141620000D01*
X90709896Y-141009501D01*
X90494783Y-141046648D01*
X90351888Y-141474972D01*
X76049774Y-141474972D01*
X73634009Y-139059207D01*
X73684838Y-138936799D01*
X73685162Y-138564833D01*
X73552675Y-138244188D01*
X80205417Y-138244188D01*
X80267071Y-138479800D01*
X80767480Y-138655927D01*
X81297199Y-138627148D01*
X81652929Y-138479800D01*
X81714583Y-138244188D01*
X80960000Y-137489605D01*
X80205417Y-138244188D01*
X73552675Y-138244188D01*
X73543117Y-138221057D01*
X73280327Y-137957808D01*
X72936799Y-137815162D01*
X72564833Y-137814838D01*
X72221057Y-137956883D01*
X71957808Y-138219673D01*
X71815162Y-138563201D01*
X71814838Y-138935167D01*
X71956883Y-139278943D01*
X72005431Y-139327576D01*
X72047852Y-139540839D01*
X72212599Y-139787401D01*
X77170006Y-144744808D01*
X74983055Y-144494871D01*
X71698123Y-144096697D01*
X70410000Y-143893309D01*
X70410000Y-137117480D01*
X79614073Y-137117480D01*
X79642852Y-137647199D01*
X79790200Y-138002929D01*
X80025812Y-138064583D01*
X80780395Y-137310000D01*
X81139605Y-137310000D01*
X81894188Y-138064583D01*
X82129800Y-138002929D01*
X82305927Y-137502520D01*
X82277148Y-136972801D01*
X82129800Y-136617071D01*
X81894188Y-136555417D01*
X81139605Y-137310000D01*
X80780395Y-137310000D01*
X80025812Y-136555417D01*
X79790200Y-136617071D01*
X79614073Y-137117480D01*
X70410000Y-137117480D01*
X70410000Y-136375812D01*
X80205417Y-136375812D01*
X80960000Y-137130395D01*
X81714583Y-136375812D01*
X81652929Y-136140200D01*
X81152520Y-135964073D01*
X80622801Y-135992852D01*
X80267071Y-136140200D01*
X80205417Y-136375812D01*
X70410000Y-136375812D01*
X70410000Y-135300000D01*
X70409096Y-135295455D01*
X70409942Y-135290898D01*
X70390113Y-133744188D01*
X72455417Y-133744188D01*
X72517071Y-133979800D01*
X73017480Y-134155927D01*
X73547199Y-134127148D01*
X73902929Y-133979800D01*
X73964583Y-133744188D01*
X73210000Y-132989605D01*
X72455417Y-133744188D01*
X70390113Y-133744188D01*
X70375668Y-132617480D01*
X71864073Y-132617480D01*
X71892852Y-133147199D01*
X72040200Y-133502929D01*
X72275812Y-133564583D01*
X73030395Y-132810000D01*
X73389605Y-132810000D01*
X74144188Y-133564583D01*
X74379800Y-133502929D01*
X74555927Y-133002520D01*
X74527148Y-132472801D01*
X74379800Y-132117071D01*
X74144188Y-132055417D01*
X73389605Y-132810000D01*
X73030395Y-132810000D01*
X72275812Y-132055417D01*
X72040200Y-132117071D01*
X71864073Y-132617480D01*
X70375668Y-132617480D01*
X70366160Y-131875812D01*
X72455417Y-131875812D01*
X73210000Y-132630395D01*
X73964583Y-131875812D01*
X73902929Y-131640200D01*
X73402520Y-131464073D01*
X72872801Y-131492852D01*
X72517071Y-131640200D01*
X72455417Y-131875812D01*
X70366160Y-131875812D01*
X70309942Y-127490898D01*
X70309587Y-127489227D01*
X70309891Y-127487546D01*
X70285973Y-126124188D01*
X72455417Y-126124188D01*
X72517071Y-126359800D01*
X73017480Y-126535927D01*
X73547199Y-126507148D01*
X73902929Y-126359800D01*
X73964583Y-126124188D01*
X73210000Y-125369605D01*
X72455417Y-126124188D01*
X70285973Y-126124188D01*
X70266206Y-124997480D01*
X71864073Y-124997480D01*
X71892852Y-125527199D01*
X72040200Y-125882929D01*
X72275812Y-125944583D01*
X73030395Y-125190000D01*
X73389605Y-125190000D01*
X74144188Y-125944583D01*
X74379800Y-125882929D01*
X74555927Y-125382520D01*
X74527148Y-124852801D01*
X74379800Y-124497071D01*
X74144188Y-124435417D01*
X73389605Y-125190000D01*
X73030395Y-125190000D01*
X72275812Y-124435417D01*
X72040200Y-124497071D01*
X71864073Y-124997480D01*
X70266206Y-124997480D01*
X70253195Y-124255812D01*
X72455417Y-124255812D01*
X73210000Y-125010395D01*
X73964583Y-124255812D01*
X73902929Y-124020200D01*
X73402520Y-123844073D01*
X72872801Y-123872852D01*
X72517071Y-124020200D01*
X72455417Y-124255812D01*
X70253195Y-124255812D01*
X70210000Y-121793759D01*
X70210000Y-114750000D01*
X70205023Y-114724977D01*
X70208213Y-114699669D01*
X70178155Y-114589907D01*
X70155954Y-114478295D01*
X70141783Y-114457086D01*
X70135044Y-114432478D01*
X70065267Y-114342572D01*
X70002046Y-114247954D01*
X69980833Y-114233780D01*
X69965193Y-114213628D01*
X69866327Y-114157270D01*
X69771705Y-114094046D01*
X69746686Y-114089069D01*
X69724522Y-114076435D01*
X68255077Y-113586620D01*
X67526271Y-113267767D01*
X66996442Y-112949870D01*
X67391471Y-112786648D01*
X67884915Y-112294064D01*
X68152295Y-111650143D01*
X68152903Y-110952916D01*
X67886648Y-110308529D01*
X67394064Y-109815085D01*
X66750143Y-109547705D01*
X66052916Y-109547097D01*
X65408529Y-109813352D01*
X64915085Y-110305936D01*
X64647705Y-110949857D01*
X64647230Y-111494839D01*
X64202334Y-111198242D01*
X63037724Y-110033632D01*
X61626772Y-108152362D01*
X62247084Y-108152903D01*
X62891471Y-107886648D01*
X63384915Y-107394064D01*
X63652295Y-106750143D01*
X63652903Y-106052916D01*
X63386648Y-105408529D01*
X62894064Y-104915085D01*
X62250143Y-104647705D01*
X61552916Y-104647097D01*
X60908529Y-104913352D01*
X60415085Y-105405936D01*
X60360210Y-105538090D01*
X59907047Y-104480709D01*
X59480129Y-103389695D01*
X59196741Y-102161683D01*
X59005127Y-101012001D01*
X58957081Y-100435451D01*
X59305936Y-100784915D01*
X59949857Y-101052295D01*
X60647084Y-101052903D01*
X61291471Y-100786648D01*
X61784915Y-100294064D01*
X62052295Y-99650143D01*
X62052903Y-98952916D01*
X61786648Y-98308529D01*
X61294064Y-97815085D01*
X60650143Y-97547705D01*
X59952916Y-97547097D01*
X59308529Y-97813352D01*
X58978985Y-98142322D01*
X59202719Y-96352449D01*
X59443730Y-94906385D01*
X59908493Y-93279712D01*
X59913352Y-93291471D01*
X60405936Y-93784915D01*
X61049857Y-94052295D01*
X61747084Y-94052903D01*
X62391471Y-93786648D01*
X62884915Y-93294064D01*
X63152295Y-92650143D01*
X63152903Y-91952916D01*
X62886648Y-91308529D01*
X62394064Y-90815085D01*
X61750143Y-90547705D01*
X61052916Y-90547097D01*
X60864756Y-90624843D01*
X60881762Y-90582328D01*
X61819719Y-89175393D01*
X62999530Y-87759619D01*
X63947573Y-87001185D01*
X63947097Y-87547084D01*
X64213352Y-88191471D01*
X64705936Y-88684915D01*
X65088911Y-88843940D01*
X64287568Y-89645283D01*
X64122821Y-89891845D01*
X64064969Y-90182684D01*
X64064969Y-91288666D01*
X64032777Y-91320802D01*
X63890131Y-91664330D01*
X63889807Y-92036296D01*
X64031852Y-92380072D01*
X64064969Y-92413247D01*
X64064969Y-100347369D01*
X64122821Y-100638208D01*
X64287568Y-100884770D01*
X66142334Y-102739536D01*
X66066655Y-103120000D01*
X66180729Y-103693489D01*
X66505585Y-104179670D01*
X66991766Y-104504526D01*
X67565255Y-104618600D01*
X67934745Y-104618600D01*
X68508234Y-104504526D01*
X68994415Y-104179670D01*
X69319271Y-103693489D01*
X69433345Y-103120000D01*
X69319271Y-102546511D01*
X68994415Y-102060330D01*
X68679634Y-101850000D01*
X68994415Y-101639670D01*
X69020921Y-101600000D01*
X73340000Y-101600000D01*
X73340000Y-103200000D01*
X73397852Y-103490839D01*
X73562599Y-103737401D01*
X74365000Y-104539802D01*
X74365000Y-114487537D01*
X74332808Y-114519673D01*
X74190162Y-114863201D01*
X74189838Y-115235167D01*
X74331883Y-115578943D01*
X74594673Y-115842192D01*
X74938201Y-115984838D01*
X75215000Y-115985079D01*
X75215000Y-120899995D01*
X75214999Y-120900000D01*
X75262616Y-121139381D01*
X75282367Y-121238675D01*
X75327912Y-121306838D01*
X75474210Y-121525790D01*
X77274208Y-123325787D01*
X77274210Y-123325790D01*
X77482886Y-123465222D01*
X77561325Y-123517633D01*
X77900000Y-123585000D01*
X78820198Y-123585000D01*
X78548473Y-123856725D01*
X78025914Y-123856269D01*
X77535620Y-124058854D01*
X77160173Y-124433647D01*
X76956732Y-124923587D01*
X76956269Y-125454086D01*
X77158854Y-125944380D01*
X77530000Y-126316174D01*
X77530000Y-131684464D01*
X77160173Y-132053647D01*
X76956732Y-132543587D01*
X76956269Y-133074086D01*
X77158854Y-133564380D01*
X77533647Y-133939827D01*
X78023587Y-134143268D01*
X78554086Y-134143731D01*
X79044380Y-133941146D01*
X79419827Y-133566353D01*
X79623268Y-133076413D01*
X79623731Y-132545914D01*
X79421146Y-132055620D01*
X79050000Y-131683826D01*
X79050000Y-130624188D01*
X80205417Y-130624188D01*
X80267071Y-130859800D01*
X80767480Y-131035927D01*
X81297199Y-131007148D01*
X81652929Y-130859800D01*
X81714583Y-130624188D01*
X80960000Y-129869605D01*
X80205417Y-130624188D01*
X79050000Y-130624188D01*
X79050000Y-129497480D01*
X79614073Y-129497480D01*
X79642852Y-130027199D01*
X79790200Y-130382929D01*
X80025812Y-130444583D01*
X80780395Y-129690000D01*
X81139605Y-129690000D01*
X81894188Y-130444583D01*
X82129800Y-130382929D01*
X82305927Y-129882520D01*
X82277148Y-129352801D01*
X82129800Y-128997071D01*
X81894188Y-128935417D01*
X81139605Y-129690000D01*
X80780395Y-129690000D01*
X80025812Y-128935417D01*
X79790200Y-128997071D01*
X79614073Y-129497480D01*
X79050000Y-129497480D01*
X79050000Y-128494188D01*
X80205417Y-128494188D01*
X80239647Y-128625000D01*
X80205417Y-128755812D01*
X80960000Y-129510395D01*
X81714583Y-128755812D01*
X81680353Y-128625000D01*
X81714583Y-128494188D01*
X80960000Y-127739605D01*
X80205417Y-128494188D01*
X79050000Y-128494188D01*
X79050000Y-127367480D01*
X79614073Y-127367480D01*
X79642852Y-127897199D01*
X79790200Y-128252929D01*
X80025812Y-128314583D01*
X80780395Y-127560000D01*
X81139605Y-127560000D01*
X81894188Y-128314583D01*
X82129800Y-128252929D01*
X82280738Y-127824086D01*
X84706269Y-127824086D01*
X84908854Y-128314380D01*
X85219145Y-128625213D01*
X84910173Y-128933647D01*
X84706732Y-129423587D01*
X84706269Y-129954086D01*
X84908854Y-130444380D01*
X85280000Y-130816174D01*
X85280000Y-136184464D01*
X84910173Y-136553647D01*
X84706732Y-137043587D01*
X84706269Y-137574086D01*
X84908854Y-138064380D01*
X85283647Y-138439827D01*
X85773587Y-138643268D01*
X86304086Y-138643731D01*
X86794380Y-138441146D01*
X87169827Y-138066353D01*
X87373268Y-137576413D01*
X87373731Y-137045914D01*
X87171146Y-136555620D01*
X86800000Y-136183826D01*
X86800000Y-133744188D01*
X87455417Y-133744188D01*
X87517071Y-133979800D01*
X88017480Y-134155927D01*
X88547199Y-134127148D01*
X88902929Y-133979800D01*
X88964583Y-133744188D01*
X88210000Y-132989605D01*
X87455417Y-133744188D01*
X86800000Y-133744188D01*
X86800000Y-132617480D01*
X86864073Y-132617480D01*
X86892852Y-133147199D01*
X87040200Y-133502929D01*
X87275812Y-133564583D01*
X88030395Y-132810000D01*
X88389605Y-132810000D01*
X89144188Y-133564583D01*
X89379800Y-133502929D01*
X89555927Y-133002520D01*
X89527148Y-132472801D01*
X89379800Y-132117071D01*
X89144188Y-132055417D01*
X88389605Y-132810000D01*
X88030395Y-132810000D01*
X87275812Y-132055417D01*
X87040200Y-132117071D01*
X86864073Y-132617480D01*
X86800000Y-132617480D01*
X86800000Y-131875812D01*
X87455417Y-131875812D01*
X88210000Y-132630395D01*
X88964583Y-131875812D01*
X88902929Y-131640200D01*
X88402520Y-131464073D01*
X87872801Y-131492852D01*
X87517071Y-131640200D01*
X87455417Y-131875812D01*
X86800000Y-131875812D01*
X86800000Y-130815536D01*
X87169827Y-130446353D01*
X87373268Y-129956413D01*
X87373731Y-129425914D01*
X87171146Y-128935620D01*
X86860855Y-128624787D01*
X87169827Y-128316353D01*
X87373268Y-127826413D01*
X87373731Y-127295914D01*
X87171146Y-126805620D01*
X86796353Y-126430173D01*
X86306413Y-126226732D01*
X85775914Y-126226269D01*
X85285620Y-126428854D01*
X84910173Y-126803647D01*
X84706732Y-127293587D01*
X84706269Y-127824086D01*
X82280738Y-127824086D01*
X82305927Y-127752520D01*
X82277148Y-127222801D01*
X82129800Y-126867071D01*
X81894188Y-126805417D01*
X81139605Y-127560000D01*
X80780395Y-127560000D01*
X80025812Y-126805417D01*
X79790200Y-126867071D01*
X79614073Y-127367480D01*
X79050000Y-127367480D01*
X79050000Y-126625812D01*
X80205417Y-126625812D01*
X80960000Y-127380395D01*
X81714583Y-126625812D01*
X81652929Y-126390200D01*
X81152520Y-126214073D01*
X80622801Y-126242852D01*
X80267071Y-126390200D01*
X80205417Y-126625812D01*
X79050000Y-126625812D01*
X79050000Y-126315536D01*
X79241681Y-126124188D01*
X87455417Y-126124188D01*
X87517071Y-126359800D01*
X88017480Y-126535927D01*
X88547199Y-126507148D01*
X88902929Y-126359800D01*
X88964583Y-126124188D01*
X88210000Y-125369605D01*
X87455417Y-126124188D01*
X79241681Y-126124188D01*
X79419827Y-125946353D01*
X79623268Y-125456413D01*
X79623726Y-124931076D01*
X80144413Y-124410389D01*
X87250781Y-124410389D01*
X87275810Y-124435418D01*
X87040200Y-124497071D01*
X86864073Y-124997480D01*
X86892852Y-125527199D01*
X87040200Y-125882929D01*
X87275812Y-125944583D01*
X88030395Y-125190000D01*
X88016253Y-125175858D01*
X88195858Y-124996253D01*
X88210000Y-125010395D01*
X88224143Y-124996253D01*
X88403748Y-125175858D01*
X88389605Y-125190000D01*
X89144188Y-125944583D01*
X89379800Y-125882929D01*
X89555927Y-125382520D01*
X89527148Y-124852801D01*
X89379800Y-124497071D01*
X89222139Y-124455815D01*
X89251929Y-124443506D01*
X89515178Y-124180716D01*
X89657824Y-123837188D01*
X89658044Y-123585000D01*
X91280813Y-123585000D01*
X91197852Y-123709161D01*
X91140000Y-124000000D01*
X91140000Y-132185198D01*
X90360320Y-132964878D01*
X90314833Y-132964838D01*
X89971057Y-133106883D01*
X89707808Y-133369673D01*
X89565162Y-133713201D01*
X89564838Y-134085167D01*
X89706883Y-134428943D01*
X89969673Y-134692192D01*
X90313201Y-134834838D01*
X90685167Y-134835162D01*
X91028943Y-134693117D01*
X91292192Y-134430327D01*
X91373000Y-134235721D01*
X91373000Y-140491151D01*
X91194625Y-140503783D01*
X90926648Y-140614783D01*
X90889501Y-140829896D01*
X91373000Y-141313395D01*
X91373000Y-141926605D01*
X90889501Y-142410104D01*
X90926648Y-142625217D01*
X91354972Y-142768112D01*
X91805375Y-142736217D01*
X91827627Y-142727000D01*
X91905935Y-142727000D01*
X91611265Y-143021155D01*
X91415223Y-143493276D01*
X91414777Y-144004481D01*
X91609995Y-144476943D01*
X91971155Y-144838735D01*
X92443276Y-145034777D01*
X92954481Y-145035223D01*
X93426943Y-144840005D01*
X93788735Y-144478845D01*
X93984777Y-144006724D01*
X93985223Y-143495519D01*
X93790005Y-143023057D01*
X93494465Y-142727000D01*
X93706287Y-142727000D01*
X93773244Y-142754803D01*
X94224775Y-142755197D01*
X94293017Y-142727000D01*
X95706287Y-142727000D01*
X95773244Y-142754803D01*
X96224775Y-142755197D01*
X96293017Y-142727000D01*
X96505935Y-142727000D01*
X96211265Y-143021155D01*
X96015223Y-143493276D01*
X96014777Y-144004481D01*
X96209995Y-144476943D01*
X96571155Y-144838735D01*
X97043276Y-145034777D01*
X97554481Y-145035223D01*
X98026943Y-144840005D01*
X98388735Y-144478845D01*
X98584777Y-144006724D01*
X98585223Y-143495519D01*
X98390005Y-143023057D01*
X98094465Y-142727000D01*
X98206287Y-142727000D01*
X98273244Y-142754803D01*
X98724775Y-142755197D01*
X98984210Y-142648000D01*
X99590000Y-142648000D01*
X99590000Y-143623000D01*
X100723000Y-143623000D01*
X100723000Y-141681098D01*
X100977000Y-141681098D01*
X100977000Y-143623000D01*
X102110000Y-143623000D01*
X102110000Y-142648000D01*
X101965487Y-142175486D01*
X101651152Y-141794243D01*
X101214848Y-141562311D01*
X101171540Y-141556718D01*
X100977000Y-141681098D01*
X100723000Y-141681098D01*
X100528460Y-141556718D01*
X100485152Y-141562311D01*
X100048848Y-141794243D01*
X99734513Y-142175486D01*
X99590000Y-142648000D01*
X98984210Y-142648000D01*
X99142086Y-142582767D01*
X99461645Y-142263765D01*
X99634803Y-141846756D01*
X99635197Y-141395225D01*
X99462767Y-140977914D01*
X99143765Y-140658355D01*
X98726756Y-140485197D01*
X98627000Y-140485110D01*
X98627000Y-133744188D01*
X108705417Y-133744188D01*
X108767071Y-133979800D01*
X109267480Y-134155927D01*
X109797199Y-134127148D01*
X110152929Y-133979800D01*
X110214583Y-133744188D01*
X109460000Y-132989605D01*
X108705417Y-133744188D01*
X98627000Y-133744188D01*
X98627000Y-132617480D01*
X108114073Y-132617480D01*
X108142852Y-133147199D01*
X108290200Y-133502929D01*
X108525812Y-133564583D01*
X109280395Y-132810000D01*
X109639605Y-132810000D01*
X110394188Y-133564583D01*
X110629800Y-133502929D01*
X110805927Y-133002520D01*
X110777148Y-132472801D01*
X110629800Y-132117071D01*
X110394188Y-132055417D01*
X109639605Y-132810000D01*
X109280395Y-132810000D01*
X108525812Y-132055417D01*
X108290200Y-132117071D01*
X108114073Y-132617480D01*
X98627000Y-132617480D01*
X98627000Y-131875812D01*
X108705417Y-131875812D01*
X109460000Y-132630395D01*
X110214583Y-131875812D01*
X110152929Y-131640200D01*
X109652520Y-131464073D01*
X109122801Y-131492852D01*
X108767071Y-131640200D01*
X108705417Y-131875812D01*
X98627000Y-131875812D01*
X98627000Y-126027000D01*
X102573000Y-126027000D01*
X102573000Y-129400000D01*
X102581685Y-129446159D01*
X102608965Y-129488553D01*
X102650590Y-129516994D01*
X102700000Y-129527000D01*
X103400000Y-129527000D01*
X103446159Y-129518315D01*
X103488553Y-129491035D01*
X103516994Y-129449410D01*
X103527000Y-129400000D01*
X103527000Y-126124188D01*
X108705417Y-126124188D01*
X108767071Y-126359800D01*
X109267480Y-126535927D01*
X109797199Y-126507148D01*
X110152929Y-126359800D01*
X110214583Y-126124188D01*
X109460000Y-125369605D01*
X108705417Y-126124188D01*
X103527000Y-126124188D01*
X103527000Y-126027000D01*
X107000000Y-126027000D01*
X107046159Y-126018315D01*
X107088553Y-125991035D01*
X107116994Y-125949410D01*
X107127000Y-125900000D01*
X107127000Y-124997480D01*
X108114073Y-124997480D01*
X108142852Y-125527199D01*
X108290200Y-125882929D01*
X108525812Y-125944583D01*
X109280395Y-125190000D01*
X109639605Y-125190000D01*
X110394188Y-125944583D01*
X110629800Y-125882929D01*
X110805927Y-125382520D01*
X110777148Y-124852801D01*
X110629800Y-124497071D01*
X110394188Y-124435417D01*
X109639605Y-125190000D01*
X109280395Y-125190000D01*
X108525812Y-124435417D01*
X108290200Y-124497071D01*
X108114073Y-124997480D01*
X107127000Y-124997480D01*
X107127000Y-124255812D01*
X108705417Y-124255812D01*
X109460000Y-125010395D01*
X110214583Y-124255812D01*
X110152929Y-124020200D01*
X109652520Y-123844073D01*
X109122801Y-123872852D01*
X108767071Y-124020200D01*
X108705417Y-124255812D01*
X107127000Y-124255812D01*
X107127000Y-121200000D01*
X107118315Y-121153841D01*
X107091035Y-121111447D01*
X107049410Y-121083006D01*
X107000000Y-121073000D01*
X98627000Y-121073000D01*
X98627000Y-114675175D01*
X99170155Y-114900713D01*
X99826963Y-114901286D01*
X100433995Y-114650466D01*
X100787848Y-114297229D01*
X101175182Y-114656385D01*
X101657056Y-114855975D01*
X101913000Y-114736836D01*
X101913000Y-113377000D01*
X102167000Y-113377000D01*
X102167000Y-114736836D01*
X102422944Y-114855975D01*
X102904818Y-114656385D01*
X103377188Y-114218379D01*
X103645983Y-113632946D01*
X103527367Y-113377000D01*
X102167000Y-113377000D01*
X101913000Y-113377000D01*
X101893000Y-113377000D01*
X101893000Y-113123000D01*
X101913000Y-113123000D01*
X101913000Y-111763164D01*
X102167000Y-111763164D01*
X102167000Y-113123000D01*
X103527367Y-113123000D01*
X103645983Y-112867054D01*
X103377188Y-112281621D01*
X102904818Y-111843615D01*
X102422944Y-111644025D01*
X102167000Y-111763164D01*
X101913000Y-111763164D01*
X101657056Y-111644025D01*
X101175182Y-111843615D01*
X100787631Y-112202973D01*
X100436437Y-111851166D01*
X99829845Y-111599287D01*
X99173037Y-111598714D01*
X98627000Y-111824331D01*
X98627000Y-103976803D01*
X100690379Y-106040182D01*
X100690379Y-108546640D01*
X100658187Y-108578776D01*
X100515541Y-108922304D01*
X100515217Y-109294270D01*
X100657262Y-109638046D01*
X100920052Y-109901295D01*
X101263580Y-110043941D01*
X101635546Y-110044265D01*
X101979322Y-109902220D01*
X102242571Y-109639430D01*
X102385217Y-109295902D01*
X102385541Y-108923936D01*
X102243496Y-108580160D01*
X102210379Y-108546985D01*
X102210379Y-105985180D01*
X102564838Y-105985180D01*
X102706883Y-106328956D01*
X102740000Y-106362131D01*
X102740000Y-110137537D01*
X102707808Y-110169673D01*
X102565162Y-110513201D01*
X102564838Y-110885167D01*
X102706883Y-111228943D01*
X102969673Y-111492192D01*
X103313201Y-111634838D01*
X103685167Y-111635162D01*
X104028943Y-111493117D01*
X104080415Y-111441734D01*
X104326606Y-111543962D01*
X104698572Y-111544286D01*
X105042348Y-111402241D01*
X105305597Y-111139451D01*
X105448243Y-110795923D01*
X105448567Y-110423957D01*
X105306522Y-110080181D01*
X105260000Y-110033578D01*
X105260000Y-109935167D01*
X113064838Y-109935167D01*
X113206883Y-110278943D01*
X113469673Y-110542192D01*
X113813201Y-110684838D01*
X114185167Y-110685162D01*
X114528943Y-110543117D01*
X114792192Y-110280327D01*
X114934838Y-109936799D01*
X114934879Y-109889923D01*
X115083236Y-109741566D01*
X115247983Y-109495005D01*
X115305835Y-109204165D01*
X115305835Y-105387366D01*
X115338027Y-105355230D01*
X115480673Y-105011702D01*
X115480997Y-104639736D01*
X115338952Y-104295960D01*
X115076162Y-104032711D01*
X114732634Y-103890065D01*
X114360668Y-103889741D01*
X114016892Y-104031786D01*
X113753643Y-104294576D01*
X113610997Y-104638104D01*
X113610673Y-105010070D01*
X113752718Y-105353846D01*
X113785835Y-105387021D01*
X113785835Y-108826820D01*
X113471057Y-108956883D01*
X113207808Y-109219673D01*
X113065162Y-109563201D01*
X113064838Y-109935167D01*
X105260000Y-109935167D01*
X105260000Y-106262463D01*
X105292192Y-106230327D01*
X105434838Y-105886799D01*
X105435162Y-105514833D01*
X105293117Y-105171057D01*
X105030327Y-104907808D01*
X104686799Y-104765162D01*
X104314833Y-104764838D01*
X103971057Y-104906883D01*
X103917058Y-104960788D01*
X103686799Y-104865175D01*
X103314833Y-104864851D01*
X102971057Y-105006896D01*
X102707808Y-105269686D01*
X102565162Y-105613214D01*
X102564838Y-105985180D01*
X102210379Y-105985180D01*
X102210379Y-105725379D01*
X102152527Y-105434540D01*
X102043300Y-105271070D01*
X101987780Y-105187977D01*
X101309781Y-104509978D01*
X102916976Y-104509978D01*
X102949112Y-104542170D01*
X103292640Y-104684816D01*
X103664606Y-104685140D01*
X104008382Y-104543095D01*
X104271631Y-104280305D01*
X104414277Y-103936777D01*
X104414601Y-103564811D01*
X104272556Y-103221035D01*
X104009766Y-102957786D01*
X103666238Y-102815140D01*
X103294272Y-102814816D01*
X102950496Y-102956861D01*
X102917321Y-102989978D01*
X100740516Y-102989978D01*
X100427068Y-102676530D01*
X100628943Y-102593117D01*
X100892192Y-102330327D01*
X101034838Y-101986799D01*
X101035162Y-101614833D01*
X100893117Y-101271057D01*
X100630327Y-101007808D01*
X100286799Y-100865162D01*
X100239923Y-100865121D01*
X98928391Y-99553589D01*
X98681829Y-99388842D01*
X98627000Y-99377936D01*
X98627000Y-99360000D01*
X98864601Y-99122813D01*
X99007247Y-98779285D01*
X99007288Y-98732409D01*
X99087422Y-98652275D01*
X99252169Y-98405714D01*
X99310021Y-98114874D01*
X99310021Y-95615786D01*
X99252169Y-95324947D01*
X99207790Y-95258529D01*
X99087423Y-95078385D01*
X98627000Y-94617962D01*
X98627000Y-94475233D01*
X100316467Y-96164700D01*
X100316427Y-96210187D01*
X100458472Y-96553963D01*
X100721262Y-96817212D01*
X101064790Y-96959858D01*
X101436756Y-96960182D01*
X101780532Y-96818137D01*
X102043781Y-96555347D01*
X102046711Y-96548291D01*
X103815159Y-98316738D01*
X103814838Y-98685167D01*
X103956883Y-99028943D01*
X104219673Y-99292192D01*
X104563201Y-99434838D01*
X104935167Y-99435162D01*
X105278943Y-99293117D01*
X105542192Y-99030327D01*
X105684838Y-98686799D01*
X105685162Y-98314833D01*
X105635000Y-98193431D01*
X105635000Y-98000005D01*
X105635001Y-98000000D01*
X105571541Y-97680974D01*
X105567633Y-97661325D01*
X105375790Y-97374210D01*
X105375787Y-97374208D01*
X100592744Y-92591164D01*
X100543117Y-92471057D01*
X100280327Y-92207808D01*
X99936799Y-92065162D01*
X99564833Y-92064838D01*
X99221057Y-92206883D01*
X98957808Y-92469673D01*
X98903010Y-92601639D01*
X98091272Y-91789901D01*
X98091272Y-88431158D01*
X98142192Y-88380327D01*
X98284838Y-88036799D01*
X98285162Y-87664833D01*
X98143117Y-87321057D01*
X97880327Y-87057808D01*
X97536799Y-86915162D01*
X97307234Y-86914962D01*
X97492192Y-86730327D01*
X97634838Y-86386799D01*
X97634883Y-86334944D01*
X97885167Y-86335162D01*
X98228943Y-86193117D01*
X98492192Y-85930327D01*
X98634838Y-85586799D01*
X98634928Y-85483620D01*
X98853963Y-85393117D01*
X99117212Y-85130327D01*
X99259858Y-84786799D01*
X99259925Y-84710000D01*
X102750000Y-84710000D01*
X103040839Y-84652148D01*
X103287401Y-84487401D01*
X105037401Y-82737401D01*
X105202148Y-82490839D01*
X105260000Y-82200000D01*
X105260000Y-82021642D01*
X114588184Y-82021642D01*
X114611986Y-82678019D01*
X114817378Y-83173880D01*
X115085893Y-83274502D01*
X116070395Y-82290000D01*
X115085893Y-81305498D01*
X114817378Y-81406120D01*
X114588184Y-82021642D01*
X105260000Y-82021642D01*
X105260000Y-81314802D01*
X105914802Y-80660000D01*
X111937537Y-80660000D01*
X111969673Y-80692192D01*
X112313201Y-80834838D01*
X112685167Y-80835162D01*
X113028943Y-80693117D01*
X113292192Y-80430327D01*
X113434838Y-80086799D01*
X113435162Y-79714833D01*
X113293117Y-79371057D01*
X113030327Y-79107808D01*
X112686799Y-78965162D01*
X112314833Y-78964838D01*
X111971057Y-79106883D01*
X111937882Y-79140000D01*
X105600000Y-79140000D01*
X105309161Y-79197852D01*
X105062599Y-79362599D01*
X103962599Y-80462599D01*
X103800175Y-80705685D01*
X103553805Y-80625800D01*
X102679605Y-81500000D01*
X102693748Y-81514143D01*
X102514143Y-81693748D01*
X102500000Y-81679605D01*
X101625800Y-82553805D01*
X101707741Y-82806516D01*
X102268030Y-83010248D01*
X102630906Y-82994292D01*
X102435198Y-83190000D01*
X99408282Y-83190000D01*
X99430554Y-83078032D01*
X99960000Y-83183345D01*
X100533489Y-83069271D01*
X101019670Y-82744415D01*
X101298943Y-82326454D01*
X101446195Y-82374200D01*
X102320395Y-81500000D01*
X101446195Y-80625800D01*
X101298943Y-80673546D01*
X101042025Y-80289041D01*
X101273690Y-80385000D01*
X101645642Y-80385000D01*
X101625800Y-80446195D01*
X102500000Y-81320395D01*
X103374200Y-80446195D01*
X103292259Y-80193484D01*
X103117930Y-80130095D01*
X103138327Y-80109698D01*
X103235000Y-79876309D01*
X103235000Y-78535750D01*
X103076250Y-78377000D01*
X102127000Y-78377000D01*
X102127000Y-78397000D01*
X101873000Y-78397000D01*
X101873000Y-78377000D01*
X101853000Y-78377000D01*
X101853000Y-78123000D01*
X101873000Y-78123000D01*
X101873000Y-78103000D01*
X102127000Y-78103000D01*
X102127000Y-78123000D01*
X103076250Y-78123000D01*
X103235000Y-77964250D01*
X103235000Y-76623691D01*
X103138327Y-76390302D01*
X102959699Y-76211673D01*
X102726310Y-76115000D01*
X102285750Y-76115000D01*
X102127002Y-76273748D01*
X102127002Y-76115000D01*
X102123128Y-76115000D01*
X102134838Y-76086799D01*
X102135162Y-75714833D01*
X101993117Y-75371057D01*
X101960000Y-75337882D01*
X101960000Y-71485167D01*
X105064838Y-71485167D01*
X105206883Y-71828943D01*
X105469673Y-72092192D01*
X105813201Y-72234838D01*
X106185167Y-72235162D01*
X106528943Y-72093117D01*
X106562118Y-72060000D01*
X110700000Y-72060000D01*
X110990839Y-72002148D01*
X111237401Y-71837401D01*
X113439680Y-69635122D01*
X113485167Y-69635162D01*
X113828943Y-69493117D01*
X114092192Y-69230327D01*
X114234838Y-68886799D01*
X114235162Y-68514833D01*
X114093117Y-68171057D01*
X113830327Y-67907808D01*
X113486799Y-67765162D01*
X113114833Y-67764838D01*
X112771057Y-67906883D01*
X112507808Y-68169673D01*
X112365162Y-68513201D01*
X112365121Y-68560077D01*
X110385198Y-70540000D01*
X106562463Y-70540000D01*
X106530327Y-70507808D01*
X106186799Y-70365162D01*
X105814833Y-70364838D01*
X105471057Y-70506883D01*
X105207808Y-70769673D01*
X105065162Y-71113201D01*
X105064838Y-71485167D01*
X101960000Y-71485167D01*
X101960000Y-71474980D01*
X101925194Y-71300000D01*
X101902148Y-71184140D01*
X101737401Y-70937579D01*
X101335122Y-70535300D01*
X101335162Y-70489813D01*
X101193117Y-70146037D01*
X100930327Y-69882788D01*
X100586799Y-69740142D01*
X100214833Y-69739818D01*
X99949772Y-69849339D01*
X99686799Y-69740142D01*
X99314833Y-69739818D01*
X98999649Y-69870049D01*
X98686799Y-69740142D01*
X98314833Y-69739818D01*
X98099896Y-69828628D01*
X97886799Y-69740142D01*
X97514833Y-69739818D01*
X97171057Y-69881863D01*
X96907808Y-70144653D01*
X96765162Y-70488181D01*
X96764838Y-70860147D01*
X96906883Y-71203923D01*
X96940000Y-71237098D01*
X96940000Y-73237537D01*
X96907808Y-73269673D01*
X96765162Y-73613201D01*
X96765121Y-73660076D01*
X96462599Y-73962599D01*
X96297852Y-74209161D01*
X96286747Y-74264988D01*
X96114833Y-74264838D01*
X95771057Y-74406883D01*
X95737882Y-74440000D01*
X95700000Y-74440000D01*
X95409161Y-74497852D01*
X95402732Y-74502148D01*
X95162598Y-74662599D01*
X94462599Y-75362599D01*
X94297852Y-75609161D01*
X94240000Y-75900000D01*
X94240000Y-76102560D01*
X93400000Y-76102560D01*
X93164683Y-76146838D01*
X92998523Y-76253759D01*
X92851890Y-76153569D01*
X92600000Y-76102560D01*
X91400000Y-76102560D01*
X91164683Y-76146838D01*
X90998523Y-76253759D01*
X90851890Y-76153569D01*
X90600000Y-76102560D01*
X89400000Y-76102560D01*
X89164683Y-76146838D01*
X88998523Y-76253759D01*
X88851890Y-76153569D01*
X88600000Y-76102560D01*
X87400000Y-76102560D01*
X87164683Y-76146838D01*
X86948559Y-76285910D01*
X86803569Y-76498110D01*
X86752560Y-76750000D01*
X86752560Y-77565002D01*
X86564833Y-77564838D01*
X86221057Y-77706883D01*
X85957808Y-77969673D01*
X85815162Y-78313201D01*
X85814838Y-78685167D01*
X85956883Y-79028943D01*
X86219673Y-79292192D01*
X86563201Y-79434838D01*
X86752560Y-79435003D01*
X86752560Y-79750000D01*
X86782957Y-79911545D01*
X86686511Y-79930729D01*
X86200330Y-80255585D01*
X85875474Y-80741766D01*
X85761400Y-81315255D01*
X85761400Y-81684745D01*
X85875474Y-82258234D01*
X86200330Y-82744415D01*
X86686511Y-83069271D01*
X87260000Y-83183345D01*
X87833489Y-83069271D01*
X88319670Y-82744415D01*
X88530000Y-82429634D01*
X88740330Y-82744415D01*
X89226511Y-83069271D01*
X89800000Y-83183345D01*
X90314929Y-83080919D01*
X90314838Y-83185167D01*
X90456883Y-83528943D01*
X90719673Y-83792192D01*
X91063201Y-83934838D01*
X91096917Y-83934867D01*
X90940856Y-84372302D01*
X90968638Y-84927368D01*
X91127603Y-85311143D01*
X91369787Y-85380608D01*
X92170395Y-84580000D01*
X92529605Y-84580000D01*
X93330213Y-85380608D01*
X93572397Y-85311143D01*
X93759144Y-84787698D01*
X93731362Y-84232632D01*
X93572397Y-83848857D01*
X93330213Y-83779392D01*
X92529605Y-84580000D01*
X92170395Y-84580000D01*
X92156253Y-84565858D01*
X92335858Y-84386253D01*
X92350000Y-84400395D01*
X93150608Y-83599787D01*
X93081143Y-83357603D01*
X92557698Y-83170856D01*
X92350700Y-83181217D01*
X92913489Y-83069271D01*
X93399670Y-82744415D01*
X93610000Y-82429634D01*
X93820330Y-82744415D01*
X94306511Y-83069271D01*
X94880000Y-83183345D01*
X95453489Y-83069271D01*
X95939670Y-82744415D01*
X96150000Y-82429634D01*
X96360330Y-82744415D01*
X96765161Y-83014914D01*
X96765008Y-83190000D01*
X95424996Y-83190000D01*
X95134157Y-83247852D01*
X94887595Y-83412599D01*
X94612566Y-83687628D01*
X94447819Y-83934190D01*
X94389967Y-84225029D01*
X94389967Y-91760809D01*
X93063510Y-90434352D01*
X92816948Y-90269605D01*
X92526109Y-90211753D01*
X92139827Y-90211753D01*
X93923764Y-88427815D01*
X93923767Y-88427813D01*
X94115610Y-88140698D01*
X94125528Y-88090839D01*
X94182978Y-87802023D01*
X94182977Y-87802018D01*
X94182977Y-87077857D01*
X94232815Y-86957834D01*
X94233139Y-86585868D01*
X94091094Y-86242092D01*
X93828304Y-85978843D01*
X93484776Y-85836197D01*
X93112810Y-85835873D01*
X92769034Y-85977918D01*
X92505785Y-86240708D01*
X92363139Y-86584236D01*
X92362815Y-86956202D01*
X92412977Y-87077604D01*
X92412977Y-87435444D01*
X91960313Y-87888108D01*
X91780327Y-87707808D01*
X91436799Y-87565162D01*
X91064833Y-87564838D01*
X90721057Y-87706883D01*
X90687882Y-87740000D01*
X89987441Y-87740000D01*
X89686799Y-87615162D01*
X89314833Y-87614838D01*
X88971057Y-87756883D01*
X88707808Y-88019673D01*
X88565162Y-88363201D01*
X88564838Y-88735167D01*
X88706883Y-89078943D01*
X88727710Y-89099806D01*
X88707808Y-89119673D01*
X88565162Y-89463201D01*
X88564838Y-89835167D01*
X88706883Y-90178943D01*
X88739636Y-90211753D01*
X87559375Y-90211753D01*
X84610221Y-87262599D01*
X84363659Y-87097852D01*
X84072820Y-87040000D01*
X82662463Y-87040000D01*
X82630327Y-87007808D01*
X82286799Y-86865162D01*
X81914833Y-86864838D01*
X81571057Y-87006883D01*
X81307808Y-87269673D01*
X81165162Y-87613201D01*
X81164838Y-87985167D01*
X81253648Y-88200104D01*
X81165162Y-88413201D01*
X81164838Y-88785167D01*
X81253648Y-89000104D01*
X81165162Y-89213201D01*
X81164838Y-89585167D01*
X81253648Y-89800104D01*
X81165162Y-90013201D01*
X81164838Y-90385167D01*
X81253651Y-90600111D01*
X81165162Y-90813214D01*
X81164838Y-91185180D01*
X81306883Y-91528956D01*
X81569673Y-91792205D01*
X81913201Y-91934851D01*
X82285167Y-91935175D01*
X82628943Y-91793130D01*
X82662118Y-91760013D01*
X84385211Y-91760013D01*
X90764878Y-98139680D01*
X90764838Y-98185167D01*
X90906883Y-98528943D01*
X91169673Y-98792192D01*
X91373000Y-98876621D01*
X91373000Y-102350587D01*
X91113222Y-102350361D01*
X90769446Y-102492406D01*
X90701967Y-102559768D01*
X90659508Y-102568213D01*
X90734838Y-102386799D01*
X90735162Y-102014833D01*
X90593117Y-101671057D01*
X90330327Y-101407808D01*
X89986799Y-101265162D01*
X89614833Y-101264838D01*
X89271057Y-101406883D01*
X89237882Y-101440000D01*
X88827000Y-101440000D01*
X88827000Y-98400000D01*
X88818315Y-98353841D01*
X88791035Y-98311447D01*
X88749410Y-98283006D01*
X88700000Y-98273000D01*
X82100000Y-98273000D01*
X82053841Y-98281685D01*
X82011447Y-98308965D01*
X81983006Y-98350590D01*
X81973000Y-98400000D01*
X81973000Y-105148198D01*
X80435122Y-103610320D01*
X80435162Y-103564833D01*
X80293117Y-103221057D01*
X80030327Y-102957808D01*
X79686799Y-102815162D01*
X79314833Y-102814838D01*
X78971057Y-102956883D01*
X78707808Y-103219673D01*
X78565162Y-103563201D01*
X78564838Y-103935167D01*
X78706883Y-104278943D01*
X78969673Y-104542192D01*
X79313201Y-104684838D01*
X79360077Y-104684879D01*
X81665187Y-106989989D01*
X77587414Y-106989989D01*
X77286799Y-106865162D01*
X76985000Y-106864899D01*
X76985000Y-104000005D01*
X76985001Y-104000000D01*
X76924550Y-103696098D01*
X76917633Y-103661325D01*
X76725790Y-103374210D01*
X76725787Y-103374208D01*
X75842744Y-102491164D01*
X75793117Y-102371057D01*
X75530327Y-102107808D01*
X75186799Y-101965162D01*
X74860000Y-101964877D01*
X74860000Y-101914802D01*
X74914802Y-101860000D01*
X77000000Y-101860000D01*
X77290839Y-101802148D01*
X77537401Y-101637401D01*
X78437401Y-100737401D01*
X78602148Y-100490840D01*
X78660000Y-100200000D01*
X78660000Y-98562463D01*
X78692192Y-98530327D01*
X78834838Y-98186799D01*
X78835162Y-97814833D01*
X78693117Y-97471057D01*
X78430327Y-97207808D01*
X78086799Y-97065162D01*
X77714833Y-97064838D01*
X77371057Y-97206883D01*
X77107808Y-97469673D01*
X76965162Y-97813201D01*
X76964838Y-98185167D01*
X77106883Y-98528943D01*
X77140000Y-98562118D01*
X77140000Y-99885198D01*
X76685198Y-100340000D01*
X74600000Y-100340000D01*
X74309161Y-100397852D01*
X74062599Y-100562599D01*
X73562599Y-101062599D01*
X73397852Y-101309161D01*
X73340000Y-101600000D01*
X69020921Y-101600000D01*
X69319271Y-101153489D01*
X69433345Y-100580000D01*
X69319271Y-100006511D01*
X68994415Y-99520330D01*
X68684931Y-99313539D01*
X69100732Y-98942036D01*
X69354709Y-98414791D01*
X69357358Y-98399026D01*
X69245703Y-98185167D01*
X74264838Y-98185167D01*
X74406883Y-98528943D01*
X74669673Y-98792192D01*
X75013201Y-98934838D01*
X75385167Y-98935162D01*
X75728943Y-98793117D01*
X75992192Y-98530327D01*
X76042566Y-98409014D01*
X76625787Y-97825792D01*
X76625790Y-97825790D01*
X76817633Y-97538675D01*
X76818807Y-97532773D01*
X80275787Y-94075792D01*
X80275790Y-94075790D01*
X80467633Y-93788675D01*
X80467634Y-93788674D01*
X80535001Y-93450000D01*
X80535000Y-93449995D01*
X80535000Y-85670478D01*
X80645457Y-85560213D01*
X91549392Y-85560213D01*
X91618857Y-85802397D01*
X92142302Y-85989144D01*
X92697368Y-85961362D01*
X93081143Y-85802397D01*
X93150608Y-85560213D01*
X92350000Y-84759605D01*
X91549392Y-85560213D01*
X80645457Y-85560213D01*
X80833629Y-85372370D01*
X81046757Y-84859100D01*
X81047242Y-84303339D01*
X80835010Y-83789697D01*
X80442370Y-83396371D01*
X79929100Y-83183243D01*
X79373339Y-83182758D01*
X78859697Y-83394990D01*
X78466371Y-83787630D01*
X78253243Y-84300900D01*
X78252758Y-84856661D01*
X78464990Y-85370303D01*
X78765000Y-85670837D01*
X78765000Y-93083421D01*
X75374210Y-96474210D01*
X75182367Y-96761325D01*
X75182367Y-96761326D01*
X75181193Y-96767228D01*
X74791165Y-97157256D01*
X74671057Y-97206883D01*
X74407808Y-97469673D01*
X74265162Y-97813201D01*
X74264838Y-98185167D01*
X69245703Y-98185167D01*
X69236217Y-98167000D01*
X67877000Y-98167000D01*
X67877000Y-98187000D01*
X67623000Y-98187000D01*
X67623000Y-98167000D01*
X67603000Y-98167000D01*
X67603000Y-97913000D01*
X67623000Y-97913000D01*
X67623000Y-97893000D01*
X67877000Y-97893000D01*
X67877000Y-97913000D01*
X69236217Y-97913000D01*
X69357358Y-97680974D01*
X69354709Y-97665209D01*
X69100732Y-97137964D01*
X68684931Y-96766461D01*
X68994415Y-96559670D01*
X69319271Y-96073489D01*
X69433345Y-95500000D01*
X69319271Y-94926511D01*
X68994415Y-94440330D01*
X68760537Y-94284058D01*
X69148834Y-93896437D01*
X69400713Y-93289845D01*
X69401286Y-92633037D01*
X69150466Y-92026005D01*
X68686437Y-91561166D01*
X68079845Y-91309287D01*
X67423037Y-91308714D01*
X67168999Y-91413680D01*
X67168999Y-90660888D01*
X68119785Y-89710102D01*
X68165272Y-89710142D01*
X68509048Y-89568097D01*
X68772297Y-89305307D01*
X68914943Y-88961779D01*
X68915267Y-88589813D01*
X68815179Y-88347580D01*
X68892201Y-88162091D01*
X68892525Y-87790125D01*
X68750480Y-87446349D01*
X68739476Y-87435326D01*
X71787401Y-84387401D01*
X71952148Y-84140839D01*
X72010000Y-83850000D01*
X72010000Y-82812463D01*
X72042192Y-82780327D01*
X72184838Y-82436799D01*
X72185162Y-82064833D01*
X72043117Y-81721057D01*
X71780327Y-81457808D01*
X71436799Y-81315162D01*
X71064833Y-81314838D01*
X70721057Y-81456883D01*
X70460000Y-81717485D01*
X70460000Y-75626661D01*
X83602758Y-75626661D01*
X83814990Y-76140303D01*
X84207630Y-76533629D01*
X84720900Y-76746757D01*
X85276661Y-76747242D01*
X85790303Y-76535010D01*
X86183629Y-76142370D01*
X86396757Y-75629100D01*
X86397242Y-75073339D01*
X86185010Y-74559697D01*
X85792370Y-74166371D01*
X85279100Y-73953243D01*
X84723339Y-73952758D01*
X84209697Y-74164990D01*
X83816371Y-74557630D01*
X83603243Y-75070900D01*
X83602758Y-75626661D01*
X70460000Y-75626661D01*
X70460000Y-73777272D01*
X70482469Y-73485167D01*
X78564838Y-73485167D01*
X78706883Y-73828943D01*
X78969673Y-74092192D01*
X79313201Y-74234838D01*
X79685167Y-74235162D01*
X80028943Y-74093117D01*
X80292192Y-73830327D01*
X80434838Y-73486799D01*
X80434879Y-73439923D01*
X81814802Y-72060000D01*
X85937537Y-72060000D01*
X85969673Y-72092192D01*
X86313201Y-72234838D01*
X86685167Y-72235162D01*
X87028943Y-72093117D01*
X87292192Y-71830327D01*
X87434838Y-71486799D01*
X87435162Y-71114833D01*
X87293117Y-70771057D01*
X87030327Y-70507808D01*
X86686799Y-70365162D01*
X86314833Y-70364838D01*
X85971057Y-70506883D01*
X85937882Y-70540000D01*
X81500000Y-70540000D01*
X81257414Y-70588254D01*
X81209160Y-70597852D01*
X80962599Y-70762599D01*
X79360320Y-72364878D01*
X79314833Y-72364838D01*
X78971057Y-72506883D01*
X78707808Y-72769673D01*
X78565162Y-73113201D01*
X78564838Y-73485167D01*
X70482469Y-73485167D01*
X70705100Y-70590974D01*
X70898220Y-69528813D01*
X71188901Y-67978514D01*
X71565834Y-66847714D01*
X71906522Y-66020332D01*
X71907227Y-66016746D01*
X71909218Y-66013687D01*
X72900917Y-63534441D01*
X73619404Y-62021834D01*
X75264543Y-62021834D01*
X75664853Y-62990658D01*
X76405443Y-63732542D01*
X77373567Y-64134542D01*
X78421834Y-64135457D01*
X79390658Y-63735147D01*
X79996648Y-63130213D01*
X84199392Y-63130213D01*
X84268857Y-63372397D01*
X84792302Y-63559144D01*
X85347368Y-63531362D01*
X85731143Y-63372397D01*
X85800608Y-63130213D01*
X85000000Y-62329605D01*
X84199392Y-63130213D01*
X79996648Y-63130213D01*
X80132542Y-62994557D01*
X80534542Y-62026433D01*
X80534615Y-61942302D01*
X83590856Y-61942302D01*
X83618638Y-62497368D01*
X83777603Y-62881143D01*
X84019787Y-62950608D01*
X84820395Y-62150000D01*
X85179605Y-62150000D01*
X85980213Y-62950608D01*
X86222397Y-62881143D01*
X86409144Y-62357698D01*
X86381362Y-61802632D01*
X86222397Y-61418857D01*
X85980213Y-61349392D01*
X85179605Y-62150000D01*
X84820395Y-62150000D01*
X84019787Y-61349392D01*
X83777603Y-61418857D01*
X83590856Y-61942302D01*
X80534615Y-61942302D01*
X80535289Y-61169787D01*
X84199392Y-61169787D01*
X85000000Y-61970395D01*
X85800608Y-61169787D01*
X85733480Y-60935750D01*
X86765000Y-60935750D01*
X86765000Y-62276309D01*
X86861673Y-62509698D01*
X87040301Y-62688327D01*
X87273690Y-62785000D01*
X87714250Y-62785000D01*
X87873000Y-62626250D01*
X87873000Y-60777000D01*
X86923750Y-60777000D01*
X86765000Y-60935750D01*
X85733480Y-60935750D01*
X85731143Y-60927603D01*
X85207698Y-60740856D01*
X84652632Y-60768638D01*
X84268857Y-60927603D01*
X84199392Y-61169787D01*
X80535289Y-61169787D01*
X80535457Y-60978166D01*
X80135147Y-60009342D01*
X79394557Y-59267458D01*
X78426433Y-58865458D01*
X77378166Y-58864543D01*
X76409342Y-59264853D01*
X75667458Y-60005443D01*
X75265458Y-60973567D01*
X75264543Y-62021834D01*
X73619404Y-62021834D01*
X73832808Y-61572564D01*
X74413231Y-60508456D01*
X74877525Y-59765585D01*
X75526282Y-58977810D01*
X76997151Y-57506941D01*
X78268789Y-56284213D01*
X79231429Y-55514101D01*
X80506567Y-54582269D01*
X81073487Y-54204323D01*
X82102259Y-53616452D01*
X82120948Y-53600209D01*
X82143837Y-53590756D01*
X83623487Y-52604323D01*
X85352258Y-51616453D01*
X85367808Y-51602938D01*
X85386942Y-51595295D01*
X86376242Y-50952250D01*
X86865292Y-50658820D01*
X86889835Y-50636555D01*
X86919868Y-50622548D01*
X87648625Y-50088125D01*
X87973000Y-49885391D01*
X87973000Y-50490000D01*
X87872998Y-50490000D01*
X87872998Y-50648748D01*
X87714250Y-50490000D01*
X87373691Y-50490000D01*
X87140302Y-50586673D01*
X86961673Y-50765301D01*
X86865000Y-50998690D01*
X86865000Y-51464250D01*
X87023750Y-51623000D01*
X87873000Y-51623000D01*
X87873000Y-51603000D01*
X87973000Y-51603000D01*
X87973000Y-51897000D01*
X87873000Y-51897000D01*
X87873000Y-51877000D01*
X87023750Y-51877000D01*
X86865000Y-52035750D01*
X86865000Y-52501310D01*
X86961673Y-52734699D01*
X87140302Y-52913327D01*
X87373691Y-53010000D01*
X87714250Y-53010000D01*
X87872998Y-52851252D01*
X87872998Y-53010000D01*
X87973000Y-53010000D01*
X87973000Y-56490000D01*
X87872998Y-56490000D01*
X87872998Y-56648748D01*
X87714250Y-56490000D01*
X87373691Y-56490000D01*
X87140302Y-56586673D01*
X86961673Y-56765301D01*
X86865000Y-56998690D01*
X86865000Y-57464250D01*
X87023750Y-57623000D01*
X87873000Y-57623000D01*
X87873000Y-57603000D01*
X87973000Y-57603000D01*
X87973000Y-57897000D01*
X87873000Y-57897000D01*
X87873000Y-57877000D01*
X87023750Y-57877000D01*
X86865000Y-58035750D01*
X86865000Y-58501310D01*
X86948669Y-58703305D01*
X86861673Y-58790302D01*
X86765000Y-59023691D01*
X86765000Y-60364250D01*
X86923750Y-60523000D01*
X87873000Y-60523000D01*
X87873000Y-60503000D01*
X88127000Y-60503000D01*
X88127000Y-60523000D01*
X88147000Y-60523000D01*
X88147000Y-60777000D01*
X88127000Y-60777000D01*
X88127000Y-62626250D01*
X88285750Y-62785000D01*
X88726310Y-62785000D01*
X88959699Y-62688327D01*
X89001660Y-62646366D01*
X89148110Y-62746431D01*
X89400000Y-62797440D01*
X90600000Y-62797440D01*
X90835317Y-62753162D01*
X90999492Y-62647518D01*
X91040301Y-62688327D01*
X91273690Y-62785000D01*
X91714250Y-62785000D01*
X91873000Y-62626250D01*
X91873000Y-60777000D01*
X91853000Y-60777000D01*
X91853000Y-60523000D01*
X91873000Y-60523000D01*
X91873000Y-60503000D01*
X92127000Y-60503000D01*
X92127000Y-60523000D01*
X92147000Y-60523000D01*
X92147000Y-60777000D01*
X92127000Y-60777000D01*
X92127000Y-62626250D01*
X92285750Y-62785000D01*
X92726310Y-62785000D01*
X92959699Y-62688327D01*
X93001660Y-62646366D01*
X93148110Y-62746431D01*
X93400000Y-62797440D01*
X94172638Y-62797440D01*
X94912599Y-63537401D01*
X95159161Y-63702148D01*
X95450000Y-63760000D01*
X96185198Y-63760000D01*
X96564878Y-64139680D01*
X96564838Y-64185167D01*
X96706883Y-64528943D01*
X96969673Y-64792192D01*
X97313201Y-64934838D01*
X97685167Y-64935162D01*
X98000351Y-64804931D01*
X98313201Y-64934838D01*
X98685167Y-64935162D01*
X99000351Y-64804931D01*
X99313201Y-64934838D01*
X99685167Y-64935162D01*
X99950228Y-64825641D01*
X100213201Y-64934838D01*
X100585167Y-64935162D01*
X100928943Y-64793117D01*
X101192192Y-64530327D01*
X101334838Y-64186799D01*
X101335162Y-63814833D01*
X101193117Y-63471057D01*
X100930327Y-63207808D01*
X100760000Y-63137082D01*
X100760000Y-62767334D01*
X100835317Y-62753162D01*
X101001477Y-62646241D01*
X101148110Y-62746431D01*
X101400000Y-62797440D01*
X102600000Y-62797440D01*
X102835317Y-62753162D01*
X103051441Y-62614090D01*
X103196431Y-62401890D01*
X103247440Y-62150000D01*
X103247440Y-62021834D01*
X108864543Y-62021834D01*
X109264853Y-62990658D01*
X110005443Y-63732542D01*
X110973567Y-64134542D01*
X112021834Y-64135457D01*
X112990658Y-63735147D01*
X113732542Y-62994557D01*
X114134542Y-62026433D01*
X114135457Y-60978166D01*
X113735147Y-60009342D01*
X112994557Y-59267458D01*
X112026433Y-58865458D01*
X110978166Y-58864543D01*
X110009342Y-59264853D01*
X109267458Y-60005443D01*
X108865458Y-60973567D01*
X108864543Y-62021834D01*
X103247440Y-62021834D01*
X103247440Y-59150000D01*
X103203162Y-58914683D01*
X103064090Y-58698559D01*
X102851890Y-58553569D01*
X102600000Y-58502560D01*
X101400000Y-58502560D01*
X101164683Y-58546838D01*
X100998523Y-58653759D01*
X100851890Y-58553569D01*
X100600000Y-58502560D01*
X99400000Y-58502560D01*
X99164683Y-58546838D01*
X98998523Y-58653759D01*
X98851890Y-58553569D01*
X98600000Y-58502560D01*
X97400000Y-58502560D01*
X97164683Y-58546838D01*
X96998523Y-58653759D01*
X96851890Y-58553569D01*
X96600000Y-58502560D01*
X95400000Y-58502560D01*
X95164683Y-58546838D01*
X94998523Y-58653759D01*
X94851890Y-58553569D01*
X94600000Y-58502560D01*
X93400000Y-58502560D01*
X93164683Y-58546838D01*
X93000508Y-58652482D01*
X92959699Y-58611673D01*
X92726310Y-58515000D01*
X92285750Y-58515000D01*
X92127002Y-58673748D01*
X92127002Y-58515000D01*
X92127000Y-58515000D01*
X92127000Y-56092035D01*
X92685357Y-56071361D01*
X93173938Y-55868985D01*
X93272537Y-55602183D01*
X92397355Y-54727000D01*
X92756565Y-54727000D01*
X93452143Y-55422577D01*
X93718945Y-55323978D01*
X93940714Y-54727000D01*
X96074665Y-54727000D01*
X96078679Y-54835397D01*
X96281055Y-55323978D01*
X96547857Y-55422577D01*
X97243435Y-54727000D01*
X97602645Y-54727000D01*
X96727463Y-55602183D01*
X96826062Y-55868985D01*
X97435602Y-56095421D01*
X98085397Y-56071361D01*
X98573978Y-55868985D01*
X98672577Y-55602183D01*
X97772050Y-54701655D01*
X97788553Y-54691035D01*
X97816994Y-54649410D01*
X97827000Y-54600000D01*
X97827000Y-54450020D01*
X97879625Y-54450020D01*
X98852183Y-55422577D01*
X99118985Y-55323978D01*
X99345421Y-54714438D01*
X99321361Y-54064643D01*
X99118985Y-53576062D01*
X98852183Y-53477463D01*
X97879625Y-54450020D01*
X97827000Y-54450020D01*
X97827000Y-54143435D01*
X98672577Y-53297857D01*
X98573978Y-53031055D01*
X97964438Y-52804619D01*
X97827000Y-52809708D01*
X97827000Y-50680889D01*
X98085397Y-50671321D01*
X98573978Y-50468945D01*
X98672577Y-50202143D01*
X97827000Y-49356565D01*
X97827000Y-49000000D01*
X97819317Y-48961387D01*
X97893768Y-49035838D01*
X97879625Y-49049980D01*
X98852183Y-50022537D01*
X99118985Y-49923938D01*
X99345421Y-49314398D01*
X99331139Y-48928668D01*
X100339706Y-49462616D01*
X100339706Y-49462616D01*
G37*
X100339706Y-49462616D02*
X101299998Y-50086806D01*
X101965795Y-50562375D01*
X102545469Y-51045437D01*
X102551815Y-51048890D01*
X102556467Y-51054417D01*
X103806466Y-52054417D01*
X103893392Y-52099494D01*
X103974480Y-52154361D01*
X104913402Y-52549697D01*
X106174485Y-53131735D01*
X107876503Y-54104316D01*
X109320492Y-55066975D01*
X111017232Y-56521324D01*
X113198240Y-58702331D01*
X114649874Y-60879782D01*
X116111912Y-63316512D01*
X117075704Y-65725993D01*
X117806941Y-68407198D01*
X118296359Y-71098997D01*
X118542941Y-73564818D01*
X118762247Y-76196491D01*
X118686799Y-76165162D01*
X118584990Y-76165073D01*
X118584990Y-74924990D01*
X118527138Y-74634151D01*
X118362391Y-74387589D01*
X117235122Y-73260320D01*
X117235162Y-73214833D01*
X117093117Y-72871057D01*
X116830327Y-72607808D01*
X116486799Y-72465162D01*
X116114833Y-72464838D01*
X115771057Y-72606883D01*
X115507808Y-72869673D01*
X115365162Y-73213201D01*
X115364838Y-73585167D01*
X115506883Y-73928943D01*
X115769673Y-74192192D01*
X116113201Y-74334838D01*
X116160077Y-74334879D01*
X117064990Y-75239792D01*
X117064990Y-75863397D01*
X117008234Y-75825474D01*
X116434745Y-75711400D01*
X116065255Y-75711400D01*
X115491766Y-75825474D01*
X115005585Y-76150330D01*
X114680729Y-76636511D01*
X114566655Y-77210000D01*
X114680729Y-77783489D01*
X115005585Y-78269670D01*
X115320366Y-78480000D01*
X115005585Y-78690330D01*
X114680729Y-79176511D01*
X114566655Y-79750000D01*
X114680729Y-80323489D01*
X115005585Y-80809670D01*
X115308221Y-81011885D01*
X115265498Y-81125893D01*
X116250000Y-82110395D01*
X116264143Y-82096253D01*
X116443748Y-82275858D01*
X116429605Y-82290000D01*
X116443748Y-82304143D01*
X116264143Y-82483748D01*
X116250000Y-82469605D01*
X115265498Y-83454107D01*
X115366120Y-83722622D01*
X115981642Y-83951816D01*
X116638019Y-83928014D01*
X117064990Y-83751157D01*
X117064990Y-86864969D01*
X116914833Y-86864838D01*
X116571057Y-87006883D01*
X116537882Y-87040000D01*
X109463943Y-87040000D01*
X109709702Y-86875790D01*
X110450791Y-86134701D01*
X110570899Y-86085073D01*
X110834148Y-85822283D01*
X110976794Y-85478755D01*
X110977118Y-85106789D01*
X110835073Y-84763013D01*
X110572283Y-84499764D01*
X110228755Y-84357118D01*
X109856789Y-84356794D01*
X109513013Y-84498839D01*
X109249764Y-84761629D01*
X109199390Y-84882943D01*
X108717332Y-85365000D01*
X105806822Y-85365000D01*
X105686799Y-85315162D01*
X105314833Y-85314838D01*
X105193431Y-85365000D01*
X103075020Y-85365000D01*
X102736345Y-85432367D01*
X102449230Y-85624210D01*
X102449228Y-85624213D01*
X101841165Y-86232276D01*
X101721057Y-86281903D01*
X101457808Y-86544693D01*
X101315162Y-86888221D01*
X101314838Y-87260187D01*
X101456883Y-87603963D01*
X101719673Y-87867212D01*
X102063201Y-88009858D01*
X102435167Y-88010182D01*
X102778943Y-87868137D01*
X103042192Y-87605347D01*
X103092566Y-87484034D01*
X103441599Y-87135000D01*
X103480682Y-87135000D01*
X103365162Y-87413201D01*
X103364838Y-87785167D01*
X103506883Y-88128943D01*
X103540000Y-88162118D01*
X103540000Y-90726656D01*
X103397540Y-91069736D01*
X103397216Y-91441702D01*
X103539261Y-91785478D01*
X103802051Y-92048727D01*
X104145579Y-92191373D01*
X104250078Y-92191464D01*
X104306883Y-92328943D01*
X104569673Y-92592192D01*
X104913201Y-92734838D01*
X105285167Y-92735162D01*
X105628943Y-92593117D01*
X105892192Y-92330327D01*
X106034838Y-91986799D01*
X106035162Y-91614833D01*
X105893117Y-91271057D01*
X105860000Y-91237882D01*
X105860000Y-88712747D01*
X105913201Y-88734838D01*
X106285167Y-88735162D01*
X106628943Y-88593117D01*
X106662118Y-88560000D01*
X116365198Y-88560000D01*
X109610320Y-95314878D01*
X109564833Y-95314838D01*
X109221057Y-95456883D01*
X108957808Y-95719673D01*
X108815162Y-96063201D01*
X108814838Y-96435167D01*
X108956883Y-96778943D01*
X109219673Y-97042192D01*
X109563201Y-97184838D01*
X109935167Y-97185162D01*
X110278943Y-97043117D01*
X110542192Y-96780327D01*
X110684838Y-96436799D01*
X110684879Y-96389923D01*
X115763828Y-91310974D01*
X118892642Y-91310974D01*
X119013783Y-91543000D01*
X120373000Y-91543000D01*
X120373000Y-90329076D01*
X120627000Y-90329076D01*
X120627000Y-91543000D01*
X121986217Y-91543000D01*
X122107358Y-91310974D01*
X122104709Y-91295209D01*
X121850732Y-90767964D01*
X121414320Y-90378046D01*
X120861913Y-90184816D01*
X120627000Y-90329076D01*
X120373000Y-90329076D01*
X120138087Y-90184816D01*
X119585680Y-90378046D01*
X119149268Y-90767964D01*
X118895291Y-91295209D01*
X118892642Y-91310974D01*
X115763828Y-91310974D01*
X117726354Y-89348448D01*
X117969673Y-89592192D01*
X118313201Y-89734838D01*
X118685167Y-89735162D01*
X119028943Y-89593117D01*
X119292192Y-89330327D01*
X119434838Y-88986799D01*
X119435162Y-88614833D01*
X119385000Y-88493431D01*
X119385000Y-84725854D01*
X121446908Y-85642258D01*
X121607395Y-85722501D01*
X121508529Y-85763352D01*
X121015085Y-86255936D01*
X120747705Y-86899857D01*
X120747097Y-87597084D01*
X121013352Y-88241471D01*
X121505936Y-88734915D01*
X122149857Y-89002295D01*
X122847084Y-89002903D01*
X123491471Y-88736648D01*
X123984915Y-88244064D01*
X124252295Y-87600143D01*
X124252616Y-87231533D01*
X125039504Y-87793596D01*
X126228676Y-88982768D01*
X126669729Y-89497330D01*
X126402916Y-89497097D01*
X125758529Y-89763352D01*
X125265085Y-90255936D01*
X124997705Y-90899857D01*
X124997097Y-91597084D01*
X125263352Y-92241471D01*
X125755936Y-92734915D01*
X125990000Y-92832107D01*
X125990000Y-99789881D01*
X122030111Y-103749770D01*
X121900466Y-103436005D01*
X121510865Y-103045724D01*
X121744415Y-102889670D01*
X122069271Y-102403489D01*
X122183345Y-101830000D01*
X122069271Y-101256511D01*
X121744415Y-100770330D01*
X121429634Y-100560000D01*
X121744415Y-100349670D01*
X122069271Y-99863489D01*
X122183345Y-99290000D01*
X122069271Y-98716511D01*
X121744415Y-98230330D01*
X121429634Y-98020000D01*
X121744415Y-97809670D01*
X122069271Y-97323489D01*
X122183345Y-96750000D01*
X122069271Y-96176511D01*
X121744415Y-95690330D01*
X121429634Y-95480000D01*
X121744415Y-95269670D01*
X122069271Y-94783489D01*
X122183345Y-94210000D01*
X122069271Y-93636511D01*
X121744415Y-93150330D01*
X121434931Y-92943539D01*
X121850732Y-92572036D01*
X122104709Y-92044791D01*
X122107358Y-92029026D01*
X121986217Y-91797000D01*
X120627000Y-91797000D01*
X120627000Y-91817000D01*
X120373000Y-91817000D01*
X120373000Y-91797000D01*
X119013783Y-91797000D01*
X118892642Y-92029026D01*
X118895291Y-92044791D01*
X119149268Y-92572036D01*
X119565069Y-92943539D01*
X119255585Y-93150330D01*
X118930729Y-93636511D01*
X118816655Y-94210000D01*
X118930729Y-94783489D01*
X119255585Y-95269670D01*
X119570366Y-95480000D01*
X119255585Y-95690330D01*
X118930729Y-96176511D01*
X118816655Y-96750000D01*
X118930729Y-97323489D01*
X119255585Y-97809670D01*
X119570366Y-98020000D01*
X119255585Y-98230330D01*
X118930729Y-98716511D01*
X118816655Y-99290000D01*
X118892334Y-99670464D01*
X117161399Y-101401399D01*
X116996652Y-101647961D01*
X116938800Y-101938800D01*
X116938800Y-103223447D01*
X116906608Y-103255583D01*
X116763962Y-103599111D01*
X116763638Y-103971077D01*
X116885732Y-104266567D01*
X116831889Y-104396234D01*
X116831565Y-104768200D01*
X116884999Y-104897521D01*
X116762219Y-105193207D01*
X116761895Y-105565173D01*
X116856314Y-105793684D01*
X116765162Y-106013201D01*
X116764838Y-106385167D01*
X116898811Y-106709408D01*
X116857949Y-106807814D01*
X116857625Y-107179780D01*
X116926870Y-107347366D01*
X116819109Y-107606882D01*
X116818785Y-107978848D01*
X116876729Y-108119083D01*
X116758184Y-108404570D01*
X116757860Y-108776536D01*
X116870609Y-109049410D01*
X116765267Y-109303100D01*
X116764943Y-109675066D01*
X116906988Y-110018842D01*
X116940105Y-110052017D01*
X116940105Y-111785093D01*
X115562599Y-113162599D01*
X115397852Y-113409161D01*
X115340000Y-113700000D01*
X115340000Y-114700000D01*
X115397852Y-114990839D01*
X115562599Y-115237401D01*
X118240000Y-117914802D01*
X118240000Y-124185197D01*
X117985198Y-124440000D01*
X115672956Y-124440000D01*
X115671146Y-124435620D01*
X115296353Y-124060173D01*
X114806413Y-123856732D01*
X114275914Y-123856269D01*
X113785620Y-124058854D01*
X113410173Y-124433647D01*
X113206732Y-124923587D01*
X113206269Y-125454086D01*
X113408854Y-125944380D01*
X113780000Y-126316174D01*
X113780000Y-131684464D01*
X113410173Y-132053647D01*
X113206732Y-132543587D01*
X113206269Y-133074086D01*
X113408854Y-133564380D01*
X113783647Y-133939827D01*
X114273587Y-134143268D01*
X114804086Y-134143731D01*
X115294380Y-133941146D01*
X115669827Y-133566353D01*
X115873268Y-133076413D01*
X115873731Y-132545914D01*
X115671146Y-132055620D01*
X115300000Y-131683826D01*
X115300000Y-126315536D01*
X115656156Y-125960000D01*
X118300000Y-125960000D01*
X118590839Y-125902148D01*
X118740000Y-125802482D01*
X118740000Y-135485198D01*
X118185198Y-136040000D01*
X115762463Y-136040000D01*
X115730327Y-136007808D01*
X115386799Y-135865162D01*
X115014833Y-135864838D01*
X114671057Y-136006883D01*
X114407808Y-136269673D01*
X114265162Y-136613201D01*
X114264838Y-136985167D01*
X114406883Y-137328943D01*
X114669673Y-137592192D01*
X115013201Y-137734838D01*
X115385167Y-137735162D01*
X115728943Y-137593117D01*
X115762118Y-137560000D01*
X118500000Y-137560000D01*
X118790839Y-137502148D01*
X119037401Y-137337401D01*
X119790000Y-136584802D01*
X119790000Y-139392101D01*
X119702731Y-143319226D01*
X117378731Y-143800053D01*
X113188054Y-144386748D01*
X114564802Y-143010000D01*
X115437537Y-143010000D01*
X115469673Y-143042192D01*
X115813201Y-143184838D01*
X116185167Y-143185162D01*
X116528943Y-143043117D01*
X116792192Y-142780327D01*
X116934838Y-142436799D01*
X116935162Y-142064833D01*
X116793117Y-141721057D01*
X116530327Y-141457808D01*
X116186799Y-141315162D01*
X115814833Y-141314838D01*
X115471057Y-141456883D01*
X115437882Y-141490000D01*
X114250000Y-141490000D01*
X113959161Y-141547852D01*
X113712599Y-141712599D01*
X111435198Y-143990000D01*
X103550000Y-143990000D01*
X103259160Y-144047852D01*
X103012599Y-144212599D01*
X102185198Y-145040000D01*
X102052502Y-145040000D01*
X102110000Y-144852000D01*
X102110000Y-143877000D01*
X100977000Y-143877000D01*
X100977000Y-143897000D01*
X100723000Y-143897000D01*
X100723000Y-143877000D01*
X99590000Y-143877000D01*
X99590000Y-144852000D01*
X99647498Y-145040000D01*
X90352502Y-145040000D01*
X90410000Y-144852000D01*
X90410000Y-143877000D01*
X89277000Y-143877000D01*
X89277000Y-143897000D01*
X89023000Y-143897000D01*
X89023000Y-143877000D01*
X87890000Y-143877000D01*
X87890000Y-144647518D01*
X87740839Y-144547852D01*
X87450000Y-144490000D01*
X79064802Y-144490000D01*
X77222802Y-142648000D01*
X87890000Y-142648000D01*
X87890000Y-143623000D01*
X89023000Y-143623000D01*
X89023000Y-141681098D01*
X89277000Y-141681098D01*
X89277000Y-143623000D01*
X90410000Y-143623000D01*
X90410000Y-142648000D01*
X90265487Y-142175486D01*
X89951152Y-141794243D01*
X89514848Y-141562311D01*
X89471540Y-141556718D01*
X89277000Y-141681098D01*
X89023000Y-141681098D01*
X88828460Y-141556718D01*
X88785152Y-141562311D01*
X88348848Y-141794243D01*
X88034513Y-142175486D01*
X87890000Y-142648000D01*
X77222802Y-142648000D01*
X76049774Y-141474972D01*
X90351888Y-141474972D01*
X90383783Y-141925375D01*
X90494783Y-142193352D01*
X90709896Y-142230499D01*
X91320395Y-141620000D01*
X90709896Y-141009501D01*
X90494783Y-141046648D01*
X90351888Y-141474972D01*
X76049774Y-141474972D01*
X73634009Y-139059207D01*
X73684838Y-138936799D01*
X73685162Y-138564833D01*
X73552675Y-138244188D01*
X80205417Y-138244188D01*
X80267071Y-138479800D01*
X80767480Y-138655927D01*
X81297199Y-138627148D01*
X81652929Y-138479800D01*
X81714583Y-138244188D01*
X80960000Y-137489605D01*
X80205417Y-138244188D01*
X73552675Y-138244188D01*
X73543117Y-138221057D01*
X73280327Y-137957808D01*
X72936799Y-137815162D01*
X72564833Y-137814838D01*
X72221057Y-137956883D01*
X71957808Y-138219673D01*
X71815162Y-138563201D01*
X71814838Y-138935167D01*
X71956883Y-139278943D01*
X72005431Y-139327576D01*
X72047852Y-139540839D01*
X72212599Y-139787401D01*
X77170006Y-144744808D01*
X74983055Y-144494871D01*
X71698123Y-144096697D01*
X70410000Y-143893309D01*
X70410000Y-137117480D01*
X79614073Y-137117480D01*
X79642852Y-137647199D01*
X79790200Y-138002929D01*
X80025812Y-138064583D01*
X80780395Y-137310000D01*
X81139605Y-137310000D01*
X81894188Y-138064583D01*
X82129800Y-138002929D01*
X82305927Y-137502520D01*
X82277148Y-136972801D01*
X82129800Y-136617071D01*
X81894188Y-136555417D01*
X81139605Y-137310000D01*
X80780395Y-137310000D01*
X80025812Y-136555417D01*
X79790200Y-136617071D01*
X79614073Y-137117480D01*
X70410000Y-137117480D01*
X70410000Y-136375812D01*
X80205417Y-136375812D01*
X80960000Y-137130395D01*
X81714583Y-136375812D01*
X81652929Y-136140200D01*
X81152520Y-135964073D01*
X80622801Y-135992852D01*
X80267071Y-136140200D01*
X80205417Y-136375812D01*
X70410000Y-136375812D01*
X70410000Y-135300000D01*
X70409096Y-135295455D01*
X70409942Y-135290898D01*
X70390113Y-133744188D01*
X72455417Y-133744188D01*
X72517071Y-133979800D01*
X73017480Y-134155927D01*
X73547199Y-134127148D01*
X73902929Y-133979800D01*
X73964583Y-133744188D01*
X73210000Y-132989605D01*
X72455417Y-133744188D01*
X70390113Y-133744188D01*
X70375668Y-132617480D01*
X71864073Y-132617480D01*
X71892852Y-133147199D01*
X72040200Y-133502929D01*
X72275812Y-133564583D01*
X73030395Y-132810000D01*
X73389605Y-132810000D01*
X74144188Y-133564583D01*
X74379800Y-133502929D01*
X74555927Y-133002520D01*
X74527148Y-132472801D01*
X74379800Y-132117071D01*
X74144188Y-132055417D01*
X73389605Y-132810000D01*
X73030395Y-132810000D01*
X72275812Y-132055417D01*
X72040200Y-132117071D01*
X71864073Y-132617480D01*
X70375668Y-132617480D01*
X70366160Y-131875812D01*
X72455417Y-131875812D01*
X73210000Y-132630395D01*
X73964583Y-131875812D01*
X73902929Y-131640200D01*
X73402520Y-131464073D01*
X72872801Y-131492852D01*
X72517071Y-131640200D01*
X72455417Y-131875812D01*
X70366160Y-131875812D01*
X70309942Y-127490898D01*
X70309587Y-127489227D01*
X70309891Y-127487546D01*
X70285973Y-126124188D01*
X72455417Y-126124188D01*
X72517071Y-126359800D01*
X73017480Y-126535927D01*
X73547199Y-126507148D01*
X73902929Y-126359800D01*
X73964583Y-126124188D01*
X73210000Y-125369605D01*
X72455417Y-126124188D01*
X70285973Y-126124188D01*
X70266206Y-124997480D01*
X71864073Y-124997480D01*
X71892852Y-125527199D01*
X72040200Y-125882929D01*
X72275812Y-125944583D01*
X73030395Y-125190000D01*
X73389605Y-125190000D01*
X74144188Y-125944583D01*
X74379800Y-125882929D01*
X74555927Y-125382520D01*
X74527148Y-124852801D01*
X74379800Y-124497071D01*
X74144188Y-124435417D01*
X73389605Y-125190000D01*
X73030395Y-125190000D01*
X72275812Y-124435417D01*
X72040200Y-124497071D01*
X71864073Y-124997480D01*
X70266206Y-124997480D01*
X70253195Y-124255812D01*
X72455417Y-124255812D01*
X73210000Y-125010395D01*
X73964583Y-124255812D01*
X73902929Y-124020200D01*
X73402520Y-123844073D01*
X72872801Y-123872852D01*
X72517071Y-124020200D01*
X72455417Y-124255812D01*
X70253195Y-124255812D01*
X70210000Y-121793759D01*
X70210000Y-114750000D01*
X70205023Y-114724977D01*
X70208213Y-114699669D01*
X70178155Y-114589907D01*
X70155954Y-114478295D01*
X70141783Y-114457086D01*
X70135044Y-114432478D01*
X70065267Y-114342572D01*
X70002046Y-114247954D01*
X69980833Y-114233780D01*
X69965193Y-114213628D01*
X69866327Y-114157270D01*
X69771705Y-114094046D01*
X69746686Y-114089069D01*
X69724522Y-114076435D01*
X68255077Y-113586620D01*
X67526271Y-113267767D01*
X66996442Y-112949870D01*
X67391471Y-112786648D01*
X67884915Y-112294064D01*
X68152295Y-111650143D01*
X68152903Y-110952916D01*
X67886648Y-110308529D01*
X67394064Y-109815085D01*
X66750143Y-109547705D01*
X66052916Y-109547097D01*
X65408529Y-109813352D01*
X64915085Y-110305936D01*
X64647705Y-110949857D01*
X64647230Y-111494839D01*
X64202334Y-111198242D01*
X63037724Y-110033632D01*
X61626772Y-108152362D01*
X62247084Y-108152903D01*
X62891471Y-107886648D01*
X63384915Y-107394064D01*
X63652295Y-106750143D01*
X63652903Y-106052916D01*
X63386648Y-105408529D01*
X62894064Y-104915085D01*
X62250143Y-104647705D01*
X61552916Y-104647097D01*
X60908529Y-104913352D01*
X60415085Y-105405936D01*
X60360210Y-105538090D01*
X59907047Y-104480709D01*
X59480129Y-103389695D01*
X59196741Y-102161683D01*
X59005127Y-101012001D01*
X58957081Y-100435451D01*
X59305936Y-100784915D01*
X59949857Y-101052295D01*
X60647084Y-101052903D01*
X61291471Y-100786648D01*
X61784915Y-100294064D01*
X62052295Y-99650143D01*
X62052903Y-98952916D01*
X61786648Y-98308529D01*
X61294064Y-97815085D01*
X60650143Y-97547705D01*
X59952916Y-97547097D01*
X59308529Y-97813352D01*
X58978985Y-98142322D01*
X59202719Y-96352449D01*
X59443730Y-94906385D01*
X59908493Y-93279712D01*
X59913352Y-93291471D01*
X60405936Y-93784915D01*
X61049857Y-94052295D01*
X61747084Y-94052903D01*
X62391471Y-93786648D01*
X62884915Y-93294064D01*
X63152295Y-92650143D01*
X63152903Y-91952916D01*
X62886648Y-91308529D01*
X62394064Y-90815085D01*
X61750143Y-90547705D01*
X61052916Y-90547097D01*
X60864756Y-90624843D01*
X60881762Y-90582328D01*
X61819719Y-89175393D01*
X62999530Y-87759619D01*
X63947573Y-87001185D01*
X63947097Y-87547084D01*
X64213352Y-88191471D01*
X64705936Y-88684915D01*
X65088911Y-88843940D01*
X64287568Y-89645283D01*
X64122821Y-89891845D01*
X64064969Y-90182684D01*
X64064969Y-91288666D01*
X64032777Y-91320802D01*
X63890131Y-91664330D01*
X63889807Y-92036296D01*
X64031852Y-92380072D01*
X64064969Y-92413247D01*
X64064969Y-100347369D01*
X64122821Y-100638208D01*
X64287568Y-100884770D01*
X66142334Y-102739536D01*
X66066655Y-103120000D01*
X66180729Y-103693489D01*
X66505585Y-104179670D01*
X66991766Y-104504526D01*
X67565255Y-104618600D01*
X67934745Y-104618600D01*
X68508234Y-104504526D01*
X68994415Y-104179670D01*
X69319271Y-103693489D01*
X69433345Y-103120000D01*
X69319271Y-102546511D01*
X68994415Y-102060330D01*
X68679634Y-101850000D01*
X68994415Y-101639670D01*
X69020921Y-101600000D01*
X73340000Y-101600000D01*
X73340000Y-103200000D01*
X73397852Y-103490839D01*
X73562599Y-103737401D01*
X74365000Y-104539802D01*
X74365000Y-114487537D01*
X74332808Y-114519673D01*
X74190162Y-114863201D01*
X74189838Y-115235167D01*
X74331883Y-115578943D01*
X74594673Y-115842192D01*
X74938201Y-115984838D01*
X75215000Y-115985079D01*
X75215000Y-120899995D01*
X75214999Y-120900000D01*
X75262616Y-121139381D01*
X75282367Y-121238675D01*
X75327912Y-121306838D01*
X75474210Y-121525790D01*
X77274208Y-123325787D01*
X77274210Y-123325790D01*
X77482886Y-123465222D01*
X77561325Y-123517633D01*
X77900000Y-123585000D01*
X78820198Y-123585000D01*
X78548473Y-123856725D01*
X78025914Y-123856269D01*
X77535620Y-124058854D01*
X77160173Y-124433647D01*
X76956732Y-124923587D01*
X76956269Y-125454086D01*
X77158854Y-125944380D01*
X77530000Y-126316174D01*
X77530000Y-131684464D01*
X77160173Y-132053647D01*
X76956732Y-132543587D01*
X76956269Y-133074086D01*
X77158854Y-133564380D01*
X77533647Y-133939827D01*
X78023587Y-134143268D01*
X78554086Y-134143731D01*
X79044380Y-133941146D01*
X79419827Y-133566353D01*
X79623268Y-133076413D01*
X79623731Y-132545914D01*
X79421146Y-132055620D01*
X79050000Y-131683826D01*
X79050000Y-130624188D01*
X80205417Y-130624188D01*
X80267071Y-130859800D01*
X80767480Y-131035927D01*
X81297199Y-131007148D01*
X81652929Y-130859800D01*
X81714583Y-130624188D01*
X80960000Y-129869605D01*
X80205417Y-130624188D01*
X79050000Y-130624188D01*
X79050000Y-129497480D01*
X79614073Y-129497480D01*
X79642852Y-130027199D01*
X79790200Y-130382929D01*
X80025812Y-130444583D01*
X80780395Y-129690000D01*
X81139605Y-129690000D01*
X81894188Y-130444583D01*
X82129800Y-130382929D01*
X82305927Y-129882520D01*
X82277148Y-129352801D01*
X82129800Y-128997071D01*
X81894188Y-128935417D01*
X81139605Y-129690000D01*
X80780395Y-129690000D01*
X80025812Y-128935417D01*
X79790200Y-128997071D01*
X79614073Y-129497480D01*
X79050000Y-129497480D01*
X79050000Y-128494188D01*
X80205417Y-128494188D01*
X80239647Y-128625000D01*
X80205417Y-128755812D01*
X80960000Y-129510395D01*
X81714583Y-128755812D01*
X81680353Y-128625000D01*
X81714583Y-128494188D01*
X80960000Y-127739605D01*
X80205417Y-128494188D01*
X79050000Y-128494188D01*
X79050000Y-127367480D01*
X79614073Y-127367480D01*
X79642852Y-127897199D01*
X79790200Y-128252929D01*
X80025812Y-128314583D01*
X80780395Y-127560000D01*
X81139605Y-127560000D01*
X81894188Y-128314583D01*
X82129800Y-128252929D01*
X82280738Y-127824086D01*
X84706269Y-127824086D01*
X84908854Y-128314380D01*
X85219145Y-128625213D01*
X84910173Y-128933647D01*
X84706732Y-129423587D01*
X84706269Y-129954086D01*
X84908854Y-130444380D01*
X85280000Y-130816174D01*
X85280000Y-136184464D01*
X84910173Y-136553647D01*
X84706732Y-137043587D01*
X84706269Y-137574086D01*
X84908854Y-138064380D01*
X85283647Y-138439827D01*
X85773587Y-138643268D01*
X86304086Y-138643731D01*
X86794380Y-138441146D01*
X87169827Y-138066353D01*
X87373268Y-137576413D01*
X87373731Y-137045914D01*
X87171146Y-136555620D01*
X86800000Y-136183826D01*
X86800000Y-133744188D01*
X87455417Y-133744188D01*
X87517071Y-133979800D01*
X88017480Y-134155927D01*
X88547199Y-134127148D01*
X88902929Y-133979800D01*
X88964583Y-133744188D01*
X88210000Y-132989605D01*
X87455417Y-133744188D01*
X86800000Y-133744188D01*
X86800000Y-132617480D01*
X86864073Y-132617480D01*
X86892852Y-133147199D01*
X87040200Y-133502929D01*
X87275812Y-133564583D01*
X88030395Y-132810000D01*
X88389605Y-132810000D01*
X89144188Y-133564583D01*
X89379800Y-133502929D01*
X89555927Y-133002520D01*
X89527148Y-132472801D01*
X89379800Y-132117071D01*
X89144188Y-132055417D01*
X88389605Y-132810000D01*
X88030395Y-132810000D01*
X87275812Y-132055417D01*
X87040200Y-132117071D01*
X86864073Y-132617480D01*
X86800000Y-132617480D01*
X86800000Y-131875812D01*
X87455417Y-131875812D01*
X88210000Y-132630395D01*
X88964583Y-131875812D01*
X88902929Y-131640200D01*
X88402520Y-131464073D01*
X87872801Y-131492852D01*
X87517071Y-131640200D01*
X87455417Y-131875812D01*
X86800000Y-131875812D01*
X86800000Y-130815536D01*
X87169827Y-130446353D01*
X87373268Y-129956413D01*
X87373731Y-129425914D01*
X87171146Y-128935620D01*
X86860855Y-128624787D01*
X87169827Y-128316353D01*
X87373268Y-127826413D01*
X87373731Y-127295914D01*
X87171146Y-126805620D01*
X86796353Y-126430173D01*
X86306413Y-126226732D01*
X85775914Y-126226269D01*
X85285620Y-126428854D01*
X84910173Y-126803647D01*
X84706732Y-127293587D01*
X84706269Y-127824086D01*
X82280738Y-127824086D01*
X82305927Y-127752520D01*
X82277148Y-127222801D01*
X82129800Y-126867071D01*
X81894188Y-126805417D01*
X81139605Y-127560000D01*
X80780395Y-127560000D01*
X80025812Y-126805417D01*
X79790200Y-126867071D01*
X79614073Y-127367480D01*
X79050000Y-127367480D01*
X79050000Y-126625812D01*
X80205417Y-126625812D01*
X80960000Y-127380395D01*
X81714583Y-126625812D01*
X81652929Y-126390200D01*
X81152520Y-126214073D01*
X80622801Y-126242852D01*
X80267071Y-126390200D01*
X80205417Y-126625812D01*
X79050000Y-126625812D01*
X79050000Y-126315536D01*
X79241681Y-126124188D01*
X87455417Y-126124188D01*
X87517071Y-126359800D01*
X88017480Y-126535927D01*
X88547199Y-126507148D01*
X88902929Y-126359800D01*
X88964583Y-126124188D01*
X88210000Y-125369605D01*
X87455417Y-126124188D01*
X79241681Y-126124188D01*
X79419827Y-125946353D01*
X79623268Y-125456413D01*
X79623726Y-124931076D01*
X80144413Y-124410389D01*
X87250781Y-124410389D01*
X87275810Y-124435418D01*
X87040200Y-124497071D01*
X86864073Y-124997480D01*
X86892852Y-125527199D01*
X87040200Y-125882929D01*
X87275812Y-125944583D01*
X88030395Y-125190000D01*
X88016253Y-125175858D01*
X88195858Y-124996253D01*
X88210000Y-125010395D01*
X88224143Y-124996253D01*
X88403748Y-125175858D01*
X88389605Y-125190000D01*
X89144188Y-125944583D01*
X89379800Y-125882929D01*
X89555927Y-125382520D01*
X89527148Y-124852801D01*
X89379800Y-124497071D01*
X89222139Y-124455815D01*
X89251929Y-124443506D01*
X89515178Y-124180716D01*
X89657824Y-123837188D01*
X89658044Y-123585000D01*
X91280813Y-123585000D01*
X91197852Y-123709161D01*
X91140000Y-124000000D01*
X91140000Y-132185198D01*
X90360320Y-132964878D01*
X90314833Y-132964838D01*
X89971057Y-133106883D01*
X89707808Y-133369673D01*
X89565162Y-133713201D01*
X89564838Y-134085167D01*
X89706883Y-134428943D01*
X89969673Y-134692192D01*
X90313201Y-134834838D01*
X90685167Y-134835162D01*
X91028943Y-134693117D01*
X91292192Y-134430327D01*
X91373000Y-134235721D01*
X91373000Y-140491151D01*
X91194625Y-140503783D01*
X90926648Y-140614783D01*
X90889501Y-140829896D01*
X91373000Y-141313395D01*
X91373000Y-141926605D01*
X90889501Y-142410104D01*
X90926648Y-142625217D01*
X91354972Y-142768112D01*
X91805375Y-142736217D01*
X91827627Y-142727000D01*
X91905935Y-142727000D01*
X91611265Y-143021155D01*
X91415223Y-143493276D01*
X91414777Y-144004481D01*
X91609995Y-144476943D01*
X91971155Y-144838735D01*
X92443276Y-145034777D01*
X92954481Y-145035223D01*
X93426943Y-144840005D01*
X93788735Y-144478845D01*
X93984777Y-144006724D01*
X93985223Y-143495519D01*
X93790005Y-143023057D01*
X93494465Y-142727000D01*
X93706287Y-142727000D01*
X93773244Y-142754803D01*
X94224775Y-142755197D01*
X94293017Y-142727000D01*
X95706287Y-142727000D01*
X95773244Y-142754803D01*
X96224775Y-142755197D01*
X96293017Y-142727000D01*
X96505935Y-142727000D01*
X96211265Y-143021155D01*
X96015223Y-143493276D01*
X96014777Y-144004481D01*
X96209995Y-144476943D01*
X96571155Y-144838735D01*
X97043276Y-145034777D01*
X97554481Y-145035223D01*
X98026943Y-144840005D01*
X98388735Y-144478845D01*
X98584777Y-144006724D01*
X98585223Y-143495519D01*
X98390005Y-143023057D01*
X98094465Y-142727000D01*
X98206287Y-142727000D01*
X98273244Y-142754803D01*
X98724775Y-142755197D01*
X98984210Y-142648000D01*
X99590000Y-142648000D01*
X99590000Y-143623000D01*
X100723000Y-143623000D01*
X100723000Y-141681098D01*
X100977000Y-141681098D01*
X100977000Y-143623000D01*
X102110000Y-143623000D01*
X102110000Y-142648000D01*
X101965487Y-142175486D01*
X101651152Y-141794243D01*
X101214848Y-141562311D01*
X101171540Y-141556718D01*
X100977000Y-141681098D01*
X100723000Y-141681098D01*
X100528460Y-141556718D01*
X100485152Y-141562311D01*
X100048848Y-141794243D01*
X99734513Y-142175486D01*
X99590000Y-142648000D01*
X98984210Y-142648000D01*
X99142086Y-142582767D01*
X99461645Y-142263765D01*
X99634803Y-141846756D01*
X99635197Y-141395225D01*
X99462767Y-140977914D01*
X99143765Y-140658355D01*
X98726756Y-140485197D01*
X98627000Y-140485110D01*
X98627000Y-133744188D01*
X108705417Y-133744188D01*
X108767071Y-133979800D01*
X109267480Y-134155927D01*
X109797199Y-134127148D01*
X110152929Y-133979800D01*
X110214583Y-133744188D01*
X109460000Y-132989605D01*
X108705417Y-133744188D01*
X98627000Y-133744188D01*
X98627000Y-132617480D01*
X108114073Y-132617480D01*
X108142852Y-133147199D01*
X108290200Y-133502929D01*
X108525812Y-133564583D01*
X109280395Y-132810000D01*
X109639605Y-132810000D01*
X110394188Y-133564583D01*
X110629800Y-133502929D01*
X110805927Y-133002520D01*
X110777148Y-132472801D01*
X110629800Y-132117071D01*
X110394188Y-132055417D01*
X109639605Y-132810000D01*
X109280395Y-132810000D01*
X108525812Y-132055417D01*
X108290200Y-132117071D01*
X108114073Y-132617480D01*
X98627000Y-132617480D01*
X98627000Y-131875812D01*
X108705417Y-131875812D01*
X109460000Y-132630395D01*
X110214583Y-131875812D01*
X110152929Y-131640200D01*
X109652520Y-131464073D01*
X109122801Y-131492852D01*
X108767071Y-131640200D01*
X108705417Y-131875812D01*
X98627000Y-131875812D01*
X98627000Y-126027000D01*
X102573000Y-126027000D01*
X102573000Y-129400000D01*
X102581685Y-129446159D01*
X102608965Y-129488553D01*
X102650590Y-129516994D01*
X102700000Y-129527000D01*
X103400000Y-129527000D01*
X103446159Y-129518315D01*
X103488553Y-129491035D01*
X103516994Y-129449410D01*
X103527000Y-129400000D01*
X103527000Y-126124188D01*
X108705417Y-126124188D01*
X108767071Y-126359800D01*
X109267480Y-126535927D01*
X109797199Y-126507148D01*
X110152929Y-126359800D01*
X110214583Y-126124188D01*
X109460000Y-125369605D01*
X108705417Y-126124188D01*
X103527000Y-126124188D01*
X103527000Y-126027000D01*
X107000000Y-126027000D01*
X107046159Y-126018315D01*
X107088553Y-125991035D01*
X107116994Y-125949410D01*
X107127000Y-125900000D01*
X107127000Y-124997480D01*
X108114073Y-124997480D01*
X108142852Y-125527199D01*
X108290200Y-125882929D01*
X108525812Y-125944583D01*
X109280395Y-125190000D01*
X109639605Y-125190000D01*
X110394188Y-125944583D01*
X110629800Y-125882929D01*
X110805927Y-125382520D01*
X110777148Y-124852801D01*
X110629800Y-124497071D01*
X110394188Y-124435417D01*
X109639605Y-125190000D01*
X109280395Y-125190000D01*
X108525812Y-124435417D01*
X108290200Y-124497071D01*
X108114073Y-124997480D01*
X107127000Y-124997480D01*
X107127000Y-124255812D01*
X108705417Y-124255812D01*
X109460000Y-125010395D01*
X110214583Y-124255812D01*
X110152929Y-124020200D01*
X109652520Y-123844073D01*
X109122801Y-123872852D01*
X108767071Y-124020200D01*
X108705417Y-124255812D01*
X107127000Y-124255812D01*
X107127000Y-121200000D01*
X107118315Y-121153841D01*
X107091035Y-121111447D01*
X107049410Y-121083006D01*
X107000000Y-121073000D01*
X98627000Y-121073000D01*
X98627000Y-114675175D01*
X99170155Y-114900713D01*
X99826963Y-114901286D01*
X100433995Y-114650466D01*
X100787848Y-114297229D01*
X101175182Y-114656385D01*
X101657056Y-114855975D01*
X101913000Y-114736836D01*
X101913000Y-113377000D01*
X102167000Y-113377000D01*
X102167000Y-114736836D01*
X102422944Y-114855975D01*
X102904818Y-114656385D01*
X103377188Y-114218379D01*
X103645983Y-113632946D01*
X103527367Y-113377000D01*
X102167000Y-113377000D01*
X101913000Y-113377000D01*
X101893000Y-113377000D01*
X101893000Y-113123000D01*
X101913000Y-113123000D01*
X101913000Y-111763164D01*
X102167000Y-111763164D01*
X102167000Y-113123000D01*
X103527367Y-113123000D01*
X103645983Y-112867054D01*
X103377188Y-112281621D01*
X102904818Y-111843615D01*
X102422944Y-111644025D01*
X102167000Y-111763164D01*
X101913000Y-111763164D01*
X101657056Y-111644025D01*
X101175182Y-111843615D01*
X100787631Y-112202973D01*
X100436437Y-111851166D01*
X99829845Y-111599287D01*
X99173037Y-111598714D01*
X98627000Y-111824331D01*
X98627000Y-103976803D01*
X100690379Y-106040182D01*
X100690379Y-108546640D01*
X100658187Y-108578776D01*
X100515541Y-108922304D01*
X100515217Y-109294270D01*
X100657262Y-109638046D01*
X100920052Y-109901295D01*
X101263580Y-110043941D01*
X101635546Y-110044265D01*
X101979322Y-109902220D01*
X102242571Y-109639430D01*
X102385217Y-109295902D01*
X102385541Y-108923936D01*
X102243496Y-108580160D01*
X102210379Y-108546985D01*
X102210379Y-105985180D01*
X102564838Y-105985180D01*
X102706883Y-106328956D01*
X102740000Y-106362131D01*
X102740000Y-110137537D01*
X102707808Y-110169673D01*
X102565162Y-110513201D01*
X102564838Y-110885167D01*
X102706883Y-111228943D01*
X102969673Y-111492192D01*
X103313201Y-111634838D01*
X103685167Y-111635162D01*
X104028943Y-111493117D01*
X104080415Y-111441734D01*
X104326606Y-111543962D01*
X104698572Y-111544286D01*
X105042348Y-111402241D01*
X105305597Y-111139451D01*
X105448243Y-110795923D01*
X105448567Y-110423957D01*
X105306522Y-110080181D01*
X105260000Y-110033578D01*
X105260000Y-109935167D01*
X113064838Y-109935167D01*
X113206883Y-110278943D01*
X113469673Y-110542192D01*
X113813201Y-110684838D01*
X114185167Y-110685162D01*
X114528943Y-110543117D01*
X114792192Y-110280327D01*
X114934838Y-109936799D01*
X114934879Y-109889923D01*
X115083236Y-109741566D01*
X115247983Y-109495005D01*
X115305835Y-109204165D01*
X115305835Y-105387366D01*
X115338027Y-105355230D01*
X115480673Y-105011702D01*
X115480997Y-104639736D01*
X115338952Y-104295960D01*
X115076162Y-104032711D01*
X114732634Y-103890065D01*
X114360668Y-103889741D01*
X114016892Y-104031786D01*
X113753643Y-104294576D01*
X113610997Y-104638104D01*
X113610673Y-105010070D01*
X113752718Y-105353846D01*
X113785835Y-105387021D01*
X113785835Y-108826820D01*
X113471057Y-108956883D01*
X113207808Y-109219673D01*
X113065162Y-109563201D01*
X113064838Y-109935167D01*
X105260000Y-109935167D01*
X105260000Y-106262463D01*
X105292192Y-106230327D01*
X105434838Y-105886799D01*
X105435162Y-105514833D01*
X105293117Y-105171057D01*
X105030327Y-104907808D01*
X104686799Y-104765162D01*
X104314833Y-104764838D01*
X103971057Y-104906883D01*
X103917058Y-104960788D01*
X103686799Y-104865175D01*
X103314833Y-104864851D01*
X102971057Y-105006896D01*
X102707808Y-105269686D01*
X102565162Y-105613214D01*
X102564838Y-105985180D01*
X102210379Y-105985180D01*
X102210379Y-105725379D01*
X102152527Y-105434540D01*
X102043300Y-105271070D01*
X101987780Y-105187977D01*
X101309781Y-104509978D01*
X102916976Y-104509978D01*
X102949112Y-104542170D01*
X103292640Y-104684816D01*
X103664606Y-104685140D01*
X104008382Y-104543095D01*
X104271631Y-104280305D01*
X104414277Y-103936777D01*
X104414601Y-103564811D01*
X104272556Y-103221035D01*
X104009766Y-102957786D01*
X103666238Y-102815140D01*
X103294272Y-102814816D01*
X102950496Y-102956861D01*
X102917321Y-102989978D01*
X100740516Y-102989978D01*
X100427068Y-102676530D01*
X100628943Y-102593117D01*
X100892192Y-102330327D01*
X101034838Y-101986799D01*
X101035162Y-101614833D01*
X100893117Y-101271057D01*
X100630327Y-101007808D01*
X100286799Y-100865162D01*
X100239923Y-100865121D01*
X98928391Y-99553589D01*
X98681829Y-99388842D01*
X98627000Y-99377936D01*
X98627000Y-99360000D01*
X98864601Y-99122813D01*
X99007247Y-98779285D01*
X99007288Y-98732409D01*
X99087422Y-98652275D01*
X99252169Y-98405714D01*
X99310021Y-98114874D01*
X99310021Y-95615786D01*
X99252169Y-95324947D01*
X99207790Y-95258529D01*
X99087423Y-95078385D01*
X98627000Y-94617962D01*
X98627000Y-94475233D01*
X100316467Y-96164700D01*
X100316427Y-96210187D01*
X100458472Y-96553963D01*
X100721262Y-96817212D01*
X101064790Y-96959858D01*
X101436756Y-96960182D01*
X101780532Y-96818137D01*
X102043781Y-96555347D01*
X102046711Y-96548291D01*
X103815159Y-98316738D01*
X103814838Y-98685167D01*
X103956883Y-99028943D01*
X104219673Y-99292192D01*
X104563201Y-99434838D01*
X104935167Y-99435162D01*
X105278943Y-99293117D01*
X105542192Y-99030327D01*
X105684838Y-98686799D01*
X105685162Y-98314833D01*
X105635000Y-98193431D01*
X105635000Y-98000005D01*
X105635001Y-98000000D01*
X105571541Y-97680974D01*
X105567633Y-97661325D01*
X105375790Y-97374210D01*
X105375787Y-97374208D01*
X100592744Y-92591164D01*
X100543117Y-92471057D01*
X100280327Y-92207808D01*
X99936799Y-92065162D01*
X99564833Y-92064838D01*
X99221057Y-92206883D01*
X98957808Y-92469673D01*
X98903010Y-92601639D01*
X98091272Y-91789901D01*
X98091272Y-88431158D01*
X98142192Y-88380327D01*
X98284838Y-88036799D01*
X98285162Y-87664833D01*
X98143117Y-87321057D01*
X97880327Y-87057808D01*
X97536799Y-86915162D01*
X97307234Y-86914962D01*
X97492192Y-86730327D01*
X97634838Y-86386799D01*
X97634883Y-86334944D01*
X97885167Y-86335162D01*
X98228943Y-86193117D01*
X98492192Y-85930327D01*
X98634838Y-85586799D01*
X98634928Y-85483620D01*
X98853963Y-85393117D01*
X99117212Y-85130327D01*
X99259858Y-84786799D01*
X99259925Y-84710000D01*
X102750000Y-84710000D01*
X103040839Y-84652148D01*
X103287401Y-84487401D01*
X105037401Y-82737401D01*
X105202148Y-82490839D01*
X105260000Y-82200000D01*
X105260000Y-82021642D01*
X114588184Y-82021642D01*
X114611986Y-82678019D01*
X114817378Y-83173880D01*
X115085893Y-83274502D01*
X116070395Y-82290000D01*
X115085893Y-81305498D01*
X114817378Y-81406120D01*
X114588184Y-82021642D01*
X105260000Y-82021642D01*
X105260000Y-81314802D01*
X105914802Y-80660000D01*
X111937537Y-80660000D01*
X111969673Y-80692192D01*
X112313201Y-80834838D01*
X112685167Y-80835162D01*
X113028943Y-80693117D01*
X113292192Y-80430327D01*
X113434838Y-80086799D01*
X113435162Y-79714833D01*
X113293117Y-79371057D01*
X113030327Y-79107808D01*
X112686799Y-78965162D01*
X112314833Y-78964838D01*
X111971057Y-79106883D01*
X111937882Y-79140000D01*
X105600000Y-79140000D01*
X105309161Y-79197852D01*
X105062599Y-79362599D01*
X103962599Y-80462599D01*
X103800175Y-80705685D01*
X103553805Y-80625800D01*
X102679605Y-81500000D01*
X102693748Y-81514143D01*
X102514143Y-81693748D01*
X102500000Y-81679605D01*
X101625800Y-82553805D01*
X101707741Y-82806516D01*
X102268030Y-83010248D01*
X102630906Y-82994292D01*
X102435198Y-83190000D01*
X99408282Y-83190000D01*
X99430554Y-83078032D01*
X99960000Y-83183345D01*
X100533489Y-83069271D01*
X101019670Y-82744415D01*
X101298943Y-82326454D01*
X101446195Y-82374200D01*
X102320395Y-81500000D01*
X101446195Y-80625800D01*
X101298943Y-80673546D01*
X101042025Y-80289041D01*
X101273690Y-80385000D01*
X101645642Y-80385000D01*
X101625800Y-80446195D01*
X102500000Y-81320395D01*
X103374200Y-80446195D01*
X103292259Y-80193484D01*
X103117930Y-80130095D01*
X103138327Y-80109698D01*
X103235000Y-79876309D01*
X103235000Y-78535750D01*
X103076250Y-78377000D01*
X102127000Y-78377000D01*
X102127000Y-78397000D01*
X101873000Y-78397000D01*
X101873000Y-78377000D01*
X101853000Y-78377000D01*
X101853000Y-78123000D01*
X101873000Y-78123000D01*
X101873000Y-78103000D01*
X102127000Y-78103000D01*
X102127000Y-78123000D01*
X103076250Y-78123000D01*
X103235000Y-77964250D01*
X103235000Y-76623691D01*
X103138327Y-76390302D01*
X102959699Y-76211673D01*
X102726310Y-76115000D01*
X102285750Y-76115000D01*
X102127002Y-76273748D01*
X102127002Y-76115000D01*
X102123128Y-76115000D01*
X102134838Y-76086799D01*
X102135162Y-75714833D01*
X101993117Y-75371057D01*
X101960000Y-75337882D01*
X101960000Y-71485167D01*
X105064838Y-71485167D01*
X105206883Y-71828943D01*
X105469673Y-72092192D01*
X105813201Y-72234838D01*
X106185167Y-72235162D01*
X106528943Y-72093117D01*
X106562118Y-72060000D01*
X110700000Y-72060000D01*
X110990839Y-72002148D01*
X111237401Y-71837401D01*
X113439680Y-69635122D01*
X113485167Y-69635162D01*
X113828943Y-69493117D01*
X114092192Y-69230327D01*
X114234838Y-68886799D01*
X114235162Y-68514833D01*
X114093117Y-68171057D01*
X113830327Y-67907808D01*
X113486799Y-67765162D01*
X113114833Y-67764838D01*
X112771057Y-67906883D01*
X112507808Y-68169673D01*
X112365162Y-68513201D01*
X112365121Y-68560077D01*
X110385198Y-70540000D01*
X106562463Y-70540000D01*
X106530327Y-70507808D01*
X106186799Y-70365162D01*
X105814833Y-70364838D01*
X105471057Y-70506883D01*
X105207808Y-70769673D01*
X105065162Y-71113201D01*
X105064838Y-71485167D01*
X101960000Y-71485167D01*
X101960000Y-71474980D01*
X101925194Y-71300000D01*
X101902148Y-71184140D01*
X101737401Y-70937579D01*
X101335122Y-70535300D01*
X101335162Y-70489813D01*
X101193117Y-70146037D01*
X100930327Y-69882788D01*
X100586799Y-69740142D01*
X100214833Y-69739818D01*
X99949772Y-69849339D01*
X99686799Y-69740142D01*
X99314833Y-69739818D01*
X98999649Y-69870049D01*
X98686799Y-69740142D01*
X98314833Y-69739818D01*
X98099896Y-69828628D01*
X97886799Y-69740142D01*
X97514833Y-69739818D01*
X97171057Y-69881863D01*
X96907808Y-70144653D01*
X96765162Y-70488181D01*
X96764838Y-70860147D01*
X96906883Y-71203923D01*
X96940000Y-71237098D01*
X96940000Y-73237537D01*
X96907808Y-73269673D01*
X96765162Y-73613201D01*
X96765121Y-73660076D01*
X96462599Y-73962599D01*
X96297852Y-74209161D01*
X96286747Y-74264988D01*
X96114833Y-74264838D01*
X95771057Y-74406883D01*
X95737882Y-74440000D01*
X95700000Y-74440000D01*
X95409161Y-74497852D01*
X95402732Y-74502148D01*
X95162598Y-74662599D01*
X94462599Y-75362599D01*
X94297852Y-75609161D01*
X94240000Y-75900000D01*
X94240000Y-76102560D01*
X93400000Y-76102560D01*
X93164683Y-76146838D01*
X92998523Y-76253759D01*
X92851890Y-76153569D01*
X92600000Y-76102560D01*
X91400000Y-76102560D01*
X91164683Y-76146838D01*
X90998523Y-76253759D01*
X90851890Y-76153569D01*
X90600000Y-76102560D01*
X89400000Y-76102560D01*
X89164683Y-76146838D01*
X88998523Y-76253759D01*
X88851890Y-76153569D01*
X88600000Y-76102560D01*
X87400000Y-76102560D01*
X87164683Y-76146838D01*
X86948559Y-76285910D01*
X86803569Y-76498110D01*
X86752560Y-76750000D01*
X86752560Y-77565002D01*
X86564833Y-77564838D01*
X86221057Y-77706883D01*
X85957808Y-77969673D01*
X85815162Y-78313201D01*
X85814838Y-78685167D01*
X85956883Y-79028943D01*
X86219673Y-79292192D01*
X86563201Y-79434838D01*
X86752560Y-79435003D01*
X86752560Y-79750000D01*
X86782957Y-79911545D01*
X86686511Y-79930729D01*
X86200330Y-80255585D01*
X85875474Y-80741766D01*
X85761400Y-81315255D01*
X85761400Y-81684745D01*
X85875474Y-82258234D01*
X86200330Y-82744415D01*
X86686511Y-83069271D01*
X87260000Y-83183345D01*
X87833489Y-83069271D01*
X88319670Y-82744415D01*
X88530000Y-82429634D01*
X88740330Y-82744415D01*
X89226511Y-83069271D01*
X89800000Y-83183345D01*
X90314929Y-83080919D01*
X90314838Y-83185167D01*
X90456883Y-83528943D01*
X90719673Y-83792192D01*
X91063201Y-83934838D01*
X91096917Y-83934867D01*
X90940856Y-84372302D01*
X90968638Y-84927368D01*
X91127603Y-85311143D01*
X91369787Y-85380608D01*
X92170395Y-84580000D01*
X92529605Y-84580000D01*
X93330213Y-85380608D01*
X93572397Y-85311143D01*
X93759144Y-84787698D01*
X93731362Y-84232632D01*
X93572397Y-83848857D01*
X93330213Y-83779392D01*
X92529605Y-84580000D01*
X92170395Y-84580000D01*
X92156253Y-84565858D01*
X92335858Y-84386253D01*
X92350000Y-84400395D01*
X93150608Y-83599787D01*
X93081143Y-83357603D01*
X92557698Y-83170856D01*
X92350700Y-83181217D01*
X92913489Y-83069271D01*
X93399670Y-82744415D01*
X93610000Y-82429634D01*
X93820330Y-82744415D01*
X94306511Y-83069271D01*
X94880000Y-83183345D01*
X95453489Y-83069271D01*
X95939670Y-82744415D01*
X96150000Y-82429634D01*
X96360330Y-82744415D01*
X96765161Y-83014914D01*
X96765008Y-83190000D01*
X95424996Y-83190000D01*
X95134157Y-83247852D01*
X94887595Y-83412599D01*
X94612566Y-83687628D01*
X94447819Y-83934190D01*
X94389967Y-84225029D01*
X94389967Y-91760809D01*
X93063510Y-90434352D01*
X92816948Y-90269605D01*
X92526109Y-90211753D01*
X92139827Y-90211753D01*
X93923764Y-88427815D01*
X93923767Y-88427813D01*
X94115610Y-88140698D01*
X94125528Y-88090839D01*
X94182978Y-87802023D01*
X94182977Y-87802018D01*
X94182977Y-87077857D01*
X94232815Y-86957834D01*
X94233139Y-86585868D01*
X94091094Y-86242092D01*
X93828304Y-85978843D01*
X93484776Y-85836197D01*
X93112810Y-85835873D01*
X92769034Y-85977918D01*
X92505785Y-86240708D01*
X92363139Y-86584236D01*
X92362815Y-86956202D01*
X92412977Y-87077604D01*
X92412977Y-87435444D01*
X91960313Y-87888108D01*
X91780327Y-87707808D01*
X91436799Y-87565162D01*
X91064833Y-87564838D01*
X90721057Y-87706883D01*
X90687882Y-87740000D01*
X89987441Y-87740000D01*
X89686799Y-87615162D01*
X89314833Y-87614838D01*
X88971057Y-87756883D01*
X88707808Y-88019673D01*
X88565162Y-88363201D01*
X88564838Y-88735167D01*
X88706883Y-89078943D01*
X88727710Y-89099806D01*
X88707808Y-89119673D01*
X88565162Y-89463201D01*
X88564838Y-89835167D01*
X88706883Y-90178943D01*
X88739636Y-90211753D01*
X87559375Y-90211753D01*
X84610221Y-87262599D01*
X84363659Y-87097852D01*
X84072820Y-87040000D01*
X82662463Y-87040000D01*
X82630327Y-87007808D01*
X82286799Y-86865162D01*
X81914833Y-86864838D01*
X81571057Y-87006883D01*
X81307808Y-87269673D01*
X81165162Y-87613201D01*
X81164838Y-87985167D01*
X81253648Y-88200104D01*
X81165162Y-88413201D01*
X81164838Y-88785167D01*
X81253648Y-89000104D01*
X81165162Y-89213201D01*
X81164838Y-89585167D01*
X81253648Y-89800104D01*
X81165162Y-90013201D01*
X81164838Y-90385167D01*
X81253651Y-90600111D01*
X81165162Y-90813214D01*
X81164838Y-91185180D01*
X81306883Y-91528956D01*
X81569673Y-91792205D01*
X81913201Y-91934851D01*
X82285167Y-91935175D01*
X82628943Y-91793130D01*
X82662118Y-91760013D01*
X84385211Y-91760013D01*
X90764878Y-98139680D01*
X90764838Y-98185167D01*
X90906883Y-98528943D01*
X91169673Y-98792192D01*
X91373000Y-98876621D01*
X91373000Y-102350587D01*
X91113222Y-102350361D01*
X90769446Y-102492406D01*
X90701967Y-102559768D01*
X90659508Y-102568213D01*
X90734838Y-102386799D01*
X90735162Y-102014833D01*
X90593117Y-101671057D01*
X90330327Y-101407808D01*
X89986799Y-101265162D01*
X89614833Y-101264838D01*
X89271057Y-101406883D01*
X89237882Y-101440000D01*
X88827000Y-101440000D01*
X88827000Y-98400000D01*
X88818315Y-98353841D01*
X88791035Y-98311447D01*
X88749410Y-98283006D01*
X88700000Y-98273000D01*
X82100000Y-98273000D01*
X82053841Y-98281685D01*
X82011447Y-98308965D01*
X81983006Y-98350590D01*
X81973000Y-98400000D01*
X81973000Y-105148198D01*
X80435122Y-103610320D01*
X80435162Y-103564833D01*
X80293117Y-103221057D01*
X80030327Y-102957808D01*
X79686799Y-102815162D01*
X79314833Y-102814838D01*
X78971057Y-102956883D01*
X78707808Y-103219673D01*
X78565162Y-103563201D01*
X78564838Y-103935167D01*
X78706883Y-104278943D01*
X78969673Y-104542192D01*
X79313201Y-104684838D01*
X79360077Y-104684879D01*
X81665187Y-106989989D01*
X77587414Y-106989989D01*
X77286799Y-106865162D01*
X76985000Y-106864899D01*
X76985000Y-104000005D01*
X76985001Y-104000000D01*
X76924550Y-103696098D01*
X76917633Y-103661325D01*
X76725790Y-103374210D01*
X76725787Y-103374208D01*
X75842744Y-102491164D01*
X75793117Y-102371057D01*
X75530327Y-102107808D01*
X75186799Y-101965162D01*
X74860000Y-101964877D01*
X74860000Y-101914802D01*
X74914802Y-101860000D01*
X77000000Y-101860000D01*
X77290839Y-101802148D01*
X77537401Y-101637401D01*
X78437401Y-100737401D01*
X78602148Y-100490840D01*
X78660000Y-100200000D01*
X78660000Y-98562463D01*
X78692192Y-98530327D01*
X78834838Y-98186799D01*
X78835162Y-97814833D01*
X78693117Y-97471057D01*
X78430327Y-97207808D01*
X78086799Y-97065162D01*
X77714833Y-97064838D01*
X77371057Y-97206883D01*
X77107808Y-97469673D01*
X76965162Y-97813201D01*
X76964838Y-98185167D01*
X77106883Y-98528943D01*
X77140000Y-98562118D01*
X77140000Y-99885198D01*
X76685198Y-100340000D01*
X74600000Y-100340000D01*
X74309161Y-100397852D01*
X74062599Y-100562599D01*
X73562599Y-101062599D01*
X73397852Y-101309161D01*
X73340000Y-101600000D01*
X69020921Y-101600000D01*
X69319271Y-101153489D01*
X69433345Y-100580000D01*
X69319271Y-100006511D01*
X68994415Y-99520330D01*
X68684931Y-99313539D01*
X69100732Y-98942036D01*
X69354709Y-98414791D01*
X69357358Y-98399026D01*
X69245703Y-98185167D01*
X74264838Y-98185167D01*
X74406883Y-98528943D01*
X74669673Y-98792192D01*
X75013201Y-98934838D01*
X75385167Y-98935162D01*
X75728943Y-98793117D01*
X75992192Y-98530327D01*
X76042566Y-98409014D01*
X76625787Y-97825792D01*
X76625790Y-97825790D01*
X76817633Y-97538675D01*
X76818807Y-97532773D01*
X80275787Y-94075792D01*
X80275790Y-94075790D01*
X80467633Y-93788675D01*
X80467634Y-93788674D01*
X80535001Y-93450000D01*
X80535000Y-93449995D01*
X80535000Y-85670478D01*
X80645457Y-85560213D01*
X91549392Y-85560213D01*
X91618857Y-85802397D01*
X92142302Y-85989144D01*
X92697368Y-85961362D01*
X93081143Y-85802397D01*
X93150608Y-85560213D01*
X92350000Y-84759605D01*
X91549392Y-85560213D01*
X80645457Y-85560213D01*
X80833629Y-85372370D01*
X81046757Y-84859100D01*
X81047242Y-84303339D01*
X80835010Y-83789697D01*
X80442370Y-83396371D01*
X79929100Y-83183243D01*
X79373339Y-83182758D01*
X78859697Y-83394990D01*
X78466371Y-83787630D01*
X78253243Y-84300900D01*
X78252758Y-84856661D01*
X78464990Y-85370303D01*
X78765000Y-85670837D01*
X78765000Y-93083421D01*
X75374210Y-96474210D01*
X75182367Y-96761325D01*
X75182367Y-96761326D01*
X75181193Y-96767228D01*
X74791165Y-97157256D01*
X74671057Y-97206883D01*
X74407808Y-97469673D01*
X74265162Y-97813201D01*
X74264838Y-98185167D01*
X69245703Y-98185167D01*
X69236217Y-98167000D01*
X67877000Y-98167000D01*
X67877000Y-98187000D01*
X67623000Y-98187000D01*
X67623000Y-98167000D01*
X67603000Y-98167000D01*
X67603000Y-97913000D01*
X67623000Y-97913000D01*
X67623000Y-97893000D01*
X67877000Y-97893000D01*
X67877000Y-97913000D01*
X69236217Y-97913000D01*
X69357358Y-97680974D01*
X69354709Y-97665209D01*
X69100732Y-97137964D01*
X68684931Y-96766461D01*
X68994415Y-96559670D01*
X69319271Y-96073489D01*
X69433345Y-95500000D01*
X69319271Y-94926511D01*
X68994415Y-94440330D01*
X68760537Y-94284058D01*
X69148834Y-93896437D01*
X69400713Y-93289845D01*
X69401286Y-92633037D01*
X69150466Y-92026005D01*
X68686437Y-91561166D01*
X68079845Y-91309287D01*
X67423037Y-91308714D01*
X67168999Y-91413680D01*
X67168999Y-90660888D01*
X68119785Y-89710102D01*
X68165272Y-89710142D01*
X68509048Y-89568097D01*
X68772297Y-89305307D01*
X68914943Y-88961779D01*
X68915267Y-88589813D01*
X68815179Y-88347580D01*
X68892201Y-88162091D01*
X68892525Y-87790125D01*
X68750480Y-87446349D01*
X68739476Y-87435326D01*
X71787401Y-84387401D01*
X71952148Y-84140839D01*
X72010000Y-83850000D01*
X72010000Y-82812463D01*
X72042192Y-82780327D01*
X72184838Y-82436799D01*
X72185162Y-82064833D01*
X72043117Y-81721057D01*
X71780327Y-81457808D01*
X71436799Y-81315162D01*
X71064833Y-81314838D01*
X70721057Y-81456883D01*
X70460000Y-81717485D01*
X70460000Y-75626661D01*
X83602758Y-75626661D01*
X83814990Y-76140303D01*
X84207630Y-76533629D01*
X84720900Y-76746757D01*
X85276661Y-76747242D01*
X85790303Y-76535010D01*
X86183629Y-76142370D01*
X86396757Y-75629100D01*
X86397242Y-75073339D01*
X86185010Y-74559697D01*
X85792370Y-74166371D01*
X85279100Y-73953243D01*
X84723339Y-73952758D01*
X84209697Y-74164990D01*
X83816371Y-74557630D01*
X83603243Y-75070900D01*
X83602758Y-75626661D01*
X70460000Y-75626661D01*
X70460000Y-73777272D01*
X70482469Y-73485167D01*
X78564838Y-73485167D01*
X78706883Y-73828943D01*
X78969673Y-74092192D01*
X79313201Y-74234838D01*
X79685167Y-74235162D01*
X80028943Y-74093117D01*
X80292192Y-73830327D01*
X80434838Y-73486799D01*
X80434879Y-73439923D01*
X81814802Y-72060000D01*
X85937537Y-72060000D01*
X85969673Y-72092192D01*
X86313201Y-72234838D01*
X86685167Y-72235162D01*
X87028943Y-72093117D01*
X87292192Y-71830327D01*
X87434838Y-71486799D01*
X87435162Y-71114833D01*
X87293117Y-70771057D01*
X87030327Y-70507808D01*
X86686799Y-70365162D01*
X86314833Y-70364838D01*
X85971057Y-70506883D01*
X85937882Y-70540000D01*
X81500000Y-70540000D01*
X81257414Y-70588254D01*
X81209160Y-70597852D01*
X80962599Y-70762599D01*
X79360320Y-72364878D01*
X79314833Y-72364838D01*
X78971057Y-72506883D01*
X78707808Y-72769673D01*
X78565162Y-73113201D01*
X78564838Y-73485167D01*
X70482469Y-73485167D01*
X70705100Y-70590974D01*
X70898220Y-69528813D01*
X71188901Y-67978514D01*
X71565834Y-66847714D01*
X71906522Y-66020332D01*
X71907227Y-66016746D01*
X71909218Y-66013687D01*
X72900917Y-63534441D01*
X73619404Y-62021834D01*
X75264543Y-62021834D01*
X75664853Y-62990658D01*
X76405443Y-63732542D01*
X77373567Y-64134542D01*
X78421834Y-64135457D01*
X79390658Y-63735147D01*
X79996648Y-63130213D01*
X84199392Y-63130213D01*
X84268857Y-63372397D01*
X84792302Y-63559144D01*
X85347368Y-63531362D01*
X85731143Y-63372397D01*
X85800608Y-63130213D01*
X85000000Y-62329605D01*
X84199392Y-63130213D01*
X79996648Y-63130213D01*
X80132542Y-62994557D01*
X80534542Y-62026433D01*
X80534615Y-61942302D01*
X83590856Y-61942302D01*
X83618638Y-62497368D01*
X83777603Y-62881143D01*
X84019787Y-62950608D01*
X84820395Y-62150000D01*
X85179605Y-62150000D01*
X85980213Y-62950608D01*
X86222397Y-62881143D01*
X86409144Y-62357698D01*
X86381362Y-61802632D01*
X86222397Y-61418857D01*
X85980213Y-61349392D01*
X85179605Y-62150000D01*
X84820395Y-62150000D01*
X84019787Y-61349392D01*
X83777603Y-61418857D01*
X83590856Y-61942302D01*
X80534615Y-61942302D01*
X80535289Y-61169787D01*
X84199392Y-61169787D01*
X85000000Y-61970395D01*
X85800608Y-61169787D01*
X85733480Y-60935750D01*
X86765000Y-60935750D01*
X86765000Y-62276309D01*
X86861673Y-62509698D01*
X87040301Y-62688327D01*
X87273690Y-62785000D01*
X87714250Y-62785000D01*
X87873000Y-62626250D01*
X87873000Y-60777000D01*
X86923750Y-60777000D01*
X86765000Y-60935750D01*
X85733480Y-60935750D01*
X85731143Y-60927603D01*
X85207698Y-60740856D01*
X84652632Y-60768638D01*
X84268857Y-60927603D01*
X84199392Y-61169787D01*
X80535289Y-61169787D01*
X80535457Y-60978166D01*
X80135147Y-60009342D01*
X79394557Y-59267458D01*
X78426433Y-58865458D01*
X77378166Y-58864543D01*
X76409342Y-59264853D01*
X75667458Y-60005443D01*
X75265458Y-60973567D01*
X75264543Y-62021834D01*
X73619404Y-62021834D01*
X73832808Y-61572564D01*
X74413231Y-60508456D01*
X74877525Y-59765585D01*
X75526282Y-58977810D01*
X76997151Y-57506941D01*
X78268789Y-56284213D01*
X79231429Y-55514101D01*
X80506567Y-54582269D01*
X81073487Y-54204323D01*
X82102259Y-53616452D01*
X82120948Y-53600209D01*
X82143837Y-53590756D01*
X83623487Y-52604323D01*
X85352258Y-51616453D01*
X85367808Y-51602938D01*
X85386942Y-51595295D01*
X86376242Y-50952250D01*
X86865292Y-50658820D01*
X86889835Y-50636555D01*
X86919868Y-50622548D01*
X87648625Y-50088125D01*
X87973000Y-49885391D01*
X87973000Y-50490000D01*
X87872998Y-50490000D01*
X87872998Y-50648748D01*
X87714250Y-50490000D01*
X87373691Y-50490000D01*
X87140302Y-50586673D01*
X86961673Y-50765301D01*
X86865000Y-50998690D01*
X86865000Y-51464250D01*
X87023750Y-51623000D01*
X87873000Y-51623000D01*
X87873000Y-51603000D01*
X87973000Y-51603000D01*
X87973000Y-51897000D01*
X87873000Y-51897000D01*
X87873000Y-51877000D01*
X87023750Y-51877000D01*
X86865000Y-52035750D01*
X86865000Y-52501310D01*
X86961673Y-52734699D01*
X87140302Y-52913327D01*
X87373691Y-53010000D01*
X87714250Y-53010000D01*
X87872998Y-52851252D01*
X87872998Y-53010000D01*
X87973000Y-53010000D01*
X87973000Y-56490000D01*
X87872998Y-56490000D01*
X87872998Y-56648748D01*
X87714250Y-56490000D01*
X87373691Y-56490000D01*
X87140302Y-56586673D01*
X86961673Y-56765301D01*
X86865000Y-56998690D01*
X86865000Y-57464250D01*
X87023750Y-57623000D01*
X87873000Y-57623000D01*
X87873000Y-57603000D01*
X87973000Y-57603000D01*
X87973000Y-57897000D01*
X87873000Y-57897000D01*
X87873000Y-57877000D01*
X87023750Y-57877000D01*
X86865000Y-58035750D01*
X86865000Y-58501310D01*
X86948669Y-58703305D01*
X86861673Y-58790302D01*
X86765000Y-59023691D01*
X86765000Y-60364250D01*
X86923750Y-60523000D01*
X87873000Y-60523000D01*
X87873000Y-60503000D01*
X88127000Y-60503000D01*
X88127000Y-60523000D01*
X88147000Y-60523000D01*
X88147000Y-60777000D01*
X88127000Y-60777000D01*
X88127000Y-62626250D01*
X88285750Y-62785000D01*
X88726310Y-62785000D01*
X88959699Y-62688327D01*
X89001660Y-62646366D01*
X89148110Y-62746431D01*
X89400000Y-62797440D01*
X90600000Y-62797440D01*
X90835317Y-62753162D01*
X90999492Y-62647518D01*
X91040301Y-62688327D01*
X91273690Y-62785000D01*
X91714250Y-62785000D01*
X91873000Y-62626250D01*
X91873000Y-60777000D01*
X91853000Y-60777000D01*
X91853000Y-60523000D01*
X91873000Y-60523000D01*
X91873000Y-60503000D01*
X92127000Y-60503000D01*
X92127000Y-60523000D01*
X92147000Y-60523000D01*
X92147000Y-60777000D01*
X92127000Y-60777000D01*
X92127000Y-62626250D01*
X92285750Y-62785000D01*
X92726310Y-62785000D01*
X92959699Y-62688327D01*
X93001660Y-62646366D01*
X93148110Y-62746431D01*
X93400000Y-62797440D01*
X94172638Y-62797440D01*
X94912599Y-63537401D01*
X95159161Y-63702148D01*
X95450000Y-63760000D01*
X96185198Y-63760000D01*
X96564878Y-64139680D01*
X96564838Y-64185167D01*
X96706883Y-64528943D01*
X96969673Y-64792192D01*
X97313201Y-64934838D01*
X97685167Y-64935162D01*
X98000351Y-64804931D01*
X98313201Y-64934838D01*
X98685167Y-64935162D01*
X99000351Y-64804931D01*
X99313201Y-64934838D01*
X99685167Y-64935162D01*
X99950228Y-64825641D01*
X100213201Y-64934838D01*
X100585167Y-64935162D01*
X100928943Y-64793117D01*
X101192192Y-64530327D01*
X101334838Y-64186799D01*
X101335162Y-63814833D01*
X101193117Y-63471057D01*
X100930327Y-63207808D01*
X100760000Y-63137082D01*
X100760000Y-62767334D01*
X100835317Y-62753162D01*
X101001477Y-62646241D01*
X101148110Y-62746431D01*
X101400000Y-62797440D01*
X102600000Y-62797440D01*
X102835317Y-62753162D01*
X103051441Y-62614090D01*
X103196431Y-62401890D01*
X103247440Y-62150000D01*
X103247440Y-62021834D01*
X108864543Y-62021834D01*
X109264853Y-62990658D01*
X110005443Y-63732542D01*
X110973567Y-64134542D01*
X112021834Y-64135457D01*
X112990658Y-63735147D01*
X113732542Y-62994557D01*
X114134542Y-62026433D01*
X114135457Y-60978166D01*
X113735147Y-60009342D01*
X112994557Y-59267458D01*
X112026433Y-58865458D01*
X110978166Y-58864543D01*
X110009342Y-59264853D01*
X109267458Y-60005443D01*
X108865458Y-60973567D01*
X108864543Y-62021834D01*
X103247440Y-62021834D01*
X103247440Y-59150000D01*
X103203162Y-58914683D01*
X103064090Y-58698559D01*
X102851890Y-58553569D01*
X102600000Y-58502560D01*
X101400000Y-58502560D01*
X101164683Y-58546838D01*
X100998523Y-58653759D01*
X100851890Y-58553569D01*
X100600000Y-58502560D01*
X99400000Y-58502560D01*
X99164683Y-58546838D01*
X98998523Y-58653759D01*
X98851890Y-58553569D01*
X98600000Y-58502560D01*
X97400000Y-58502560D01*
X97164683Y-58546838D01*
X96998523Y-58653759D01*
X96851890Y-58553569D01*
X96600000Y-58502560D01*
X95400000Y-58502560D01*
X95164683Y-58546838D01*
X94998523Y-58653759D01*
X94851890Y-58553569D01*
X94600000Y-58502560D01*
X93400000Y-58502560D01*
X93164683Y-58546838D01*
X93000508Y-58652482D01*
X92959699Y-58611673D01*
X92726310Y-58515000D01*
X92285750Y-58515000D01*
X92127002Y-58673748D01*
X92127002Y-58515000D01*
X92127000Y-58515000D01*
X92127000Y-56092035D01*
X92685357Y-56071361D01*
X93173938Y-55868985D01*
X93272537Y-55602183D01*
X92397355Y-54727000D01*
X92756565Y-54727000D01*
X93452143Y-55422577D01*
X93718945Y-55323978D01*
X93940714Y-54727000D01*
X96074665Y-54727000D01*
X96078679Y-54835397D01*
X96281055Y-55323978D01*
X96547857Y-55422577D01*
X97243435Y-54727000D01*
X97602645Y-54727000D01*
X96727463Y-55602183D01*
X96826062Y-55868985D01*
X97435602Y-56095421D01*
X98085397Y-56071361D01*
X98573978Y-55868985D01*
X98672577Y-55602183D01*
X97772050Y-54701655D01*
X97788553Y-54691035D01*
X97816994Y-54649410D01*
X97827000Y-54600000D01*
X97827000Y-54450020D01*
X97879625Y-54450020D01*
X98852183Y-55422577D01*
X99118985Y-55323978D01*
X99345421Y-54714438D01*
X99321361Y-54064643D01*
X99118985Y-53576062D01*
X98852183Y-53477463D01*
X97879625Y-54450020D01*
X97827000Y-54450020D01*
X97827000Y-54143435D01*
X98672577Y-53297857D01*
X98573978Y-53031055D01*
X97964438Y-52804619D01*
X97827000Y-52809708D01*
X97827000Y-50680889D01*
X98085397Y-50671321D01*
X98573978Y-50468945D01*
X98672577Y-50202143D01*
X97827000Y-49356565D01*
X97827000Y-49000000D01*
X97819317Y-48961387D01*
X97893768Y-49035838D01*
X97879625Y-49049980D01*
X98852183Y-50022537D01*
X99118985Y-49923938D01*
X99345421Y-49314398D01*
X99331139Y-48928668D01*
X100339706Y-49462616D01*
G36*
X80064838Y-108585167D02*
X80206883Y-108928943D01*
X80469673Y-109192192D01*
X80813201Y-109334838D01*
X81185167Y-109335162D01*
X81306569Y-109285000D01*
X89533420Y-109285000D01*
X89615000Y-109366579D01*
X89615000Y-111829290D01*
X89566005Y-111849534D01*
X89212152Y-112202771D01*
X88824818Y-111843615D01*
X88342944Y-111644025D01*
X88087000Y-111763164D01*
X88087000Y-113123000D01*
X88107000Y-113123000D01*
X88107000Y-113377000D01*
X88087000Y-113377000D01*
X88087000Y-114736836D01*
X88342944Y-114855975D01*
X88824818Y-114656385D01*
X89212369Y-114297027D01*
X89563563Y-114648834D01*
X90170155Y-114900713D01*
X90826963Y-114901286D01*
X91373000Y-114675669D01*
X91373000Y-121815000D01*
X78266579Y-121815000D01*
X77325768Y-120874188D01*
X80205417Y-120874188D01*
X80267071Y-121109800D01*
X80767480Y-121285927D01*
X81297199Y-121257148D01*
X81652929Y-121109800D01*
X81714583Y-120874188D01*
X80960000Y-120119605D01*
X80205417Y-120874188D01*
X77325768Y-120874188D01*
X76985000Y-120533420D01*
X76985000Y-119747480D01*
X79614073Y-119747480D01*
X79642852Y-120277199D01*
X79790200Y-120632929D01*
X80025812Y-120694583D01*
X80780395Y-119940000D01*
X81139605Y-119940000D01*
X81894188Y-120694583D01*
X82129800Y-120632929D01*
X82280738Y-120204086D01*
X84706269Y-120204086D01*
X84908854Y-120694380D01*
X85283647Y-121069827D01*
X85773587Y-121273268D01*
X86304086Y-121273731D01*
X86794380Y-121071146D01*
X87169827Y-120696353D01*
X87373268Y-120206413D01*
X87373731Y-119675914D01*
X87171146Y-119185620D01*
X86796353Y-118810173D01*
X86306413Y-118606732D01*
X85775914Y-118606269D01*
X85285620Y-118808854D01*
X84910173Y-119183647D01*
X84706732Y-119673587D01*
X84706269Y-120204086D01*
X82280738Y-120204086D01*
X82305927Y-120132520D01*
X82277148Y-119602801D01*
X82129800Y-119247071D01*
X81894188Y-119185417D01*
X81139605Y-119940000D01*
X80780395Y-119940000D01*
X80025812Y-119185417D01*
X79790200Y-119247071D01*
X79614073Y-119747480D01*
X76985000Y-119747480D01*
X76985000Y-119005812D01*
X80205417Y-119005812D01*
X80960000Y-119760395D01*
X81714583Y-119005812D01*
X81652929Y-118770200D01*
X81152520Y-118594073D01*
X80622801Y-118622852D01*
X80267071Y-118770200D01*
X80205417Y-119005812D01*
X76985000Y-119005812D01*
X76985000Y-113632946D01*
X86354017Y-113632946D01*
X86622812Y-114218379D01*
X87095182Y-114656385D01*
X87577056Y-114855975D01*
X87833000Y-114736836D01*
X87833000Y-113377000D01*
X86472633Y-113377000D01*
X86354017Y-113632946D01*
X76985000Y-113632946D01*
X76985000Y-112867054D01*
X86354017Y-112867054D01*
X86472633Y-113123000D01*
X87833000Y-113123000D01*
X87833000Y-111763164D01*
X87577056Y-111644025D01*
X87095182Y-111843615D01*
X86622812Y-112281621D01*
X86354017Y-112867054D01*
X76985000Y-112867054D01*
X76985000Y-108734901D01*
X77285167Y-108735162D01*
X77628943Y-108593117D01*
X77712216Y-108509989D01*
X80064903Y-108509989D01*
X80064838Y-108585167D01*
X80064838Y-108585167D01*
G37*
X80064838Y-108585167D02*
X80206883Y-108928943D01*
X80469673Y-109192192D01*
X80813201Y-109334838D01*
X81185167Y-109335162D01*
X81306569Y-109285000D01*
X89533420Y-109285000D01*
X89615000Y-109366579D01*
X89615000Y-111829290D01*
X89566005Y-111849534D01*
X89212152Y-112202771D01*
X88824818Y-111843615D01*
X88342944Y-111644025D01*
X88087000Y-111763164D01*
X88087000Y-113123000D01*
X88107000Y-113123000D01*
X88107000Y-113377000D01*
X88087000Y-113377000D01*
X88087000Y-114736836D01*
X88342944Y-114855975D01*
X88824818Y-114656385D01*
X89212369Y-114297027D01*
X89563563Y-114648834D01*
X90170155Y-114900713D01*
X90826963Y-114901286D01*
X91373000Y-114675669D01*
X91373000Y-121815000D01*
X78266579Y-121815000D01*
X77325768Y-120874188D01*
X80205417Y-120874188D01*
X80267071Y-121109800D01*
X80767480Y-121285927D01*
X81297199Y-121257148D01*
X81652929Y-121109800D01*
X81714583Y-120874188D01*
X80960000Y-120119605D01*
X80205417Y-120874188D01*
X77325768Y-120874188D01*
X76985000Y-120533420D01*
X76985000Y-119747480D01*
X79614073Y-119747480D01*
X79642852Y-120277199D01*
X79790200Y-120632929D01*
X80025812Y-120694583D01*
X80780395Y-119940000D01*
X81139605Y-119940000D01*
X81894188Y-120694583D01*
X82129800Y-120632929D01*
X82280738Y-120204086D01*
X84706269Y-120204086D01*
X84908854Y-120694380D01*
X85283647Y-121069827D01*
X85773587Y-121273268D01*
X86304086Y-121273731D01*
X86794380Y-121071146D01*
X87169827Y-120696353D01*
X87373268Y-120206413D01*
X87373731Y-119675914D01*
X87171146Y-119185620D01*
X86796353Y-118810173D01*
X86306413Y-118606732D01*
X85775914Y-118606269D01*
X85285620Y-118808854D01*
X84910173Y-119183647D01*
X84706732Y-119673587D01*
X84706269Y-120204086D01*
X82280738Y-120204086D01*
X82305927Y-120132520D01*
X82277148Y-119602801D01*
X82129800Y-119247071D01*
X81894188Y-119185417D01*
X81139605Y-119940000D01*
X80780395Y-119940000D01*
X80025812Y-119185417D01*
X79790200Y-119247071D01*
X79614073Y-119747480D01*
X76985000Y-119747480D01*
X76985000Y-119005812D01*
X80205417Y-119005812D01*
X80960000Y-119760395D01*
X81714583Y-119005812D01*
X81652929Y-118770200D01*
X81152520Y-118594073D01*
X80622801Y-118622852D01*
X80267071Y-118770200D01*
X80205417Y-119005812D01*
X76985000Y-119005812D01*
X76985000Y-113632946D01*
X86354017Y-113632946D01*
X86622812Y-114218379D01*
X87095182Y-114656385D01*
X87577056Y-114855975D01*
X87833000Y-114736836D01*
X87833000Y-113377000D01*
X86472633Y-113377000D01*
X86354017Y-113632946D01*
X76985000Y-113632946D01*
X76985000Y-112867054D01*
X86354017Y-112867054D01*
X86472633Y-113123000D01*
X87833000Y-113123000D01*
X87833000Y-111763164D01*
X87577056Y-111644025D01*
X87095182Y-111843615D01*
X86622812Y-112281621D01*
X86354017Y-112867054D01*
X76985000Y-112867054D01*
X76985000Y-108734901D01*
X77285167Y-108735162D01*
X77628943Y-108593117D01*
X77712216Y-108509989D01*
X80064903Y-108509989D01*
X80064838Y-108585167D01*
G36*
X90654579Y-48785562D02*
X90663244Y-49019572D01*
X89313313Y-49047696D01*
X89579935Y-48881056D01*
X90815877Y-48351367D01*
X90654579Y-48785562D01*
X90654579Y-48785562D01*
G37*
X90654579Y-48785562D02*
X90663244Y-49019572D01*
X89313313Y-49047696D01*
X89579935Y-48881056D01*
X90815877Y-48351367D01*
X90654579Y-48785562D01*
M02*
