M48
;DRILL file {KiCad 4.0.2+e4-6225~38~ubuntu16.04.1-stable} date Wed 15 Jun 2016 08:19:07 PM PDT
;FORMAT={-:-/ absolute / inch / decimal}
FMAT,2
INCH,TZ
T1C0.016
T2C0.030
T3C0.032
T4C0.039
T5C0.040
T6C0.049
T7C0.059
T8C0.063
%
G90
G05
M72
T1
X2.5522Y-3.6162
X2.6755Y-3.4636
X2.6764Y-3.4951
X2.8051Y-3.2382
X2.8278Y-4.6703
X2.8307Y-4.5039
X2.8642Y-5.4626
X2.8661Y-5.6614
X2.9252Y-2.811
X2.9252Y-2.9685
X2.9252Y-5.626
X2.9528Y-4.0512
X2.9577Y-4.5295
X2.9606Y-3.8583
X3.0157Y-3.9252
X3.0236Y-4.0394
X3.0354Y-4.2441
X3.0413Y-3.6909
X3.0512Y-4.6339
X3.0669Y-3.8583
X3.0866Y-5.5945
X3.0906Y-4.2126
X3.122Y-4.5748
X3.1299Y-2.8858
X3.1299Y-4.0846
X3.1299Y-4.1437
X3.1496Y-5.5276
X3.1558Y-2.8251
X3.189Y-4.2677
X3.2205Y-2.7717
X3.2323Y-3.4567
X3.2323Y-3.4882
X3.2323Y-3.5197
X3.2323Y-3.5512
X3.2323Y-3.5827
X3.2677Y-4.1575
X3.2972Y-3.8091
X3.3268Y-4.0787
X3.3543Y-3.7598
X3.4055Y-1.9921
X3.4055Y-2.0551
X3.4055Y-2.1339
X3.4055Y-2.189
X3.4055Y-2.2441
X3.4055Y-2.3071
X3.4055Y-2.3701
X3.4055Y-2.4252
X3.4055Y-2.8071
X3.4134Y-2.4803
X3.4154Y-3.0906
X3.4213Y-4.0906
X3.4409Y-5.6575
X3.4449Y-1.9764
X3.4449Y-3.7598
X3.4542Y-3.3656
X3.4685Y-2.4961
X3.4774Y-3.6906
X3.4818Y-3.6594
X3.4866Y-3.8437
X3.4921Y-1.9449
X3.493Y-4.8681
X3.4961Y-3.937
X3.5118Y-5.5512
X3.5213Y-2.4961
X3.5236Y-3.4862
X3.5236Y-3.5295
X3.5276Y-3.874
X3.5354Y-4.0236
X3.5354Y-4.0669
X3.5551Y-1.9213
X3.563Y-5.2717
X3.574Y-2.4961
X3.5912Y-4.1033
X3.5925Y-3.2677
X3.5925Y-3.4055
X3.5925Y-3.4843
X3.5944Y-4.0664
X3.6066Y-2.8967
X3.6101Y-2.9459
X3.6102Y-2.9921
X3.6102Y-3.8583
X3.626Y-4.8307
X3.6268Y-2.4961
X3.6339Y-4.126
X3.6387Y-3.6136
X3.6417Y-2.2756
X3.6429Y-3.8374
X3.6575Y-2.2362
X3.6644Y-3.7761
X3.6731Y-3.4162
X3.6795Y-2.4961
X3.689Y-3.9213
X3.7016Y-2.2756
X3.7106Y-5.315
X3.7283Y-2.2362
X3.7283Y-3.7244
X3.7303Y-3.9173
X3.7614Y-2.2756
X3.7618Y-3.9173
X3.7894Y-5.2657
X3.7913Y-2.2362
X3.7913Y-2.9606
X3.7923Y-3.9606
X3.7992Y-3.9134
X3.8071Y-3.3937
X3.8213Y-2.2756
X3.8307Y-3.9134
X3.8327Y-3.4587
X3.8386Y-2.5197
X3.8465Y-2.2362
X3.8465Y-2.7825
X3.8465Y-2.9055
X3.8465Y-3.2756
X3.8465Y-3.3622
X3.8553Y-3.8506
X3.8611Y-3.8816
X3.8711Y-3.3307
X3.878Y-2.5197
X3.878Y-2.7825
X3.878Y-2.874
X3.8811Y-2.2756
X3.8898Y-5.1102
X3.9094Y-2.2362
X3.9094Y-2.9055
X3.9173Y-1.9213
X3.9173Y-2.5197
X3.9173Y-2.7825
X3.9272Y-3.6614
X3.937Y-3.5335
X3.9409Y-1.9528
X3.9409Y-2.0236
X3.9409Y-2.0787
X3.9409Y-2.1417
X3.9409Y-2.1969
X3.9409Y-2.2756
X3.9409Y-4.0079
X3.9528Y-2.5197
X3.9528Y-2.7825
X3.9528Y-2.9606
X3.9567Y-3.9606
X3.9616Y-3.8583
X3.9685Y-5.5512
X3.9843Y-2.9882
X3.9863Y-3.7805
X3.9941Y-4.2956
X4.0039Y-5.1102
X4.0118Y-5.0472
X4.0256Y-3.4282
X4.0472Y-5.6614
X4.074Y-4.0846
X4.0748Y-4.1654
X4.0748Y-4.3583
X4.1043Y-3.7106
X4.1063Y-3.4488
X4.1076Y-3.5928
X4.1142Y-4.1614
X4.1147Y-4.3547
X4.124Y-3.878
X4.1378Y-3.4488
X4.1378Y-3.6142
X4.1535Y-3.3957
X4.1732Y-2.8071
X4.1772Y-3.4567
X4.2008Y-3.9843
X4.2362Y-2.7717
X4.2421Y-3.6909
X4.2618Y-3.9272
X4.2618Y-4.0453
X4.2913Y-3.6417
X4.2992Y-5.5276
X4.3209Y-3.7894
X4.3268Y-2.8898
X4.3324Y-3.358
X4.3425Y-4.5118
X4.3898Y-2.9685
X4.3976Y-3.3465
X4.3976Y-5.6299
X4.4291Y-3.1457
X4.4606Y-2.7047
X4.4606Y-3.4173
X4.4764Y-5.5039
X4.4882Y-4.3209
X4.4882Y-4.498
X4.5097Y-4.127
X4.5354Y-5.3858
X4.5571Y-4.5768
X4.5669Y-5.6004
X4.5787Y-2.8898
X4.6102Y-3.4567
X4.6102Y-4.5118
X4.6336Y-4.2753
X4.6337Y-4.1488
X4.6338Y-4.0861
X4.6339Y-4.1811
X4.6339Y-4.3106
X4.636Y-4.2438
X4.6365Y-4.1174
X4.6375Y-4.2124
X4.6654Y-3.0354
X4.6654Y-3.4961
T2
X3.3465Y-2.4469
X3.3465Y-2.9665
T3
X2.8823Y-4.9287
X2.8823Y-5.2287
X3.0823Y-4.9287
X3.0823Y-5.2287
X3.1874Y-4.722
X3.1874Y-5.022
X3.1874Y-5.1059
X3.1874Y-5.4059
X3.3874Y-4.722
X3.3874Y-5.022
X3.3874Y-5.1059
X3.3874Y-5.4059
X3.4728Y-4.9287
X3.4728Y-5.2287
X3.6728Y-4.9287
X3.6728Y-5.2287
X4.3094Y-4.9287
X4.3094Y-5.2287
X4.5094Y-4.9287
X4.5094Y-5.2287
T4
X3.1358Y-3.3299
X3.6024Y-5.5756
X3.6358Y-3.3299
X3.7008Y-5.5756
X3.7795Y-5.5756
X3.878Y-5.5756
T5
X2.374Y-3.9094
X2.4173Y-3.6339
X2.437Y-4.189
X2.5866Y-3.4331
X2.6142Y-4.3819
X2.6673Y-3.6598
X2.6673Y-3.7598
X2.6673Y-3.8598
X2.6673Y-3.9598
X2.6673Y-4.0598
X3.4354Y-3.2087
X3.463Y-4.4587
X3.5354Y-3.2087
X3.563Y-4.4587
X3.6354Y-3.2087
X3.7354Y-3.2087
X3.8354Y-3.2087
X3.9173Y-4.4587
X3.9354Y-3.2087
X4.0173Y-4.4587
X4.0354Y-3.2087
X4.5768Y-3.0398
X4.5768Y-3.1398
X4.5768Y-3.2398
X4.7441Y-3.6091
X4.7441Y-3.7091
X4.7441Y-3.8091
X4.7441Y-3.9091
X4.7441Y-4.0091
X4.7441Y-4.1091
X4.7835Y-4.3799
X4.8228Y-3.435
X4.9606Y-4.2323
X4.9902Y-3.5925
X5.0689Y-3.7894
X5.0689Y-4.0354
T7
X3.7402Y-2.0374
T8
X3.6339Y-1.9311
X3.6339Y-2.1437
X3.8465Y-1.9311
X3.8465Y-2.1437
T6
X3.5098Y-5.6978G85X3.5098Y-5.6211
G05
X3.9705Y-5.6978G85X3.9705Y-5.6211
G05
T0
M30
