G04 #@! TF.FileFunction,Paste,Top*
%FSLAX46Y46*%
G04 Gerber Fmt 4.6, Leading zero omitted, Abs format (unit mm)*
G04 Created by KiCad (PCBNEW 4.0.2+e4-6225~38~ubuntu16.04.1-stable) date Wed 15 Jun 2016 08:19:12 PM PDT*
%MOMM*%
G01*
G04 APERTURE LIST*
%ADD10C,0.100000*%
%ADD11R,1.250000X1.000000*%
%ADD12R,1.000000X1.250000*%
%ADD13R,1.700000X0.650000*%
%ADD14R,1.060000X0.650000*%
%ADD15R,1.300000X0.700000*%
%ADD16R,1.198880X1.198880*%
%ADD17R,1.400000X1.800000*%
%ADD18R,0.700000X1.300000*%
%ADD19R,0.650000X0.800000*%
%ADD20R,1.300000X2.000000*%
%ADD21R,1.100000X1.300000*%
G04 APERTURE END LIST*
D10*
D11*
X112000000Y-113750000D03*
X112000000Y-115750000D03*
D10*
G36*
X89608311Y-99658921D02*
X89431534Y-99482144D01*
X90350773Y-98562905D01*
X90527550Y-98739682D01*
X89608311Y-99658921D01*
X89608311Y-99658921D01*
G37*
G36*
X89961864Y-100012474D02*
X89785087Y-99835697D01*
X90704326Y-98916458D01*
X90881103Y-99093235D01*
X89961864Y-100012474D01*
X89961864Y-100012474D01*
G37*
G36*
X90315418Y-100366028D02*
X90138641Y-100189251D01*
X91057880Y-99270012D01*
X91234657Y-99446789D01*
X90315418Y-100366028D01*
X90315418Y-100366028D01*
G37*
G36*
X90668971Y-100719581D02*
X90492194Y-100542804D01*
X91411433Y-99623565D01*
X91588210Y-99800342D01*
X90668971Y-100719581D01*
X90668971Y-100719581D01*
G37*
G36*
X91022524Y-101073134D02*
X90845747Y-100896357D01*
X91764986Y-99977118D01*
X91941763Y-100153895D01*
X91022524Y-101073134D01*
X91022524Y-101073134D01*
G37*
G36*
X91376078Y-101426688D02*
X91199301Y-101249911D01*
X92118540Y-100330672D01*
X92295317Y-100507449D01*
X91376078Y-101426688D01*
X91376078Y-101426688D01*
G37*
G36*
X91729631Y-101780241D02*
X91552854Y-101603464D01*
X92472093Y-100684225D01*
X92648870Y-100861002D01*
X91729631Y-101780241D01*
X91729631Y-101780241D01*
G37*
G36*
X92083185Y-102133795D02*
X91906408Y-101957018D01*
X92825647Y-101037779D01*
X93002424Y-101214556D01*
X92083185Y-102133795D01*
X92083185Y-102133795D01*
G37*
G36*
X92436738Y-102487348D02*
X92259961Y-102310571D01*
X93179200Y-101391332D01*
X93355977Y-101568109D01*
X92436738Y-102487348D01*
X92436738Y-102487348D01*
G37*
G36*
X92790291Y-102840901D02*
X92613514Y-102664124D01*
X93532753Y-101744885D01*
X93709530Y-101921662D01*
X92790291Y-102840901D01*
X92790291Y-102840901D01*
G37*
G36*
X93143845Y-103194455D02*
X92967068Y-103017678D01*
X93886307Y-102098439D01*
X94063084Y-102275216D01*
X93143845Y-103194455D01*
X93143845Y-103194455D01*
G37*
G36*
X93497398Y-103548008D02*
X93320621Y-103371231D01*
X94239860Y-102451992D01*
X94416637Y-102628769D01*
X93497398Y-103548008D01*
X93497398Y-103548008D01*
G37*
G36*
X96679379Y-103371231D02*
X96502602Y-103548008D01*
X95583363Y-102628769D01*
X95760140Y-102451992D01*
X96679379Y-103371231D01*
X96679379Y-103371231D01*
G37*
G36*
X97032932Y-103017678D02*
X96856155Y-103194455D01*
X95936916Y-102275216D01*
X96113693Y-102098439D01*
X97032932Y-103017678D01*
X97032932Y-103017678D01*
G37*
G36*
X97386486Y-102664124D02*
X97209709Y-102840901D01*
X96290470Y-101921662D01*
X96467247Y-101744885D01*
X97386486Y-102664124D01*
X97386486Y-102664124D01*
G37*
G36*
X97740039Y-102310571D02*
X97563262Y-102487348D01*
X96644023Y-101568109D01*
X96820800Y-101391332D01*
X97740039Y-102310571D01*
X97740039Y-102310571D01*
G37*
G36*
X98093592Y-101957018D02*
X97916815Y-102133795D01*
X96997576Y-101214556D01*
X97174353Y-101037779D01*
X98093592Y-101957018D01*
X98093592Y-101957018D01*
G37*
G36*
X98447146Y-101603464D02*
X98270369Y-101780241D01*
X97351130Y-100861002D01*
X97527907Y-100684225D01*
X98447146Y-101603464D01*
X98447146Y-101603464D01*
G37*
G36*
X98800699Y-101249911D02*
X98623922Y-101426688D01*
X97704683Y-100507449D01*
X97881460Y-100330672D01*
X98800699Y-101249911D01*
X98800699Y-101249911D01*
G37*
G36*
X99154253Y-100896357D02*
X98977476Y-101073134D01*
X98058237Y-100153895D01*
X98235014Y-99977118D01*
X99154253Y-100896357D01*
X99154253Y-100896357D01*
G37*
G36*
X99507806Y-100542804D02*
X99331029Y-100719581D01*
X98411790Y-99800342D01*
X98588567Y-99623565D01*
X99507806Y-100542804D01*
X99507806Y-100542804D01*
G37*
G36*
X99861359Y-100189251D02*
X99684582Y-100366028D01*
X98765343Y-99446789D01*
X98942120Y-99270012D01*
X99861359Y-100189251D01*
X99861359Y-100189251D01*
G37*
G36*
X100214913Y-99835697D02*
X100038136Y-100012474D01*
X99118897Y-99093235D01*
X99295674Y-98916458D01*
X100214913Y-99835697D01*
X100214913Y-99835697D01*
G37*
G36*
X100568466Y-99482144D02*
X100391689Y-99658921D01*
X99472450Y-98739682D01*
X99649227Y-98562905D01*
X100568466Y-99482144D01*
X100568466Y-99482144D01*
G37*
G36*
X99649227Y-97396179D02*
X99472450Y-97219402D01*
X100391689Y-96300163D01*
X100568466Y-96476940D01*
X99649227Y-97396179D01*
X99649227Y-97396179D01*
G37*
G36*
X99295674Y-97042626D02*
X99118897Y-96865849D01*
X100038136Y-95946610D01*
X100214913Y-96123387D01*
X99295674Y-97042626D01*
X99295674Y-97042626D01*
G37*
G36*
X98942120Y-96689072D02*
X98765343Y-96512295D01*
X99684582Y-95593056D01*
X99861359Y-95769833D01*
X98942120Y-96689072D01*
X98942120Y-96689072D01*
G37*
G36*
X98588567Y-96335519D02*
X98411790Y-96158742D01*
X99331029Y-95239503D01*
X99507806Y-95416280D01*
X98588567Y-96335519D01*
X98588567Y-96335519D01*
G37*
G36*
X98235014Y-95981966D02*
X98058237Y-95805189D01*
X98977476Y-94885950D01*
X99154253Y-95062727D01*
X98235014Y-95981966D01*
X98235014Y-95981966D01*
G37*
G36*
X97881460Y-95628412D02*
X97704683Y-95451635D01*
X98623922Y-94532396D01*
X98800699Y-94709173D01*
X97881460Y-95628412D01*
X97881460Y-95628412D01*
G37*
G36*
X97527907Y-95274859D02*
X97351130Y-95098082D01*
X98270369Y-94178843D01*
X98447146Y-94355620D01*
X97527907Y-95274859D01*
X97527907Y-95274859D01*
G37*
G36*
X97174353Y-94921305D02*
X96997576Y-94744528D01*
X97916815Y-93825289D01*
X98093592Y-94002066D01*
X97174353Y-94921305D01*
X97174353Y-94921305D01*
G37*
G36*
X96820800Y-94567752D02*
X96644023Y-94390975D01*
X97563262Y-93471736D01*
X97740039Y-93648513D01*
X96820800Y-94567752D01*
X96820800Y-94567752D01*
G37*
G36*
X96467247Y-94214199D02*
X96290470Y-94037422D01*
X97209709Y-93118183D01*
X97386486Y-93294960D01*
X96467247Y-94214199D01*
X96467247Y-94214199D01*
G37*
G36*
X96113693Y-93860645D02*
X95936916Y-93683868D01*
X96856155Y-92764629D01*
X97032932Y-92941406D01*
X96113693Y-93860645D01*
X96113693Y-93860645D01*
G37*
G36*
X95760140Y-93507092D02*
X95583363Y-93330315D01*
X96502602Y-92411076D01*
X96679379Y-92587853D01*
X95760140Y-93507092D01*
X95760140Y-93507092D01*
G37*
G36*
X94416637Y-93330315D02*
X94239860Y-93507092D01*
X93320621Y-92587853D01*
X93497398Y-92411076D01*
X94416637Y-93330315D01*
X94416637Y-93330315D01*
G37*
G36*
X94063084Y-93683868D02*
X93886307Y-93860645D01*
X92967068Y-92941406D01*
X93143845Y-92764629D01*
X94063084Y-93683868D01*
X94063084Y-93683868D01*
G37*
G36*
X93709530Y-94037422D02*
X93532753Y-94214199D01*
X92613514Y-93294960D01*
X92790291Y-93118183D01*
X93709530Y-94037422D01*
X93709530Y-94037422D01*
G37*
G36*
X93355977Y-94390975D02*
X93179200Y-94567752D01*
X92259961Y-93648513D01*
X92436738Y-93471736D01*
X93355977Y-94390975D01*
X93355977Y-94390975D01*
G37*
G36*
X93002424Y-94744528D02*
X92825647Y-94921305D01*
X91906408Y-94002066D01*
X92083185Y-93825289D01*
X93002424Y-94744528D01*
X93002424Y-94744528D01*
G37*
G36*
X92648870Y-95098082D02*
X92472093Y-95274859D01*
X91552854Y-94355620D01*
X91729631Y-94178843D01*
X92648870Y-95098082D01*
X92648870Y-95098082D01*
G37*
G36*
X92295317Y-95451635D02*
X92118540Y-95628412D01*
X91199301Y-94709173D01*
X91376078Y-94532396D01*
X92295317Y-95451635D01*
X92295317Y-95451635D01*
G37*
G36*
X91941763Y-95805189D02*
X91764986Y-95981966D01*
X90845747Y-95062727D01*
X91022524Y-94885950D01*
X91941763Y-95805189D01*
X91941763Y-95805189D01*
G37*
G36*
X91588210Y-96158742D02*
X91411433Y-96335519D01*
X90492194Y-95416280D01*
X90668971Y-95239503D01*
X91588210Y-96158742D01*
X91588210Y-96158742D01*
G37*
G36*
X91234657Y-96512295D02*
X91057880Y-96689072D01*
X90138641Y-95769833D01*
X90315418Y-95593056D01*
X91234657Y-96512295D01*
X91234657Y-96512295D01*
G37*
G36*
X90881103Y-96865849D02*
X90704326Y-97042626D01*
X89785087Y-96123387D01*
X89961864Y-95946610D01*
X90881103Y-96865849D01*
X90881103Y-96865849D01*
G37*
G36*
X90527550Y-97219402D02*
X90350773Y-97396179D01*
X89431534Y-96476940D01*
X89608311Y-96300163D01*
X90527550Y-97219402D01*
X90527550Y-97219402D01*
G37*
D12*
X98400000Y-128200000D03*
X100400000Y-128200000D03*
D11*
X85250000Y-98750000D03*
X85250000Y-96750000D03*
D12*
X82000000Y-107000000D03*
X80000000Y-107000000D03*
X96000000Y-105750000D03*
X94000000Y-105750000D03*
D11*
X102500000Y-99000000D03*
X102500000Y-97000000D03*
X80200000Y-68400000D03*
X80200000Y-70400000D03*
D12*
X88000000Y-75250000D03*
X90000000Y-75250000D03*
X96000000Y-90750000D03*
X94000000Y-90750000D03*
D11*
X87500000Y-98750000D03*
X87500000Y-96750000D03*
D12*
X80500000Y-93750000D03*
X78500000Y-93750000D03*
X111000000Y-93750000D03*
X109000000Y-93750000D03*
D11*
X77500000Y-114200000D03*
X77500000Y-116200000D03*
X111000000Y-138400000D03*
X111000000Y-140400000D03*
X109100000Y-68400000D03*
X109100000Y-70400000D03*
D13*
X100100000Y-84595000D03*
X100100000Y-85865000D03*
X100100000Y-87135000D03*
X100100000Y-88405000D03*
X107400000Y-88405000D03*
X107400000Y-87135000D03*
X107400000Y-85865000D03*
X107400000Y-84595000D03*
D14*
X100700000Y-124750000D03*
X100700000Y-123800000D03*
X100700000Y-122850000D03*
X98500000Y-122850000D03*
X98500000Y-124750000D03*
D11*
X104600000Y-124400000D03*
X104600000Y-122400000D03*
D12*
X96000000Y-88750000D03*
X94000000Y-88750000D03*
D11*
X106900000Y-122400000D03*
X106900000Y-124400000D03*
D15*
X96300000Y-124850000D03*
X96300000Y-122950000D03*
X96300000Y-129750000D03*
X96300000Y-127850000D03*
X108100000Y-118950000D03*
X108100000Y-117050000D03*
D16*
X105800000Y-118749020D03*
X105800000Y-116650980D03*
D17*
X75140000Y-111800000D03*
X71840000Y-111800000D03*
X71840000Y-116600000D03*
X75140000Y-116600000D03*
X117400000Y-111350000D03*
X114100000Y-111350000D03*
X114100000Y-116150000D03*
X117400000Y-116150000D03*
X117000000Y-136850000D03*
X113700000Y-136850000D03*
X113700000Y-141650000D03*
X117000000Y-141650000D03*
X76050000Y-137200000D03*
X72750000Y-137200000D03*
X72750000Y-142000000D03*
X76050000Y-142000000D03*
X111650000Y-96350000D03*
X108350000Y-96350000D03*
X108350000Y-101150000D03*
X111650000Y-101150000D03*
X81150000Y-96350000D03*
X77850000Y-96350000D03*
X77850000Y-101150000D03*
X81150000Y-101150000D03*
X77650000Y-68600000D03*
X74350000Y-68600000D03*
X74350000Y-73400000D03*
X77650000Y-73400000D03*
X114900000Y-68600000D03*
X111600000Y-68600000D03*
X111600000Y-73400000D03*
X114900000Y-73400000D03*
D15*
X96250000Y-135100000D03*
X96250000Y-137000000D03*
X92750000Y-135100000D03*
X92750000Y-137000000D03*
X90500000Y-135100000D03*
X90500000Y-137000000D03*
D18*
X78550000Y-103750000D03*
X80450000Y-103750000D03*
D12*
X109750000Y-86750000D03*
X111750000Y-86750000D03*
X88000000Y-73250000D03*
X90000000Y-73250000D03*
D11*
X78400000Y-138400000D03*
X78400000Y-140400000D03*
D19*
X75100000Y-101800000D03*
X75100000Y-99490000D03*
X98500000Y-134790000D03*
X98500000Y-137100000D03*
D20*
X84500000Y-101600000D03*
X84500000Y-105600000D03*
X86900000Y-105600000D03*
X86900000Y-101600000D03*
D21*
X76750000Y-77500000D03*
X76750000Y-82500000D03*
X73250000Y-77500000D03*
X73250000Y-82500000D03*
M02*
