G04 #@! TF.FileFunction,Soldermask,Top*
%FSLAX46Y46*%
G04 Gerber Fmt 4.6, Leading zero omitted, Abs format (unit mm)*
G04 Created by KiCad (PCBNEW 4.0.2+e4-6225~38~ubuntu16.04.1-stable) date Wed 15 Jun 2016 08:19:12 PM PDT*
%MOMM*%
G01*
G04 APERTURE LIST*
%ADD10C,0.100000*%
%ADD11C,2.432000*%
%ADD12O,2.432000X2.127200*%
%ADD13C,2.398980*%
%ADD14R,1.650000X1.400000*%
%ADD15C,2.635200*%
%ADD16R,1.400000X1.650000*%
%ADD17C,4.400000*%
%ADD18C,1.797000*%
%ADD19R,2.100000X1.050000*%
%ADD20R,1.460000X1.050000*%
%ADD21R,1.700000X1.100000*%
%ADD22R,1.598880X1.598880*%
%ADD23R,1.800000X2.200000*%
%ADD24R,1.100000X1.700000*%
%ADD25C,1.924000*%
%ADD26O,2.432000X2.432000*%
%ADD27R,1.050000X1.200000*%
%ADD28R,1.700000X2.400000*%
%ADD29C,1.400000*%
%ADD30O,1.650000X3.600000*%
%ADD31C,1.700000*%
%ADD32C,2.127200*%
%ADD33O,2.127200X2.432000*%
%ADD34R,1.500000X1.700000*%
G04 APERTURE END LIST*
D10*
D11*
X67750000Y-92960000D03*
D12*
X67750000Y-95500000D03*
X67750000Y-98040000D03*
X67750000Y-100580000D03*
X67750000Y-103120000D03*
D13*
X95000000Y-51750000D03*
X97700020Y-49049980D03*
X92299980Y-49049980D03*
X92299980Y-54450020D03*
X97700020Y-54450020D03*
D14*
X112000000Y-113750000D03*
X112000000Y-115750000D03*
D10*
G36*
X89608311Y-99941763D02*
X89148692Y-99482144D01*
X90350773Y-98280063D01*
X90810392Y-98739682D01*
X89608311Y-99941763D01*
X89608311Y-99941763D01*
G37*
G36*
X89961864Y-100295316D02*
X89502245Y-99835697D01*
X90704326Y-98633616D01*
X91163945Y-99093235D01*
X89961864Y-100295316D01*
X89961864Y-100295316D01*
G37*
G36*
X90315418Y-100648870D02*
X89855799Y-100189251D01*
X91057880Y-98987170D01*
X91517499Y-99446789D01*
X90315418Y-100648870D01*
X90315418Y-100648870D01*
G37*
G36*
X90668971Y-101002423D02*
X90209352Y-100542804D01*
X91411433Y-99340723D01*
X91871052Y-99800342D01*
X90668971Y-101002423D01*
X90668971Y-101002423D01*
G37*
G36*
X91022524Y-101355976D02*
X90562905Y-100896357D01*
X91764986Y-99694276D01*
X92224605Y-100153895D01*
X91022524Y-101355976D01*
X91022524Y-101355976D01*
G37*
G36*
X91376078Y-101709530D02*
X90916459Y-101249911D01*
X92118540Y-100047830D01*
X92578159Y-100507449D01*
X91376078Y-101709530D01*
X91376078Y-101709530D01*
G37*
G36*
X91729631Y-102063083D02*
X91270012Y-101603464D01*
X92472093Y-100401383D01*
X92931712Y-100861002D01*
X91729631Y-102063083D01*
X91729631Y-102063083D01*
G37*
G36*
X92083185Y-102416637D02*
X91623566Y-101957018D01*
X92825647Y-100754937D01*
X93285266Y-101214556D01*
X92083185Y-102416637D01*
X92083185Y-102416637D01*
G37*
G36*
X92436738Y-102770190D02*
X91977119Y-102310571D01*
X93179200Y-101108490D01*
X93638819Y-101568109D01*
X92436738Y-102770190D01*
X92436738Y-102770190D01*
G37*
G36*
X92790291Y-103123743D02*
X92330672Y-102664124D01*
X93532753Y-101462043D01*
X93992372Y-101921662D01*
X92790291Y-103123743D01*
X92790291Y-103123743D01*
G37*
G36*
X93143845Y-103477297D02*
X92684226Y-103017678D01*
X93886307Y-101815597D01*
X94345926Y-102275216D01*
X93143845Y-103477297D01*
X93143845Y-103477297D01*
G37*
G36*
X93497398Y-103830850D02*
X93037779Y-103371231D01*
X94239860Y-102169150D01*
X94699479Y-102628769D01*
X93497398Y-103830850D01*
X93497398Y-103830850D01*
G37*
G36*
X96962221Y-103371231D02*
X96502602Y-103830850D01*
X95300521Y-102628769D01*
X95760140Y-102169150D01*
X96962221Y-103371231D01*
X96962221Y-103371231D01*
G37*
G36*
X97315774Y-103017678D02*
X96856155Y-103477297D01*
X95654074Y-102275216D01*
X96113693Y-101815597D01*
X97315774Y-103017678D01*
X97315774Y-103017678D01*
G37*
G36*
X97669328Y-102664124D02*
X97209709Y-103123743D01*
X96007628Y-101921662D01*
X96467247Y-101462043D01*
X97669328Y-102664124D01*
X97669328Y-102664124D01*
G37*
G36*
X98022881Y-102310571D02*
X97563262Y-102770190D01*
X96361181Y-101568109D01*
X96820800Y-101108490D01*
X98022881Y-102310571D01*
X98022881Y-102310571D01*
G37*
G36*
X98376434Y-101957018D02*
X97916815Y-102416637D01*
X96714734Y-101214556D01*
X97174353Y-100754937D01*
X98376434Y-101957018D01*
X98376434Y-101957018D01*
G37*
G36*
X98729988Y-101603464D02*
X98270369Y-102063083D01*
X97068288Y-100861002D01*
X97527907Y-100401383D01*
X98729988Y-101603464D01*
X98729988Y-101603464D01*
G37*
G36*
X99083541Y-101249911D02*
X98623922Y-101709530D01*
X97421841Y-100507449D01*
X97881460Y-100047830D01*
X99083541Y-101249911D01*
X99083541Y-101249911D01*
G37*
G36*
X99437095Y-100896357D02*
X98977476Y-101355976D01*
X97775395Y-100153895D01*
X98235014Y-99694276D01*
X99437095Y-100896357D01*
X99437095Y-100896357D01*
G37*
G36*
X99790648Y-100542804D02*
X99331029Y-101002423D01*
X98128948Y-99800342D01*
X98588567Y-99340723D01*
X99790648Y-100542804D01*
X99790648Y-100542804D01*
G37*
G36*
X100144201Y-100189251D02*
X99684582Y-100648870D01*
X98482501Y-99446789D01*
X98942120Y-98987170D01*
X100144201Y-100189251D01*
X100144201Y-100189251D01*
G37*
G36*
X100497755Y-99835697D02*
X100038136Y-100295316D01*
X98836055Y-99093235D01*
X99295674Y-98633616D01*
X100497755Y-99835697D01*
X100497755Y-99835697D01*
G37*
G36*
X100851308Y-99482144D02*
X100391689Y-99941763D01*
X99189608Y-98739682D01*
X99649227Y-98280063D01*
X100851308Y-99482144D01*
X100851308Y-99482144D01*
G37*
G36*
X99649227Y-97679021D02*
X99189608Y-97219402D01*
X100391689Y-96017321D01*
X100851308Y-96476940D01*
X99649227Y-97679021D01*
X99649227Y-97679021D01*
G37*
G36*
X99295674Y-97325468D02*
X98836055Y-96865849D01*
X100038136Y-95663768D01*
X100497755Y-96123387D01*
X99295674Y-97325468D01*
X99295674Y-97325468D01*
G37*
G36*
X98942120Y-96971914D02*
X98482501Y-96512295D01*
X99684582Y-95310214D01*
X100144201Y-95769833D01*
X98942120Y-96971914D01*
X98942120Y-96971914D01*
G37*
G36*
X98588567Y-96618361D02*
X98128948Y-96158742D01*
X99331029Y-94956661D01*
X99790648Y-95416280D01*
X98588567Y-96618361D01*
X98588567Y-96618361D01*
G37*
G36*
X98235014Y-96264808D02*
X97775395Y-95805189D01*
X98977476Y-94603108D01*
X99437095Y-95062727D01*
X98235014Y-96264808D01*
X98235014Y-96264808D01*
G37*
G36*
X97881460Y-95911254D02*
X97421841Y-95451635D01*
X98623922Y-94249554D01*
X99083541Y-94709173D01*
X97881460Y-95911254D01*
X97881460Y-95911254D01*
G37*
G36*
X97527907Y-95557701D02*
X97068288Y-95098082D01*
X98270369Y-93896001D01*
X98729988Y-94355620D01*
X97527907Y-95557701D01*
X97527907Y-95557701D01*
G37*
G36*
X97174353Y-95204147D02*
X96714734Y-94744528D01*
X97916815Y-93542447D01*
X98376434Y-94002066D01*
X97174353Y-95204147D01*
X97174353Y-95204147D01*
G37*
G36*
X96820800Y-94850594D02*
X96361181Y-94390975D01*
X97563262Y-93188894D01*
X98022881Y-93648513D01*
X96820800Y-94850594D01*
X96820800Y-94850594D01*
G37*
G36*
X96467247Y-94497041D02*
X96007628Y-94037422D01*
X97209709Y-92835341D01*
X97669328Y-93294960D01*
X96467247Y-94497041D01*
X96467247Y-94497041D01*
G37*
G36*
X96113693Y-94143487D02*
X95654074Y-93683868D01*
X96856155Y-92481787D01*
X97315774Y-92941406D01*
X96113693Y-94143487D01*
X96113693Y-94143487D01*
G37*
G36*
X95760140Y-93789934D02*
X95300521Y-93330315D01*
X96502602Y-92128234D01*
X96962221Y-92587853D01*
X95760140Y-93789934D01*
X95760140Y-93789934D01*
G37*
G36*
X94699479Y-93330315D02*
X94239860Y-93789934D01*
X93037779Y-92587853D01*
X93497398Y-92128234D01*
X94699479Y-93330315D01*
X94699479Y-93330315D01*
G37*
G36*
X94345926Y-93683868D02*
X93886307Y-94143487D01*
X92684226Y-92941406D01*
X93143845Y-92481787D01*
X94345926Y-93683868D01*
X94345926Y-93683868D01*
G37*
G36*
X93992372Y-94037422D02*
X93532753Y-94497041D01*
X92330672Y-93294960D01*
X92790291Y-92835341D01*
X93992372Y-94037422D01*
X93992372Y-94037422D01*
G37*
G36*
X93638819Y-94390975D02*
X93179200Y-94850594D01*
X91977119Y-93648513D01*
X92436738Y-93188894D01*
X93638819Y-94390975D01*
X93638819Y-94390975D01*
G37*
G36*
X93285266Y-94744528D02*
X92825647Y-95204147D01*
X91623566Y-94002066D01*
X92083185Y-93542447D01*
X93285266Y-94744528D01*
X93285266Y-94744528D01*
G37*
G36*
X92931712Y-95098082D02*
X92472093Y-95557701D01*
X91270012Y-94355620D01*
X91729631Y-93896001D01*
X92931712Y-95098082D01*
X92931712Y-95098082D01*
G37*
G36*
X92578159Y-95451635D02*
X92118540Y-95911254D01*
X90916459Y-94709173D01*
X91376078Y-94249554D01*
X92578159Y-95451635D01*
X92578159Y-95451635D01*
G37*
G36*
X92224605Y-95805189D02*
X91764986Y-96264808D01*
X90562905Y-95062727D01*
X91022524Y-94603108D01*
X92224605Y-95805189D01*
X92224605Y-95805189D01*
G37*
G36*
X91871052Y-96158742D02*
X91411433Y-96618361D01*
X90209352Y-95416280D01*
X90668971Y-94956661D01*
X91871052Y-96158742D01*
X91871052Y-96158742D01*
G37*
G36*
X91517499Y-96512295D02*
X91057880Y-96971914D01*
X89855799Y-95769833D01*
X90315418Y-95310214D01*
X91517499Y-96512295D01*
X91517499Y-96512295D01*
G37*
G36*
X91163945Y-96865849D02*
X90704326Y-97325468D01*
X89502245Y-96123387D01*
X89961864Y-95663768D01*
X91163945Y-96865849D01*
X91163945Y-96865849D01*
G37*
G36*
X90810392Y-97219402D02*
X90350773Y-97679021D01*
X89148692Y-96476940D01*
X89608311Y-96017321D01*
X90810392Y-97219402D01*
X90810392Y-97219402D01*
G37*
D15*
X61900000Y-106400000D03*
X128750000Y-96250000D03*
D16*
X98400000Y-128200000D03*
X100400000Y-128200000D03*
D14*
X85250000Y-98750000D03*
X85250000Y-96750000D03*
D16*
X82000000Y-107000000D03*
X80000000Y-107000000D03*
X96000000Y-105750000D03*
X94000000Y-105750000D03*
D14*
X102500000Y-99000000D03*
X102500000Y-97000000D03*
D17*
X77900000Y-61500000D03*
X111500000Y-61500000D03*
D11*
X116250000Y-82290000D03*
D12*
X116250000Y-79750000D03*
X116250000Y-77210000D03*
D11*
X120500000Y-104370000D03*
D12*
X120500000Y-101830000D03*
X120500000Y-99290000D03*
X120500000Y-96750000D03*
X120500000Y-94210000D03*
X120500000Y-91670000D03*
D15*
X66400000Y-111300000D03*
X121500000Y-111250000D03*
X126000000Y-107500000D03*
X128750000Y-102500000D03*
X126750000Y-91250000D03*
X122500000Y-87250000D03*
X65700000Y-87200000D03*
X60300000Y-99300000D03*
X61400000Y-92300000D03*
D14*
X80200000Y-68400000D03*
X80200000Y-70400000D03*
D16*
X88000000Y-75250000D03*
X90000000Y-75250000D03*
X96000000Y-90750000D03*
X94000000Y-90750000D03*
D14*
X87500000Y-98750000D03*
X87500000Y-96750000D03*
D16*
X80500000Y-93750000D03*
X78500000Y-93750000D03*
X111000000Y-93750000D03*
X109000000Y-93750000D03*
D14*
X77500000Y-114200000D03*
X77500000Y-116200000D03*
D18*
X80960000Y-119940000D03*
X86040000Y-119940000D03*
X80960000Y-127560000D03*
X86040000Y-127560000D03*
X88210000Y-125190000D03*
X93290000Y-125190000D03*
X88210000Y-132810000D03*
X93290000Y-132810000D03*
X73210000Y-125190000D03*
X78290000Y-125190000D03*
X73210000Y-132810000D03*
X78290000Y-132810000D03*
X80960000Y-129690000D03*
X86040000Y-129690000D03*
X80960000Y-137310000D03*
X86040000Y-137310000D03*
X109460000Y-125190000D03*
X114540000Y-125190000D03*
X109460000Y-132810000D03*
X114540000Y-132810000D03*
D14*
X111000000Y-138400000D03*
X111000000Y-140400000D03*
X109100000Y-68400000D03*
X109100000Y-70400000D03*
D19*
X100100000Y-84595000D03*
X100100000Y-85865000D03*
X100100000Y-87135000D03*
X100100000Y-88405000D03*
X107400000Y-88405000D03*
X107400000Y-87135000D03*
X107400000Y-85865000D03*
X107400000Y-84595000D03*
D20*
X100700000Y-124750000D03*
X100700000Y-123800000D03*
X100700000Y-122850000D03*
X98500000Y-122850000D03*
X98500000Y-124750000D03*
D14*
X104600000Y-124400000D03*
X104600000Y-122400000D03*
D16*
X96000000Y-88750000D03*
X94000000Y-88750000D03*
D14*
X106900000Y-122400000D03*
X106900000Y-124400000D03*
D21*
X96300000Y-124850000D03*
X96300000Y-122950000D03*
X96300000Y-129750000D03*
X96300000Y-127850000D03*
X108100000Y-118950000D03*
X108100000Y-117050000D03*
D22*
X105800000Y-118749020D03*
X105800000Y-116650980D03*
D23*
X75140000Y-111800000D03*
X71840000Y-111800000D03*
X71840000Y-116600000D03*
X75140000Y-116600000D03*
X117400000Y-111350000D03*
X114100000Y-111350000D03*
X114100000Y-116150000D03*
X117400000Y-116150000D03*
X117000000Y-136850000D03*
X113700000Y-136850000D03*
X113700000Y-141650000D03*
X117000000Y-141650000D03*
X76050000Y-137200000D03*
X72750000Y-137200000D03*
X72750000Y-142000000D03*
X76050000Y-142000000D03*
X111650000Y-96350000D03*
X108350000Y-96350000D03*
X108350000Y-101150000D03*
X111650000Y-101150000D03*
X81150000Y-96350000D03*
X77850000Y-96350000D03*
X77850000Y-101150000D03*
X81150000Y-101150000D03*
X77650000Y-68600000D03*
X74350000Y-68600000D03*
X74350000Y-73400000D03*
X77650000Y-73400000D03*
X114900000Y-68600000D03*
X111600000Y-68600000D03*
X111600000Y-73400000D03*
X114900000Y-73400000D03*
D21*
X96250000Y-135100000D03*
X96250000Y-137000000D03*
X92750000Y-135100000D03*
X92750000Y-137000000D03*
X90500000Y-135100000D03*
X90500000Y-137000000D03*
D24*
X78550000Y-103750000D03*
X80450000Y-103750000D03*
D25*
X85000000Y-62150000D03*
X85000000Y-75350000D03*
D11*
X90500000Y-113250000D03*
D26*
X87960000Y-113250000D03*
D11*
X99500000Y-113250000D03*
D26*
X102040000Y-113250000D03*
D16*
X109750000Y-86750000D03*
X111750000Y-86750000D03*
X88000000Y-73250000D03*
X90000000Y-73250000D03*
D14*
X78400000Y-138400000D03*
X78400000Y-140400000D03*
D27*
X75100000Y-101800000D03*
X75100000Y-99490000D03*
X98500000Y-134790000D03*
X98500000Y-137100000D03*
D28*
X84500000Y-101600000D03*
X84500000Y-105600000D03*
X86900000Y-105600000D03*
X86900000Y-101600000D03*
D29*
X91500000Y-141620000D03*
X94000000Y-141620000D03*
X96000000Y-141620000D03*
X98500000Y-141620000D03*
D30*
X100850000Y-143750000D03*
D31*
X92700000Y-143750000D03*
X97300000Y-143750000D03*
D30*
X89150000Y-143750000D03*
D25*
X79650000Y-84580000D03*
X92350000Y-84580000D03*
D32*
X102500000Y-81500000D03*
D33*
X99960000Y-81500000D03*
X97420000Y-81500000D03*
X94880000Y-81500000D03*
X92340000Y-81500000D03*
X89800000Y-81500000D03*
X87260000Y-81500000D03*
D34*
X76750000Y-77500000D03*
X76750000Y-82500000D03*
X73250000Y-77500000D03*
X73250000Y-82500000D03*
M02*
